<svg width="27" height="28" viewBox="0 0 27 28" fill="none" xmlns="http://www.w3.org/2000/svg">
<path d="M1.375 0.125C0.822715 0.125 0.375 0.572715 0.375 1.125V26.875C0.375 27.4273 0.822715 27.875 1.375 27.875H25.625C26.1773 27.875 26.625 27.4273 26.625 26.875V1.125C26.625 0.572715 26.1773 0.125 25.625 0.125H1.375ZM12.0417 24.2917C12.0417 24.5678 11.8178 24.7917 11.5417 24.7917H3.79167C3.51552 24.7917 3.29167 24.5678 3.29167 24.2917V16.0417C3.29167 15.7655 3.51552 15.5417 3.79167 15.5417H11.5417C11.8178 15.5417 12.0417 15.7655 12.0417 16.0417V24.2917ZM12.0417 11.9583C12.0417 12.2345 11.8178 12.4583 11.5417 12.4583H3.79167C3.51552 12.4583 3.29167 12.2345 3.29167 11.9583V3.70833C3.29167 3.43219 3.51552 3.20833 3.79167 3.20833H11.5417C11.8178 3.20833 12.0417 3.43219 12.0417 3.70833V11.9583ZM23.7083 24.2917C23.7083 24.5678 23.4845 24.7917 23.2083 24.7917H15.4583C15.1822 24.7917 14.9583 24.5678 14.9583 24.2917V16.0417C14.9583 15.7655 15.1822 15.5417 15.4583 15.5417H23.2083C23.4845 15.5417 23.7083 15.7655 23.7083 16.0417V24.2917ZM23.7083 11.9583C23.7083 12.2345 23.4845 12.4583 23.2083 12.4583H15.4583C15.1822 12.4583 14.9583 12.2345 14.9583 11.9583V3.70833C14.9583 3.43219 15.1822 3.20833 15.4583 3.20833H23.2083C23.4845 3.20833 23.7083 3.43219 23.7083 3.70833V11.9583Z" fill="#212121"/>
</svg>
