<svg width="28" height="22" viewBox="0 0 28 22" fill="none" xmlns="http://www.w3.org/2000/svg">
<path d="M2.8335 8.8125C1.62308 8.8125 0.645996 9.78958 0.645996 11C0.645996 12.2104 1.62308 13.1875 2.8335 13.1875C4.04391 13.1875 5.021 12.2104 5.021 11C5.021 9.78958 4.04391 8.8125 2.8335 8.8125ZM2.8335 0.0625C1.62308 0.0625 0.645996 1.03958 0.645996 2.25C0.645996 3.46042 1.62308 4.4375 2.8335 4.4375C4.04391 4.4375 5.021 3.46042 5.021 2.25C5.021 1.03958 4.04391 0.0625 2.8335 0.0625ZM2.8335 17.5625C1.62308 17.5625 0.645996 18.5542 0.645996 19.75C0.645996 20.9458 1.63766 21.9375 2.8335 21.9375C4.02933 21.9375 5.021 20.9458 5.021 19.75C5.021 18.5542 4.04391 17.5625 2.8335 17.5625ZM7.2085 19.75C7.2085 20.5554 7.86141 21.2083 8.66683 21.2083H26.1668C26.9722 21.2083 27.6252 20.5554 27.6252 19.75C27.6252 18.9446 26.9722 18.2917 26.1668 18.2917H8.66683C7.86141 18.2917 7.2085 18.9446 7.2085 19.75ZM7.2085 11C7.2085 11.8054 7.86141 12.4583 8.66683 12.4583H26.1668C26.9722 12.4583 27.6252 11.8054 27.6252 11C27.6252 10.1946 26.9722 9.54167 26.1668 9.54167H8.66683C7.86141 9.54167 7.2085 10.1946 7.2085 11ZM8.66683 0.791667C7.86141 0.791667 7.2085 1.44458 7.2085 2.25C7.2085 3.05542 7.86141 3.70833 8.66683 3.70833H26.1668C26.9722 3.70833 27.6252 3.05542 27.6252 2.25C27.6252 1.44458 26.9722 0.791667 26.1668 0.791667H8.66683Z" fill="#B9C4CA"/>
</svg>
