<svg width="239" height="239" viewBox="0 0 239 239" fill="none" xmlns="http://www.w3.org/2000/svg">
<path opacity="0.0344828" d="M37.8301 111.676C30.2527 121.708 31.7439 135.896 41.2416 144.133L56.9191 157.731C59.9061 160.321 62.2603 163.562 63.8011 167.203L71.8884 186.315C76.7878 197.893 89.8204 203.696 101.703 199.589L121.318 192.811C125.055 191.519 129.038 191.101 132.962 191.587L153.557 194.139C166.034 195.686 177.575 187.3 179.96 174.956L183.897 154.58C184.647 150.698 186.276 147.039 188.659 143.884L201.167 127.324C208.745 117.292 207.254 103.104 197.756 94.8668L182.078 81.2694C179.091 78.6787 176.737 75.4385 175.196 71.7972L167.109 52.6851C162.21 41.1067 149.177 35.3042 137.294 39.4107L117.68 46.1892C113.943 47.4806 109.96 47.8993 106.036 47.413L85.4405 44.8608C72.9636 43.3146 61.4223 51.6999 59.0372 64.0439L55.1003 84.4198C54.3502 88.3019 52.7211 91.9608 50.3381 95.1159L37.8301 111.676Z" stroke="#6FCF97" stroke-width="2"/>
<path opacity="0.0689655" d="M38.7132 115.774C31.6711 126.189 33.9028 140.279 43.8186 148.008L59.7034 160.39C62.8219 162.821 65.3424 165.933 67.0717 169.489L75.8804 187.601C81.379 198.907 94.6974 204.02 106.349 199.297L125.014 191.731C128.679 190.246 132.635 189.619 136.579 189.9L156.668 191.327C169.209 192.218 180.296 183.24 182.032 170.788L184.812 150.841C185.358 146.925 186.793 143.186 189.008 139.91L200.289 123.226C207.331 112.811 205.1 98.7204 195.184 90.9913L179.299 78.6094C176.18 76.1786 173.66 73.066 171.931 69.5103L163.122 51.3983C157.623 40.0922 144.305 34.9797 132.653 39.7025L113.988 47.2682C110.324 48.7535 106.368 49.38 102.424 49.0998L82.334 47.6723C69.7933 46.7812 58.7066 55.7591 56.9708 68.211L54.1902 88.1586C53.6443 92.0746 52.209 95.8137 49.9943 99.0892L38.7132 115.774Z" stroke="#6FCF97" stroke-width="2"/>
<path opacity="0.103448" d="M39.7932 119.759C33.3059 130.528 36.272 144.482 46.5787 151.682L62.5878 162.865C65.8292 165.129 68.5091 168.106 70.4222 171.566L79.8704 188.656C85.9533 199.659 99.521 204.067 110.909 198.741L128.599 190.469C132.18 188.794 136.098 187.961 140.051 188.034L159.576 188.397C172.146 188.631 182.748 179.085 183.829 166.559L185.509 147.103C185.85 143.164 187.087 139.355 189.128 135.968L199.204 119.24C205.691 108.471 202.725 94.517 192.419 87.3173L176.41 76.1344C173.168 73.8702 170.488 70.8938 168.575 67.4335L159.127 50.3432C153.044 39.3403 139.476 34.9319 128.088 40.258L110.399 48.5308C106.817 50.2058 102.899 51.0385 98.9462 50.9651L79.4215 50.6023C66.8513 50.3688 56.2497 59.9146 55.168 72.4403L53.4878 91.896C53.1476 95.8353 51.91 99.6444 49.8697 103.031L39.7932 119.759Z" stroke="#6FCF97" stroke-width="2"/>
<path opacity="0.137931" d="M41.0711 123.621C35.1563 134.715 38.8486 148.495 49.518 155.145L65.5708 165.151C68.9263 167.243 71.7583 170.075 73.8498 173.43L83.8557 189.483C90.506 200.153 104.286 203.845 115.38 197.93L132.072 189.031C135.561 187.171 139.429 186.134 143.381 186L162.286 185.362C174.851 184.937 184.939 174.849 185.363 162.284L186.002 143.379C186.136 139.427 187.172 135.559 189.033 132.07L197.932 115.378C203.847 104.284 200.154 90.5042 189.485 83.8538L173.432 73.848C170.077 71.7565 167.245 68.9244 165.153 65.5689L155.147 49.5162C148.497 38.8467 134.717 35.1545 123.623 41.0693L106.931 49.9685C103.442 51.8286 99.5737 52.8652 95.622 52.9988L76.7169 53.6377C64.1518 54.0624 54.0642 64.1499 53.6396 76.7151L53.0006 95.6201C52.8671 99.5718 51.8305 103.44 49.9703 106.929L41.0711 123.621Z" stroke="#6FCF97" stroke-width="2"/>
<path opacity="0.172414" d="M42.5281 127.352C37.202 138.741 41.6105 152.308 52.6133 158.391L68.6319 167.247C72.0922 169.16 75.0686 171.84 77.3328 175.081L87.8145 190.087C95.0141 200.393 108.968 203.359 119.738 196.872L135.416 187.427C138.803 185.387 142.612 184.149 146.551 183.809L164.787 182.235C177.313 181.153 186.859 170.551 186.625 157.981L186.285 139.681C186.212 135.727 187.044 131.81 188.719 128.228L196.473 111.648C201.8 100.26 197.391 86.6921 186.388 80.6093L170.37 71.7535C166.909 69.8405 163.933 67.1605 161.669 63.9191L151.187 48.914C143.987 38.6072 130.033 35.6412 119.264 42.1285L103.585 51.5731C100.198 53.6133 96.3893 54.851 92.4501 55.1912L74.2144 56.766C61.6887 57.8477 52.1429 68.4493 52.3765 81.0195L52.7164 99.3199C52.7899 103.273 51.9572 107.191 50.2821 110.772L42.5281 127.352Z" stroke="#6FCF97" stroke-width="2"/>
<path opacity="0.206897" d="M44.1572 130.942C39.4344 142.594 44.5469 155.912 55.853 161.411L71.7624 169.149C75.3182 170.878 78.4307 173.398 80.8615 176.517L91.7377 190.47C99.4669 200.386 113.557 202.617 123.972 195.575L138.628 185.666C141.903 183.451 145.642 182.016 149.558 181.47L167.08 179.028C179.532 177.292 188.51 166.205 187.619 153.665L186.365 136.018C186.085 132.074 186.711 128.118 188.197 124.454L194.842 108.058C199.565 96.4065 194.453 83.0881 183.146 77.5894L167.237 69.852C163.681 68.1227 160.569 65.6022 158.138 62.4837L147.262 48.5306C139.533 38.6148 125.442 36.3831 115.027 43.4251L100.372 53.3344C97.0962 55.5491 93.3571 56.9844 89.441 57.5303L71.9192 59.9728C59.4673 61.7085 50.4895 72.7952 51.3805 85.3359L52.6344 102.983C52.9147 106.927 52.2881 110.882 50.8028 114.547L44.1572 130.942Z" stroke="#6FCF97" stroke-width="2"/>
<path opacity="0.241379" d="M45.9502 134.385C41.8437 146.268 47.6462 159.3 59.2246 164.2L74.9533 170.855C78.5946 172.396 81.8348 174.75 84.4255 177.737L95.6158 190.639C103.853 200.137 118.041 201.628 128.073 194.051L141.702 183.757C144.857 181.374 148.516 179.745 152.398 178.995L169.166 175.755C181.511 173.37 189.896 161.828 188.35 149.352L186.249 132.402C185.763 128.478 186.182 124.495 187.473 120.758L193.052 104.616C197.158 92.7332 191.356 79.7006 179.777 74.8012L164.048 68.1456C160.407 66.6048 157.167 64.2506 154.576 61.2636L143.386 48.3614C135.148 38.8637 120.961 37.3725 110.928 44.95L97.3001 55.2437C94.145 57.6267 90.4862 59.2558 86.604 60.0059L69.8352 63.2459C57.4912 65.6309 49.1059 77.1723 50.6521 89.6492L52.7525 106.598C53.2388 110.522 52.8201 114.506 51.5287 118.243L45.9502 134.385Z" stroke="#6FCF97" stroke-width="2"/>
<path opacity="0.275862" d="M47.8923 137.672C44.4133 149.753 50.8899 162.464 62.7088 166.751L78.1887 172.366C81.9057 173.714 85.2647 175.895 88.0081 178.742L99.4335 190.6C108.157 199.654 122.403 200.401 132.025 192.308L144.627 181.71C147.653 179.165 151.222 177.346 155.06 176.394L171.041 172.428C183.244 169.401 191.014 157.436 188.816 145.057L185.939 128.844C185.248 124.951 185.458 120.951 186.552 117.152L191.108 101.328C194.587 89.2468 188.111 76.5358 176.292 72.2491L160.812 66.6345C157.095 65.2864 153.736 63.105 150.992 60.2577L139.567 48.3998C130.844 39.3462 116.597 38.5996 106.975 46.6918L94.3731 57.2904C91.3471 59.8354 87.7785 61.6537 83.941 62.6059L67.959 66.5716C55.7567 69.5994 47.9869 81.5638 50.184 93.9427L53.0616 110.156C53.7526 114.049 53.543 118.049 52.4488 121.848L47.8923 137.672Z" stroke="#6FCF97" stroke-width="2"/>
<path opacity="0.310345" d="M49.9743 140.798C47.1324 153.045 54.2653 165.4 66.2924 169.062L81.4592 173.68C85.2416 174.832 88.7102 176.835 91.5989 179.534L103.182 190.36C112.367 198.945 126.633 198.945 135.818 190.36L147.401 179.534C150.29 176.835 153.758 174.832 157.541 173.68L172.708 169.062C184.735 165.4 191.868 153.045 189.026 140.798L185.442 125.354C184.548 121.502 184.548 117.497 185.442 113.646L189.026 98.2018C191.868 85.9549 184.735 73.6002 172.708 69.9379L157.541 65.3196C153.758 64.1678 150.29 62.1653 147.401 59.4654L135.818 48.6398C126.633 40.0552 112.367 40.0552 103.182 48.6398L91.5989 59.4654C88.7102 62.1653 85.2416 64.1678 81.4592 65.3196L66.2924 69.9379C54.2653 73.6002 47.1324 85.9549 49.9743 98.2018L53.5581 113.646C54.4518 117.497 54.4518 121.502 53.5581 125.354L49.9743 140.798Z" stroke="#6FCF97" stroke-width="2"/>
<path opacity="0.344828" d="M52.1842 143.757C49.9872 156.136 57.7569 168.101 69.9592 171.129L84.7526 174.799C88.5902 175.752 92.1588 177.57 95.1848 180.115L106.85 189.925C116.472 198.017 130.718 197.271 139.441 188.217L150.017 177.241C152.761 174.394 156.12 172.213 159.837 170.864L174.165 165.667C185.984 161.381 192.461 148.67 188.982 136.588L184.764 121.941C183.67 118.142 183.46 114.142 184.151 110.249L186.815 95.2417C189.012 82.8628 181.242 70.8984 169.04 67.8705L154.246 64.1998C150.409 63.2475 146.84 61.4292 143.814 58.8843L132.149 49.0738C122.527 40.9817 108.281 41.7283 99.5576 50.7819L88.982 61.7579C86.2385 64.6052 82.8796 66.7866 79.1626 68.1347L64.8339 73.3317C53.015 77.6185 46.5384 90.3295 50.0173 102.411L54.235 117.058C55.3292 120.857 55.5388 124.857 54.8478 128.75L52.1842 143.757Z" stroke="#6FCF97" stroke-width="2"/>
<path opacity="0.37931" d="M54.512 146.546C52.9658 159.023 61.3511 170.565 73.6952 172.95L88.0592 175.725C91.9414 176.475 95.6002 178.104 98.7553 180.487L110.429 189.305C120.461 196.882 134.649 195.391 142.887 185.893L152.472 174.841C155.063 171.854 158.303 169.5 161.945 167.959L175.418 162.258C186.996 157.359 192.799 144.326 188.692 132.443L183.914 118.616C182.622 114.879 182.203 110.896 182.69 106.972L184.489 92.4534C186.035 79.9765 177.65 68.4351 165.306 66.05L150.942 63.2747C147.06 62.5246 143.401 60.8955 140.246 58.5125L128.572 49.695C118.54 42.1175 104.352 43.6087 96.1142 53.1064L86.5286 64.1584C83.938 67.1453 80.6978 69.4995 77.0564 71.0403L63.5833 76.7415C52.0049 81.6409 46.2024 94.6735 50.3089 106.556L55.0874 120.384C56.3789 124.121 56.7975 128.104 56.3112 132.028L54.512 146.546Z" stroke="#6FCF97" stroke-width="2"/>
<path opacity="0.413793" d="M56.9437 149.16C56.0526 161.701 65.0305 172.787 77.4824 174.523L91.3656 176.458C95.2817 177.004 99.0208 178.44 102.296 180.654L113.908 188.506C124.323 195.548 138.414 193.316 146.143 183.4L154.76 172.345C157.191 169.226 160.304 166.706 163.86 164.976L176.465 158.846C187.771 153.347 192.884 140.029 188.161 128.377L182.895 115.386C181.41 111.722 180.784 107.766 181.064 103.822L182.057 89.84C182.948 77.2993 173.971 66.2126 161.519 64.4768L147.635 62.5415C143.719 61.9957 139.98 60.5603 136.705 58.3457L125.093 50.4942C114.678 43.4521 100.587 45.6838 92.8581 55.5996L84.2406 66.6552C81.8098 69.7736 78.6972 72.2941 75.1415 74.0234L62.5359 80.1541C51.2297 85.6528 46.1173 98.9712 50.84 110.623L56.1056 123.614C57.5909 127.278 58.2175 131.234 57.9372 135.178L56.9437 149.16Z" stroke="#6FCF97" stroke-width="2"/>
<path opacity="0.448276" d="M59.4672 151.595C59.2337 164.165 68.7794 174.767 81.3051 175.849L94.6605 177.002C98.5998 177.342 102.409 178.58 105.796 180.62L117.278 187.537C128.048 194.024 142.002 191.058 149.202 180.752L156.878 169.762C159.142 166.521 162.119 163.841 165.579 161.928L177.311 155.442C188.314 149.359 192.722 135.791 187.396 124.403L181.717 112.26C180.042 108.679 179.209 104.761 179.283 100.808L179.532 87.405C179.765 74.8348 170.219 64.2331 157.694 63.1515L144.338 61.9981C140.399 61.6579 136.59 60.4203 133.203 58.38L121.72 51.463C110.951 44.9757 96.997 47.9417 89.7973 58.2485L82.1208 69.2379C79.8566 72.4793 76.8802 75.1593 73.4198 77.0723L61.6882 83.5581C50.6853 89.6409 46.2769 103.209 51.603 114.597L57.2819 126.74C58.9569 130.321 59.7896 134.239 59.7162 138.192L59.4672 151.595Z" stroke="#6FCF97" stroke-width="2"/>
<path opacity="0.482759" d="M62.0723 153.849C62.497 166.415 72.5845 176.502 85.1497 176.927L97.9352 177.359C101.887 177.492 105.756 178.529 109.245 180.389L120.533 186.408C131.627 192.323 145.407 188.63 152.057 177.961L158.824 167.104C160.916 163.749 163.748 160.917 167.103 158.825L177.96 152.058C188.629 145.408 192.322 131.628 186.407 120.534L180.388 109.245C178.528 105.756 177.492 101.888 177.358 97.9361L176.926 85.1506C176.501 72.5854 166.414 62.4979 153.849 62.0732L141.063 61.6411C137.111 61.5076 133.243 60.471 129.754 58.6108L118.465 52.5923C107.371 46.6774 93.5911 50.3697 86.9408 61.0392L80.1738 71.8957C78.0823 75.2511 75.2503 78.0832 71.8948 80.1747L61.0383 86.9417C50.3689 93.592 46.6766 107.372 52.5914 118.466L58.6099 129.755C60.4701 133.244 61.5067 137.112 61.6402 141.064L62.0723 153.849Z" stroke="#6FCF97" stroke-width="2"/>
<path opacity="0.517241" d="M64.749 155.921C65.8307 168.446 76.4323 177.992 89.0025 177.759L101.181 177.532C105.134 177.459 109.052 178.292 112.633 179.967L123.667 185.127C135.055 190.453 148.623 186.044 154.706 175.042L160.599 164.382C162.512 160.921 165.192 157.945 168.433 155.681L178.419 148.705C188.726 141.506 191.692 127.552 185.204 116.782L178.919 106.349C176.879 102.962 175.641 99.1526 175.301 95.2134L174.253 83.078C173.172 70.5523 162.57 61.0065 150 61.2401L137.821 61.4663C133.868 61.5397 129.951 60.707 126.369 59.032L115.335 53.8719C103.947 48.5458 90.3793 52.9542 84.2964 63.9571L78.4032 74.617C76.4902 78.0774 73.8102 81.0537 70.5688 83.318L60.5833 90.2932C50.2765 97.4929 47.3105 111.447 53.7978 122.216L60.0829 132.65C62.1232 136.037 63.3608 139.846 63.701 143.785L64.749 155.921Z" stroke="#6FCF97" stroke-width="2"/>
<path opacity="0.551724" d="M67.4791 157.81C69.2148 170.262 80.3015 179.239 92.8423 178.348L104.381 177.529C108.325 177.248 112.281 177.875 115.946 179.36L126.667 183.706C138.318 188.428 151.636 183.316 157.135 172.01L162.195 161.607C163.924 158.051 166.444 154.938 169.563 152.508L178.687 145.396C188.603 137.667 190.834 123.576 183.792 113.161L177.313 103.578C175.098 100.303 173.663 96.5635 173.117 92.6474L171.52 81.19C169.784 68.7381 158.697 59.7602 146.156 60.6513L134.617 61.4712C130.673 61.7515 126.717 61.1249 123.053 59.6397L112.332 55.2941C100.681 50.5713 87.3622 55.6838 81.8635 66.9899L76.804 77.393C75.0747 80.9487 72.5542 84.0613 69.4358 86.4921L60.3119 93.6039C50.3961 101.333 48.1644 115.423 55.2065 125.838L61.6861 135.422C63.9008 138.697 65.3361 142.436 65.882 146.352L67.4791 157.81Z" stroke="#6FCF97" stroke-width="2"/>
<path opacity="0.586207" d="M70.2582 159.514C72.6432 171.858 84.1846 180.244 96.6615 178.698L107.534 177.35C111.458 176.864 115.441 177.283 119.178 178.574L129.533 182.153C141.416 186.259 154.449 180.457 159.348 168.878L163.618 158.788C165.158 155.147 167.513 151.907 170.5 149.316L178.776 142.138C188.274 133.9 189.765 119.712 182.188 109.68L175.584 100.938C173.201 97.7828 171.572 94.1239 170.822 90.2418L168.744 79.4848C166.359 67.1408 154.817 58.7555 142.34 60.3017L131.468 61.6491C127.544 62.1353 123.561 61.7167 119.824 60.4252L109.469 56.8467C97.5858 52.7402 84.5532 58.5427 79.6538 70.1211L75.3843 80.2108C73.8435 83.8522 71.4893 87.0924 68.5023 89.6831L60.2257 96.8615C50.728 105.099 49.2368 119.287 56.8143 129.319L63.4176 138.061C65.8006 141.216 67.4297 144.875 68.1798 148.757L70.2582 159.514Z" stroke="#6FCF97" stroke-width="2"/>
<path opacity="0.62069" d="M73.069 161.036C76.0968 173.238 88.0612 181.008 100.44 178.811L110.625 177.003C114.518 176.312 118.517 176.522 122.317 177.616L132.256 180.478C144.338 183.957 157.049 177.481 161.336 165.662L164.862 155.938C166.211 152.221 168.392 148.862 171.239 146.119L178.688 138.942C187.741 130.218 188.488 115.972 180.396 106.35L173.738 98.434C171.193 95.408 169.375 91.8394 168.423 88.0018L165.932 77.9627C162.904 65.7604 150.94 57.9906 138.561 60.1877L128.376 61.9953C124.483 62.6862 120.484 62.4766 116.684 61.3825L106.744 58.5203C94.6629 55.0413 81.9519 61.5179 77.6651 73.3368L74.1383 83.0606C72.7902 86.7776 70.6088 90.1366 67.7615 92.88L60.3129 100.057C51.2593 108.78 50.5127 123.027 58.6048 132.648L65.2625 140.565C67.8074 143.591 69.6257 147.159 70.5779 150.997L73.069 161.036Z" stroke="#6FCF97" stroke-width="2"/>
<path opacity="0.655172" d="M75.903 162.376C79.5653 174.404 91.9199 181.536 104.167 178.695L113.646 176.495C117.498 175.601 121.503 175.601 125.355 176.495L134.834 178.695C147.081 181.536 159.436 174.404 163.098 162.376L165.933 153.067C167.084 149.285 169.087 145.816 171.787 142.927L178.431 135.818C187.016 126.633 187.016 112.367 178.431 103.182L171.787 96.072C169.087 93.1833 167.084 89.7148 165.933 85.9324L163.098 76.6231C159.436 64.596 147.081 57.463 134.834 60.3049L125.355 62.5046C121.503 63.3984 117.498 63.3984 113.646 62.5046L104.167 60.3049C91.9199 57.463 79.5653 64.596 75.903 76.6231L73.0683 85.9323C71.9165 89.7148 69.914 93.1833 67.2141 96.072L60.5694 103.182C51.9848 112.367 51.9848 126.633 60.5694 135.818L67.2141 142.927C69.914 145.816 71.9165 149.285 73.0683 153.067L75.903 162.376Z" stroke="#6FCF97" stroke-width="2"/>
<path opacity="0.689655" d="M78.7466 163.539C83.0333 175.358 95.7443 181.835 107.826 178.356L116.589 175.832C120.388 174.738 124.388 174.529 128.281 175.22L137.26 176.813C149.638 179.01 161.603 171.24 164.631 159.038L166.827 150.188C167.779 146.35 169.597 142.781 172.142 139.755L178.012 132.776C186.104 123.154 185.357 108.908 176.304 100.185L169.737 93.8576C166.89 91.1142 164.708 87.7552 163.36 84.0382L160.251 75.4656C155.964 63.6467 143.253 57.1701 131.172 60.6491L122.409 63.1724C118.609 64.2666 114.61 64.4762 110.716 63.7852L101.738 62.1916C89.3589 59.9946 77.3945 67.7643 74.3667 79.9666L72.1706 88.8172C71.2183 92.6548 69.4 96.2234 66.8551 99.2494L60.9857 106.228C52.8935 115.85 53.6402 130.097 62.6937 138.82L69.2605 145.147C72.1078 147.891 74.2891 151.25 75.6373 154.967L78.7466 163.539Z" stroke="#6FCF97" stroke-width="2"/>
<path opacity="0.724138" d="M81.5936 164.522C86.493 176.1 99.5256 181.903 111.408 177.796L119.448 175.018C123.186 173.726 127.169 173.307 131.093 173.794L139.535 174.84C152.012 176.386 163.553 168.001 165.938 155.657L167.552 147.305C168.302 143.422 169.931 139.764 172.314 136.608L177.441 129.82C185.019 119.788 183.527 105.6 174.03 97.3629L167.603 91.7893C164.616 89.1986 162.262 85.9584 160.721 82.317L157.406 74.4829C152.507 62.9045 139.474 57.102 127.592 61.2085L119.552 63.987C115.814 65.2785 111.831 65.6971 107.907 65.2109L99.4652 64.1647C86.9883 62.6185 75.447 71.0038 73.0619 83.3478L71.4481 91.7C70.698 95.5822 69.069 99.241 66.6859 102.396L61.5589 109.184C53.9814 119.216 55.4726 133.404 64.9703 141.642L71.3966 147.215C74.3836 149.806 76.7378 153.046 78.2786 156.688L81.5936 164.522Z" stroke="#6FCF97" stroke-width="2"/>
<path opacity="0.758621" d="M84.4293 165.33C89.9279 176.637 103.246 181.749 114.898 177.026L122.214 174.061C125.878 172.575 129.834 171.949 133.778 172.229L141.653 172.789C154.194 173.68 165.28 164.702 167.016 152.25L168.106 144.431C168.652 140.515 170.087 136.776 172.302 133.501L176.724 126.961C183.766 116.546 181.534 102.455 171.618 94.7263L165.392 89.873C162.273 87.4422 159.753 84.3296 158.024 80.7739L154.571 73.6746C149.072 62.3685 135.754 57.256 124.102 61.9788L116.786 64.9443C113.122 66.4296 109.166 67.0561 105.222 66.7759L97.3473 66.2164C84.8066 65.3253 73.7199 74.3031 71.9841 86.7551L70.8942 94.5738C70.3484 98.4899 68.913 102.229 66.6984 105.504L62.2765 112.044C55.2345 122.459 57.4661 136.55 67.382 144.279L73.6083 149.132C76.7268 151.563 79.2473 154.675 80.9766 158.231L84.4293 165.33Z" stroke="#6FCF97" stroke-width="2"/>
<path opacity="0.793103" d="M87.245 165.969C93.3278 176.972 106.896 181.38 118.284 176.054L124.88 172.969C128.462 171.294 132.379 170.461 136.333 170.535L143.614 170.67C156.184 170.903 166.785 161.358 167.867 148.832L168.494 141.577C168.834 137.638 170.071 133.829 172.112 130.442L175.869 124.204C182.357 113.435 179.39 99.4804 169.084 92.2808L163.114 88.1106C159.873 85.8464 157.193 82.87 155.28 79.4097L151.756 73.0367C145.673 62.0338 132.106 57.6254 120.717 62.9515L114.121 66.0364C110.539 67.7114 106.622 68.5441 102.669 68.4707L95.3877 68.3355C82.8175 68.1019 72.2159 77.6477 71.1342 90.1734L70.5077 97.4285C70.1675 101.368 68.9298 105.177 66.8896 108.564L63.132 114.801C56.6447 125.571 59.6108 139.525 69.9175 146.725L75.8873 150.895C79.1287 153.159 81.8087 156.135 83.7217 159.596L87.245 165.969Z" stroke="#6FCF97" stroke-width="2"/>
<path opacity="0.827586" d="M90.0301 166.44C96.6805 177.11 110.46 180.802 121.554 174.887L127.44 171.749C130.929 169.889 134.798 168.852 138.749 168.719L145.415 168.494C157.98 168.069 168.068 157.981 168.493 145.416L168.718 138.75C168.851 134.799 169.888 130.93 171.748 127.441L174.886 121.555C180.801 110.461 177.109 96.6815 166.439 90.0312L160.779 86.5031C157.423 84.4116 154.591 81.5795 152.5 78.224L148.972 72.5638C142.322 61.8944 128.542 58.2021 117.448 64.1169L111.562 67.2548C108.073 69.1149 104.204 70.1515 100.253 70.2851L93.5867 70.5104C81.0216 70.935 70.9341 81.0226 70.5094 93.5877L70.2841 100.254C70.1505 104.205 69.1139 108.074 67.2538 111.563L64.1159 117.449C58.2011 128.543 61.8934 142.322 72.5628 148.973L78.223 152.501C81.5785 154.592 84.4106 157.424 86.5021 160.78L90.0301 166.44Z" stroke="#6FCF97" stroke-width="2"/>
<path opacity="0.862069" d="M92.7728 166.752C99.9724 177.059 113.927 180.025 124.696 173.537L129.885 170.412C133.272 168.372 137.081 167.134 141.02 166.794L147.055 166.273C159.581 165.191 169.126 154.589 168.893 142.019L168.78 135.963C168.707 132.009 169.54 128.092 171.215 124.51L173.781 119.023C179.107 107.635 174.698 94.067 163.696 87.9841L158.394 85.0534C154.934 83.1403 151.958 80.4604 149.693 77.219L146.225 72.2531C139.025 61.9463 125.071 58.9803 114.301 65.4676L109.113 68.5933C105.726 70.6335 101.917 71.8711 97.9774 72.2113L91.9424 72.7325C79.4167 73.8142 69.8709 84.4158 70.1044 96.986L70.2169 103.042C70.2904 106.996 69.4577 110.913 67.7826 114.495L65.2165 119.982C59.8904 131.37 64.2988 144.938 75.3017 151.021L80.6029 153.952C84.0633 155.865 87.0397 158.545 89.3039 161.786L92.7728 166.752Z" stroke="#6FCF97" stroke-width="2"/>
<path opacity="0.896552" d="M95.4702 166.908C103.199 176.824 117.29 179.056 127.705 172.014L132.216 168.964C135.491 166.749 139.23 165.314 143.146 164.768L148.539 164.016C160.991 162.28 169.969 151.194 169.078 138.653L168.692 133.221C168.412 129.277 169.038 125.322 170.524 121.657L172.569 116.611C177.292 104.959 172.179 91.6409 160.873 86.1422L155.976 83.7607C152.421 82.0314 149.308 79.5109 146.877 76.3924L143.53 72.0978C135.801 62.182 121.71 59.9503 111.295 66.9924L106.784 70.0424C103.509 72.2571 99.7699 73.6923 95.8538 74.2382L90.4608 74.99C78.0089 76.7258 69.031 87.8125 69.9221 100.353L70.308 105.785C70.5883 109.729 69.9617 113.684 68.4765 117.349L66.431 122.395C61.7082 134.047 66.8207 147.365 78.1268 152.864L83.0236 155.245C86.5793 156.975 89.6918 159.495 92.1226 162.614L95.4702 166.908Z" stroke="#6FCF97" stroke-width="2"/>
<path opacity="0.931035" d="M98.1077 166.914C106.345 176.411 120.533 177.902 130.565 170.325L134.422 167.412C137.577 165.029 141.236 163.4 145.118 162.65L149.863 161.733C162.207 159.348 170.592 147.807 169.046 135.33L168.452 130.534C167.965 126.61 168.384 122.627 169.675 118.889L171.254 114.322C175.361 102.439 169.558 89.4064 157.98 84.507L153.529 82.6236C149.887 81.0828 146.647 78.7286 144.057 75.7416L140.89 72.0907C132.653 62.593 118.465 61.1018 108.433 68.6793L104.576 71.5921C101.421 73.9752 97.7622 75.6042 93.8801 76.3543L89.135 77.2711C76.7909 79.6562 68.4056 91.1975 69.9518 103.674L70.5462 108.471C71.0325 112.395 70.6138 116.378 69.3223 120.115L67.7438 124.683C63.6373 136.565 69.4398 149.598 81.0182 154.497L85.4689 156.381C89.1103 157.921 92.3505 160.276 94.9412 163.263L98.1077 166.914Z" stroke="#6FCF97" stroke-width="2"/>
<path opacity="0.965517" d="M100.682 166.777C109.405 175.83 123.652 176.577 133.273 168.485L136.503 165.768C139.53 163.223 143.098 161.405 146.936 160.453L151.032 159.436C163.234 156.409 171.004 144.444 168.807 132.065L168.069 127.91C167.378 124.017 167.588 120.017 168.682 116.217L169.85 112.162C173.329 100.08 166.852 87.3693 155.034 83.0826L151.066 81.6435C147.349 80.2953 143.99 78.114 141.246 75.2667L138.318 72.2274C129.595 63.1738 115.348 62.4272 105.726 70.5194L102.496 73.2359C99.4703 75.7808 95.9018 77.5991 92.0642 78.5514L87.9679 79.5678C75.7656 82.5956 67.9958 94.56 70.1929 106.939L70.9304 111.095C71.6214 114.988 71.4118 118.987 70.3176 122.787L69.1498 126.843C65.6708 138.924 72.1474 151.635 83.9663 155.922L87.934 157.361C91.651 158.709 95.0099 160.89 97.7534 163.738L100.682 166.777Z" stroke="#6FCF97" stroke-width="2"/>
<path d="M103.182 166.506C112.367 175.09 126.633 175.09 135.818 166.506L138.454 164.042C141.343 161.342 144.811 159.339 148.594 158.188L152.046 157.137C164.073 153.474 171.206 141.12 168.364 128.873L167.548 125.358C166.654 121.506 166.654 117.501 167.548 113.649L168.364 110.135C171.206 97.8877 164.073 85.533 152.046 81.8707L148.594 80.8197C144.811 79.6679 141.343 77.6653 138.454 74.9655L135.818 72.5017C126.633 63.9171 112.367 63.9171 103.182 72.5017L100.545 74.9655C97.6568 77.6653 94.1883 79.6679 90.4058 80.8197L86.954 81.8707C74.9269 85.533 67.794 97.8877 70.6359 110.135L71.4515 113.649C72.3453 117.501 72.3453 121.506 71.4515 125.358L70.6359 128.873C67.794 141.12 74.9269 153.474 86.954 157.137L90.4058 158.188C94.1883 159.339 97.6568 161.342 100.545 164.042L103.182 166.506Z" stroke="#6FCF97" stroke-width="2"/>
</svg>
