<svg width="95" height="95" viewBox="0 0 95 95" fill="none" xmlns="http://www.w3.org/2000/svg">
<rect width="95" height="95" rx="47.5" fill="#F2F5F7"/>
<path d="M49.4123 19.5765C49.2745 19.9013 48.9791 20.2853 48.8413 20.62C48.7527 20.8365 48.861 21.1122 49.0677 21.25C49.2745 21.3878 49.5698 21.3485 49.7175 21.1319C49.8356 20.9645 49.9242 20.7676 50.003 20.5707C50.1506 20.2262 50.2491 19.8816 50.5838 19.6946C51.4501 19.8029 52.3361 20.1671 53.163 20.4034C55.2992 21.0334 57.1401 22.2049 58.8235 23.6324C59.0992 23.8686 59.3158 23.8982 59.6209 23.7308C60.5463 23.2189 61.4914 22.7267 62.4266 22.2344C63.2929 21.7816 64.2183 21.4764 65.183 21.3485C66.5317 21.1614 67.8115 21.3485 68.9829 22.1163C69.6524 22.5593 70.243 23.0515 70.7746 23.6619C72.0642 25.1287 73.1963 26.694 74.1808 28.3675C74.8797 29.5587 75.5295 30.7695 76.1792 31.9804C76.9077 33.3291 77.7248 34.6384 78.4729 35.9772C80.048 38.7927 81.2983 41.7362 81.8889 44.9356C81.9972 45.5263 82.0661 46.1169 82.1154 46.7175C82.1547 47.2491 82.0366 47.7708 81.8889 48.2827C81.3475 50.1138 80.3237 51.6101 78.8962 52.8702C77.8232 53.8054 76.6517 54.5831 75.4015 55.2525C73.6689 56.1779 71.8083 56.7784 69.8492 57.0639C68.6581 57.2411 67.4669 57.2805 66.2659 57.2903C65.5177 57.3002 64.7892 57.182 64.0509 57.123C63.7162 57.0934 63.5587 57.1919 63.4012 57.4282C63.0369 57.9795 62.5841 58.4421 62.1116 58.895C61.9737 58.8753 61.9048 58.7768 61.8458 58.6686C61.6095 58.2354 61.324 57.8318 61.0188 57.4478C60.4675 56.7489 59.7489 56.3157 58.8727 56.2271C57.1795 56.0598 55.506 56.9753 54.7184 58.4914C53.9899 59.8991 53.9702 61.3659 54.5609 62.8327C54.6397 63.0296 54.7676 63.2167 54.5806 63.4136C53.9604 63.6203 53.3402 63.8369 52.72 64.0141C52.4247 64.1027 52.3164 64.2602 52.3656 64.5555C52.4542 65.1166 52.5034 65.6778 52.6216 66.229C52.9366 67.7155 53.3205 69.1824 53.9604 70.5704C54.492 71.7222 55.0334 72.8839 55.9883 73.7699C56.1163 73.888 56.2541 73.9963 56.392 74.1046C56.5396 74.2227 56.6873 74.2325 56.8842 74.1833C57.4945 74.016 57.8489 74.3408 57.7603 74.9709C57.6914 75.404 57.593 75.8372 57.3666 76.2211C56.5003 77.6978 55.5847 79.1449 54.3837 80.3853C53.8029 80.9759 53.0941 81.3697 52.405 81.793C52.1786 81.9309 51.9226 81.9998 51.647 81.9998C51.204 81.9998 50.9579 81.8029 50.8889 81.3599C50.8693 81.2516 50.8594 81.1433 50.8791 81.0449C50.9776 80.5526 50.7511 80.3262 50.3081 80.149C48.6936 79.4894 47.2761 78.5149 46.0258 77.2843C45.0512 76.3097 44.0963 75.3154 43.3088 74.1833C42.1668 72.5295 41.5072 70.6787 41.0249 68.7492C40.6606 67.2922 40.444 65.8156 40.2964 64.3192C40.2767 64.1322 40.2668 63.9747 40.0503 63.9058C39.5285 63.7483 39.0068 63.5809 38.485 63.4136C38.4063 63.3053 38.3669 63.2068 38.4358 63.0788C38.8493 62.311 38.9083 61.4742 38.9083 60.6177C38.8985 59.0722 38.2783 57.8416 37.028 56.9753C36.0633 56.3059 34.9902 56.0499 33.8188 56.3256C32.9918 56.5126 32.4406 57.0639 31.9188 57.6743C31.5743 58.0779 31.3478 58.5603 31.0525 58.9934C30.5504 58.4126 29.9499 57.9007 29.5365 57.2313C29.4577 57.1131 29.3593 57.1131 29.2214 57.123C27.9614 57.2706 26.6914 57.3297 25.4215 57.2903C23.4822 57.2214 21.6019 56.8769 19.7905 56.1976C17.2408 55.2427 14.9766 53.835 13.1357 51.807C12.0134 50.5765 11.3243 49.1195 11.0487 47.4755C10.9306 46.7371 11.0487 45.9988 11.1767 45.2605C11.7476 41.9134 13.0372 38.8321 14.7206 35.9083C15.9118 33.8213 17.103 31.7441 18.2449 29.6276C19.0916 28.0722 20.0071 26.566 21.0998 25.1779C21.6905 24.4297 22.3205 23.7111 22.9702 23.022C23.7381 22.2049 24.7422 21.7127 25.7956 21.4174C26.6914 21.1713 27.6463 21.2992 28.5717 21.4863C29.9302 21.7718 31.0919 22.4806 32.3027 23.0909C32.6965 23.2878 33.0804 23.5044 33.4742 23.7111C33.9467 23.9572 33.9566 23.9474 34.3504 23.6028C35.1478 22.9039 36.0239 22.3034 36.9198 21.7521C37.9928 21.0827 39.1741 20.6593 40.3653 20.2853C41.0544 20.0687 41.7435 19.862 42.4326 19.6552C42.5704 19.7438 42.6492 19.8816 42.7378 20.0096C42.9839 20.3345 43.1217 20.7184 43.3383 21.0531C43.5253 21.3485 43.8305 21.4272 44.0668 21.2992C44.2932 21.1811 44.3621 20.9547 44.2538 20.6101C44.1849 20.3935 44.0668 20.2065 43.9782 19.9899C43.8305 19.6552 43.2399 19.5568 43.6041 19.4386C43.6336 19.4288 43.9388 19.419 44.0766 19.4091C44.3621 19.3993 44.5295 19.3993 44.6575 19.419C44.8543 19.7635 44.746 20.1573 44.6771 20.5117C44.5984 20.935 44.7756 21.1417 45.1989 21.1417C45.4647 21.1417 45.6714 20.9842 45.7305 20.7775C45.8092 20.4821 45.9372 20.1868 45.8486 19.8521C45.7206 19.3796 45.6911 19.3402 46.1636 19.3304C46.2129 19.3304 46.3605 19.3304 46.4097 19.3304C47.3843 19.3402 47.2662 19.2221 47.2662 20.1573C47.2662 20.4526 47.3253 20.7086 47.5419 20.9251C47.7486 21.1319 48.0045 21.1909 48.2014 21.0728C48.4279 20.935 48.4869 20.7086 48.3983 20.4723C48.2605 20.1179 48.3294 19.7832 48.4278 19.4386C48.4278 19.4386 48.7527 19.478 48.861 19.4977C49.0874 19.5076 49.4123 19.5765 49.4123 19.5765ZM13.2637 48.8045C13.2538 49.2967 13.2538 49.7397 13.6181 50.0744C14.2973 50.6848 14.8782 51.3935 15.646 51.9153C17.0735 52.8997 18.5501 53.7956 20.1449 54.465C21.9464 55.2132 23.7972 55.8432 25.8153 55.6069C25.9039 55.5971 25.9925 55.6266 26.0712 55.6463C26.78 55.794 27.479 55.6857 28.1484 55.4593C28.68 55.2821 28.8277 54.8785 28.5028 54.4059C27.8432 53.451 27.538 52.3583 27.3018 51.2656C26.9671 49.72 26.5339 48.204 26.2484 46.6387C26.0122 45.3294 26.0614 44.0299 26.1303 42.7403C26.1795 41.9232 26.1894 41.0963 26.278 40.2694C26.3862 39.2948 26.4847 38.3103 26.6816 37.3554C26.8883 36.371 27.3215 35.4555 27.6956 34.5203C28.424 32.6892 29.1919 30.868 30.3634 29.2633C30.8064 28.6628 31.082 27.9737 31.4561 27.3338C31.7613 26.8121 31.397 26.251 30.7965 26.2214C30.4323 26.2017 30.0976 26.31 29.7727 26.4479C29.2805 26.6644 28.8572 26.9794 28.4043 27.2452C27.2329 27.9344 26.1303 28.7121 25.1459 29.667C24.8407 29.9623 24.6143 30.3167 24.3091 30.612C22.9407 31.941 21.6413 33.3192 20.4205 34.7959C19.1408 36.3513 18.048 38.0347 17.0833 39.7968C16.6108 40.6632 16.1579 41.5393 15.6657 42.3958C14.7108 44.0595 14.0118 45.8216 13.4802 47.6527C13.3621 48.0563 13.1948 48.4304 13.2637 48.8045ZM68.028 55.7349C68.4415 55.6562 68.8451 55.6365 69.2389 55.5774C71.0601 55.2722 72.7927 54.6914 74.4072 53.8054C74.8404 53.5692 75.2538 53.2935 75.687 53.0671C76.7896 52.4863 77.8035 51.7972 78.66 50.9013C78.8569 50.6946 79.0636 50.5076 79.29 50.3402C79.5755 50.1335 79.7429 49.8283 79.8512 49.4739C80.0087 48.9718 79.9004 48.4894 79.7822 48.0169C79.3786 46.5009 78.8175 45.0341 78.1284 43.6263C77.3113 41.9429 76.3859 40.3186 75.4507 38.7041C74.7025 37.4244 73.8658 36.2036 72.9404 35.0519C72.4088 34.3923 71.828 33.7819 71.2964 33.1322C70.8731 32.6203 70.4005 32.1379 69.9182 31.6752C69.5933 31.3799 69.2881 31.0649 68.9928 30.74C68.3529 30.0411 67.7032 29.3421 66.955 28.7416C65.9903 27.954 64.8975 27.3831 63.8737 26.694C63.4307 26.3986 62.9286 26.2116 62.3774 26.2313C61.7276 26.251 61.3929 26.8022 61.6981 27.3732C61.9934 27.9344 62.2888 28.4955 62.6432 29.0172C63.283 29.9623 63.854 30.9566 64.3659 31.9804C64.8581 32.955 65.2027 33.9985 65.6555 34.9928C66.5514 36.9518 66.8664 39.0191 66.9058 41.1455C66.9058 41.303 66.8762 41.4704 66.9156 41.6181C67.1125 42.3564 66.9944 43.1243 67.0928 43.8724C67.2503 45.1227 66.9944 46.3631 66.7286 47.5838C66.4923 48.6667 66.2167 49.7397 65.9607 50.8127C65.6654 52.0827 65.3504 53.3427 64.6317 54.465C64.3364 54.908 64.4742 55.2919 64.9763 55.4691C65.37 55.6069 65.7835 55.6857 66.2167 55.7152C66.8172 55.7448 67.4275 55.5183 68.028 55.7349ZM35.4628 50.2024C36.3094 50.1335 37.2249 49.7102 37.8648 48.8242C38.8 47.5345 38.1208 45.7626 36.5752 45.4082C35.1773 45.0833 33.5333 46.1563 33.1986 47.6035C32.854 49.0506 33.7696 50.2024 35.4628 50.2024ZM60.0442 48.1547C60.0147 47.9677 60.0049 47.7708 59.9655 47.5838C59.6898 46.4221 58.8629 45.8118 57.8096 45.4574C56.8251 45.1325 55.693 45.546 55.2106 46.3631C54.6692 47.2786 54.8169 48.4107 55.5847 49.1884C56.1065 49.72 56.7464 50.0449 57.4748 50.1827C58.9023 50.4288 60.0344 49.533 60.0442 48.1547ZM47.2859 56.6603C46.7641 56.68 46.2424 56.6701 45.7108 56.7391C44.6574 56.8867 43.6435 57.1328 42.6689 57.5463C42.216 57.7333 41.773 57.9696 41.4285 58.3338C41.2218 58.5504 41.1922 58.8458 41.3399 58.9934C41.4777 59.1312 41.7435 59.1312 41.9601 58.954C42.2357 58.7375 42.5409 58.5406 42.8559 58.4028C44.0668 57.8908 45.3269 57.6349 46.6362 57.6054C47.1284 57.5955 47.6206 57.6054 48.1128 57.6054C48.6641 57.6054 49.1957 57.694 49.7175 57.8712C50.2983 58.068 50.8791 58.2649 51.4501 58.5209C51.6765 58.6292 51.8734 58.5406 52.0014 58.3437C52.1293 58.1468 52.0506 57.9795 51.9029 57.8219C51.7257 57.6349 51.4993 57.5364 51.2729 57.438C50.003 56.9064 48.6838 56.552 47.2859 56.6603ZM46.587 51.7873C45.9766 51.7086 45.3269 51.8661 44.6771 51.9941C43.7616 52.1811 42.8658 52.4174 42.0388 52.8702C41.7238 53.0376 41.4482 53.2541 41.1922 53.5002C40.9855 53.6971 40.9953 53.9728 41.1627 54.1697C41.33 54.3666 41.4285 54.3666 41.7337 54.1204C42.344 53.6184 43.0528 53.3427 43.8108 53.136C44.9232 52.8407 46.0455 52.6832 47.1973 52.7422C48.2211 52.7915 49.2154 52.9687 50.1014 53.5495C50.2491 53.6479 50.4263 53.6873 50.5838 53.7464C50.8299 53.835 50.9283 53.6184 51.0465 53.4806C51.1547 53.3427 51.1351 53.1852 51.0366 53.0376C50.948 52.9194 50.82 52.8604 50.7019 52.7915C49.4418 52.0531 48.0931 51.7381 46.587 51.7873ZM47.0595 61.7498C46.6165 61.7498 46.2522 61.7105 45.9077 61.7597C44.6771 61.9271 43.5155 62.3208 42.4326 62.9213C42.0487 63.1281 41.6549 63.3348 41.3793 63.699C41.2218 63.9058 41.2513 64.0928 41.4777 64.2208C41.6746 64.3291 41.8715 64.3291 42.0684 64.1716C42.9937 63.4529 44.0766 63.0985 45.189 62.8327C45.8486 62.6752 46.5377 62.5472 47.217 62.6162C48.2113 62.7048 49.176 62.9804 50.1112 63.3643C50.4263 63.4923 50.7511 63.3742 50.8594 63.0985C50.9185 62.9312 50.7511 62.5965 50.4952 62.5177C49.3335 62.1633 48.2211 61.612 47.0595 61.7498ZM50.8988 66.1503C50.8988 65.8648 50.6428 65.6089 50.3278 65.6876C49.6584 65.8451 48.9791 65.8648 48.2999 65.9731C46.5771 66.2389 45.0118 66.8492 43.6435 67.9321C43.2694 68.2275 42.9544 68.5819 42.6197 68.9264C42.4621 69.0938 42.4917 69.2808 42.6394 69.4482C42.7772 69.6057 42.9347 69.6057 43.1119 69.5072C43.2399 69.4383 43.3383 69.3497 43.4466 69.2513C44.9823 67.7451 46.8823 67.056 48.9791 66.8394C49.4812 66.7902 49.9833 66.7114 50.4853 66.6228C50.7708 66.5736 50.8988 66.4062 50.8988 66.1503ZM51.8439 69.6549C51.8636 69.3399 51.5781 69.1135 51.263 69.1824C51.0366 69.2316 50.8397 69.3596 50.6428 69.4777C50.2392 69.7337 49.8356 69.9798 49.432 70.2259C48.0833 71.0331 46.9217 72.0274 46.1046 73.3958C45.8978 73.7403 45.7108 74.1046 45.6124 74.4983C45.5533 74.7248 45.6813 74.8823 45.8683 74.9709C46.075 75.0595 46.2424 74.9906 46.3408 74.774C46.3999 74.646 46.4688 74.5279 46.5279 74.3999C46.8331 73.7403 47.2662 73.1693 47.7781 72.6476C48.3885 72.0372 49.0776 71.5253 49.8159 71.0823C50.3573 70.7575 50.8791 70.4031 51.4501 70.1077C51.647 69.9995 51.8143 69.8518 51.8439 69.6549ZM57.15 75.3351C57.15 75.1678 57.15 74.9906 56.9728 74.9216C56.7857 74.8429 56.6282 74.9118 56.5101 75.0693C56.4412 75.1678 56.3821 75.276 56.3231 75.3843C56.136 75.7387 55.9391 76.0931 55.6832 76.4082C55.2303 76.989 54.807 77.5895 54.3345 78.1506C53.8324 78.7511 53.3796 79.4107 52.7791 79.9423C52.5133 80.1786 52.2081 80.3558 51.9817 80.6314C51.8439 80.7988 51.834 80.9464 51.9521 81.1039C52.0703 81.2713 52.2278 81.3796 52.4444 81.3008C52.5625 81.2614 52.6609 81.1925 52.7594 81.1236C53.3796 80.6806 53.9112 80.149 54.3837 79.5584C54.8956 78.9185 55.3878 78.2589 55.8899 77.5993C56.3329 77.0185 56.707 76.418 57.022 75.7683C57.1008 75.6403 57.1697 75.4926 57.15 75.3351ZM50.1802 78.0719C50.4164 78.062 50.5444 77.8651 50.633 77.6485C50.7413 77.3729 50.8397 77.0874 51.0169 76.8413C51.4993 76.1817 52.0998 75.6403 52.7102 75.0989C53.0842 74.774 53.4583 74.459 53.8226 74.1341C53.9998 73.9766 53.9998 73.8092 53.8324 73.632C53.5765 73.3564 53.4386 73.3564 53.0646 73.6222C52.2179 74.203 51.4993 74.9413 50.8003 75.6895C50.3278 76.1916 49.9734 76.7822 49.8159 77.4713C49.7372 77.7962 49.8848 78.0522 50.1802 78.0719Z" fill="#B7ACA3"/>
<path d="M54.5814 63.4038C54.7684 63.1971 54.6405 63.0199 54.5617 62.823C53.9711 61.3562 53.9907 59.8992 54.7192 58.4816C55.5068 56.9656 57.1803 56.05 58.8736 56.2174C59.7497 56.306 60.4684 56.7391 61.0196 57.4381C61.3248 57.822 61.6103 58.2256 61.8466 58.6588C61.9056 58.7769 61.9844 58.8655 62.1124 58.8852C62.0336 59.2888 62.3093 59.594 62.4471 59.9287C62.6833 60.5194 62.8507 61.1297 63.0377 61.7401C63.5004 63.2857 64.2387 64.6442 65.3709 65.8157C66.6605 67.1447 68.2553 67.8633 69.9682 68.4047C71.0905 68.7591 72.2423 68.8576 73.4039 68.8281C73.8075 68.8182 74.2013 68.6804 74.6147 68.7099C75.0971 68.7493 75.4023 68.9167 75.5303 69.2907C75.6583 69.655 75.5401 69.9011 75.2054 70.3638C75.0577 70.6 75.0184 70.5804 74.851 70.7871C74.7624 70.8954 74.5754 71.0627 74.4474 71.1316C73.6205 71.5943 72.8034 72.0964 71.8485 72.2736C70.9034 72.4508 69.9682 72.4705 69.0133 72.3622C66.9952 72.1358 65.1051 71.4762 63.2543 70.6985C61.7284 70.0586 60.2715 69.2514 59.0606 68.0799C58.6865 67.7156 58.273 67.3711 57.8301 67.0856C56.6684 66.3079 55.871 65.225 55.2016 64.0437C55.113 63.8862 55.0146 63.7483 54.926 63.5908C54.857 63.4235 54.7192 63.4038 54.5814 63.4038Z" fill="#EEDFD3"/>
<path d="M31.0431 58.9741C31.3384 58.5409 31.5747 58.0585 31.9094 57.6549C32.4311 57.0446 32.9726 56.4933 33.8093 56.3062C34.9907 56.0404 36.0637 56.2964 37.0186 56.956C38.2787 57.8321 38.8989 59.0528 38.8989 60.5984C38.8989 61.4549 38.8398 62.2916 38.4263 63.0595C38.3574 63.1973 38.387 63.2958 38.4756 63.3942C38.2098 63.404 38.1409 63.6305 38.0326 63.7978C37.688 64.3294 37.4124 64.9004 36.9989 65.3926C36.487 66.003 35.9554 66.5739 35.3057 67.0465C34.9808 67.2827 34.6461 67.519 34.3606 67.7946C32.9824 69.1532 31.3384 70.0982 29.5664 70.807C28.198 71.3583 26.7903 71.821 25.3431 72.1459C24.3095 72.3821 23.2561 72.4904 22.2028 72.4018C20.9132 72.3034 19.7515 71.8013 18.6785 71.0925C18.5308 70.9941 18.4029 70.8661 18.2847 70.7283C18.1075 70.5412 18.0878 70.4822 17.9303 70.3247C17.6842 70.1081 17.4775 69.7241 17.5365 69.4583C17.635 69.0547 17.9402 68.7495 18.3241 68.7102C18.5308 68.6905 18.7474 68.6806 18.9541 68.7102C20.7852 69.0153 22.5276 68.6708 24.2209 68.0211C25.1955 67.647 26.1209 67.1843 26.9379 66.5247C27.8436 65.7962 28.5623 64.9299 29.1431 63.9258C29.7141 62.9414 30.0094 61.8486 30.3539 60.7756C30.5508 60.1751 30.8068 59.5746 31.0431 58.9741Z" fill="#EEDFD3"/>
<path d="M48.4274 19.4192C48.3289 19.7637 48.2699 20.0984 48.3979 20.4528C48.4865 20.6891 48.4274 20.9155 48.201 21.0533C48.0041 21.1813 47.7383 21.1124 47.5414 20.9057C47.3248 20.6891 47.2658 20.4332 47.2658 20.1378C47.2658 19.2026 47.3937 19.3207 46.4093 19.3109C46.3601 19.3109 46.301 19.3109 46.2518 19.3109C45.7793 19.3207 45.7497 19.3306 45.8777 19.8031C45.9663 20.1378 45.8383 20.5021 45.7497 20.7876C45.6907 20.9943 45.4544 21.1124 45.1886 21.1124C44.7653 21.1223 44.5881 20.9155 44.6668 20.4824C44.7357 20.128 44.7456 19.8031 44.657 19.4093C44.4896 18.7104 44.3617 18.0705 44.0171 17.47C43.5446 16.6332 42.9441 15.8949 42.2451 15.2452C42.127 15.1369 42.0088 15.0286 41.9202 14.9006C41.7431 14.6545 41.7529 14.4281 41.9202 14.2213C42.1073 13.9949 42.3534 13.9359 42.629 14.0737C42.7078 14.1131 42.7866 14.1524 42.8555 14.2115C44.1254 15.3731 45.1591 16.6923 45.6316 18.3855C45.6316 18.4052 45.6414 18.4151 45.6513 18.4347C45.7202 18.6809 45.6611 19.0057 45.8875 19.1731C46.0844 19.3109 46.3699 19.1928 46.6062 19.2124C46.6948 19.2223 46.7834 19.2223 46.872 19.2223C47.315 19.2223 47.315 19.2223 47.4134 18.7793C47.6792 17.5291 48.2699 16.4363 49.087 15.4617C49.3823 15.1073 49.6678 14.7529 50.0123 14.4478C50.1403 14.3296 50.2781 14.2115 50.4258 14.1229C50.7015 13.9457 51.0165 13.9949 51.1937 14.2017C51.3709 14.4084 51.3512 14.7332 51.1543 14.9794C51.0952 15.0483 51.0263 15.1073 50.9672 15.1664C49.8647 16.2394 48.9098 17.4011 48.5357 18.9368C48.4766 19.0845 48.4668 19.1829 48.4274 19.4192Z" fill="#ACA49D"/>
<path d="M43.9876 19.951C44.0762 20.1577 44.214 20.3743 44.2829 20.5908C44.3912 20.9354 44.2928 21.1421 44.0565 21.2701C43.8202 21.3981 43.5151 21.3193 43.328 21.024C43.1115 20.6893 42.9736 20.3054 42.7275 19.9805C42.6291 19.8525 42.5503 19.7147 42.4223 19.6261C42.0679 19.1831 41.6939 18.7696 41.1623 18.5235C40.8768 18.3955 40.7783 18.1691 40.8276 17.9329C40.8866 17.6769 41.0934 17.5194 41.4182 17.4997C41.6939 17.48 41.9301 17.5981 42.1566 17.7557C42.6488 18.0904 43.0425 18.5235 43.3674 19.0059" fill="#ACA49D"/>
<path d="M49.2542 19.6357C49.1163 19.9606 48.9785 20.2953 48.8407 20.63C48.7521 20.8466 48.8604 21.1222 49.0671 21.26C49.2738 21.3978 49.5692 21.3585 49.7168 21.1419C49.835 20.9745 49.9236 20.7776 50.0023 20.5808C50.15 20.2362 50.2878 20.0196 50.5832 19.6948C50.721 19.5176 50.7308 19.4979 50.8194 19.4093C51.1344 19.0844 51.4495 18.7595 51.8826 18.5627C52.2173 18.415 52.3158 18.1787 52.237 17.8834C52.1681 17.6176 51.922 17.4798 51.5676 17.5093C51.2526 17.5388 50.9966 17.6964 50.7702 17.8932C50.4158 18.2083 50.0516 18.5233 49.7956 18.9269" fill="#ACA49D"/>
<path d="M13.2339 48.8242C13.165 48.4501 13.3324 48.0662 13.4406 47.6823C13.9821 45.8512 14.6712 44.0792 15.6261 42.4254C16.1183 41.5689 16.5712 40.6928 17.0437 39.8265C18.0085 38.0643 19.1012 36.3809 20.3809 34.8255C21.5918 33.3488 22.9011 31.9706 24.2695 30.6416C24.5747 30.3463 24.8109 29.9919 25.1063 29.6966C26.0809 28.7417 27.1933 27.964 28.3648 27.2749C28.8176 27.0091 29.2507 26.694 29.7331 26.4775C30.058 26.3298 30.3927 26.2313 30.7569 26.251C31.3574 26.2806 31.7315 26.8417 31.4165 27.3635C31.0424 28.0033 30.7668 28.6826 30.3238 29.293C29.1523 30.8976 28.3844 32.7188 27.656 34.5499C27.2819 35.4851 26.8487 36.3908 26.642 37.385C26.4353 38.3498 26.3368 39.3244 26.2384 40.299C26.1498 41.1259 26.1399 41.9528 26.0907 42.7699C26.0218 44.0595 25.9726 45.3689 26.2088 46.6683C26.4845 48.2237 26.9176 49.7496 27.2622 51.2952C27.4984 52.3879 27.8036 53.4806 28.4632 54.4355C28.7881 54.9081 28.6404 55.3018 28.1088 55.4889C27.4394 55.7252 26.7404 55.8236 26.0316 55.6759C25.943 55.6562 25.8544 55.6267 25.7757 55.6366C23.7674 55.8728 21.9167 55.2428 20.1053 54.4946C18.5105 53.835 17.0339 52.9293 15.6064 51.9449C14.8386 51.4133 14.2577 50.7144 13.5785 50.104C13.2241 49.7595 13.2241 49.3165 13.2339 48.8242Z" fill="#938A82"/>
<path d="M67.9987 55.7551C67.3982 55.5483 66.7879 55.7649 66.1775 55.7354C65.7542 55.7157 65.3408 55.6369 64.9371 55.4893C64.4351 55.3121 64.2972 54.9281 64.5926 54.4851C65.3211 53.3727 65.6262 52.1028 65.9216 50.8329C66.1775 49.7598 66.4532 48.6868 66.6894 47.6039C66.9552 46.3832 67.2112 45.1428 67.0537 43.8926C66.9552 43.1346 67.0734 42.3765 66.8765 41.6382C66.8371 41.4905 66.8666 41.3232 66.8666 41.1657C66.8273 39.0393 66.5122 36.9621 65.6164 35.0129C65.1635 34.0186 64.819 32.985 64.3268 32.0005C63.8149 30.9767 63.2537 29.9923 62.604 29.0374C62.2496 28.5156 61.9543 27.9545 61.6589 27.3934C61.3538 26.8224 61.6885 26.2711 62.3382 26.2514C62.8895 26.2317 63.3916 26.4188 63.8346 26.7141C64.8584 27.4032 65.9511 27.9742 66.9159 28.7617C67.6542 29.3622 68.3039 30.0612 68.9536 30.7601C69.249 31.085 69.5541 31.3902 69.879 31.6954C70.3712 32.1482 70.8339 32.6404 71.2572 33.1523C71.7987 33.8021 72.3696 34.4124 72.9012 35.072C73.8365 36.2238 74.6732 37.4445 75.4116 38.7243C76.3566 40.3387 77.2722 41.9631 78.0892 43.6465C78.7783 45.0542 79.3493 46.521 79.7431 48.0371C79.8711 48.5096 79.9794 48.9821 79.812 49.494C79.7037 49.8484 79.5364 50.1438 79.2509 50.3603C79.0245 50.5277 78.8177 50.7147 78.6208 50.9215C77.7644 51.8272 76.7504 52.5163 75.6478 53.0872C75.2147 53.3137 74.8012 53.5893 74.3681 53.8256C72.7437 54.7116 71.0111 55.2924 69.1997 55.5976C68.8257 55.6566 68.4122 55.6763 67.9987 55.7551Z" fill="#938A82"/>
<path d="M35.4333 50.2814C33.74 50.2814 32.8245 49.1297 33.1592 47.6924C33.4939 46.2354 35.1379 45.1624 36.5358 45.4971C38.0814 45.8613 38.7607 47.6235 37.8254 48.9131C37.1954 49.7892 36.2897 50.2125 35.4333 50.2814Z" fill="#2E2A26"/>
<path d="M60.0242 48.224C60.0143 49.6023 58.8822 50.5079 57.4548 50.2421C56.7263 50.1043 56.0864 49.7794 55.5646 49.2479C54.7968 48.4701 54.6491 47.338 55.1906 46.4225C55.6729 45.6054 56.805 45.192 57.7895 45.5168C58.8428 45.8712 59.6698 46.4816 59.9454 47.6432C59.9848 47.8401 59.9946 48.037 60.0242 48.224Z" fill="#2E2A26"/>
<path d="M47.256 56.6805C48.6637 56.5722 49.9731 56.9168 51.2528 57.4582C51.4792 57.5567 51.7057 57.6551 51.8829 57.8422C52.0305 57.9997 52.0994 58.167 51.9813 58.3639C51.8533 58.5608 51.6663 58.6396 51.43 58.5411C50.8689 58.2852 50.2881 58.0883 49.6974 57.8914C49.1757 57.724 48.6441 57.6256 48.0928 57.6256C47.6005 57.6256 47.1083 57.6157 46.6161 57.6256C45.3068 57.6551 44.0369 57.9111 42.8359 58.423C42.5208 58.5608 42.2157 58.7577 41.94 58.9743C41.7234 59.1416 41.4478 59.1515 41.3198 59.0136C41.1722 58.8561 41.2017 58.5707 41.4084 58.3541C41.753 57.9898 42.196 57.7536 42.6488 57.5665C43.6234 57.1531 44.6374 56.8971 45.6907 56.7593C46.2125 56.6904 46.7342 56.7101 47.256 56.6805Z" fill="#ACA49D"/>
<path d="M46.5568 51.8073C48.063 51.7581 49.4117 52.0731 50.6619 52.8016C50.78 52.8705 50.9179 52.9296 50.9966 53.0477C51.1049 53.1954 51.1246 53.3529 51.0065 53.4907C50.8883 53.6285 50.7997 53.8451 50.5438 53.7565C50.3764 53.6975 50.1992 53.6581 50.0614 53.5596C49.1754 52.9788 48.1811 52.8016 47.1573 52.7524C46.0055 52.7032 44.8832 52.8508 43.7708 53.1462C43.0128 53.3529 42.304 53.6285 41.6937 54.1306C41.3885 54.3767 41.29 54.3767 41.1227 54.1798C40.9553 53.9829 40.9455 53.7073 41.1522 53.5104C41.4082 53.2741 41.6838 53.0477 41.9988 52.8804C42.8258 52.4275 43.7314 52.1913 44.6371 52.0042C45.2967 51.8861 45.9464 51.7286 46.5568 51.8073Z" fill="#ACA49D"/>
<path d="M47.029 61.77C48.2005 61.6322 49.3129 62.1736 50.4647 62.528C50.7108 62.6068 50.888 62.9415 50.8289 63.1089C50.7206 63.3845 50.3958 63.5026 50.0807 63.3747C49.1455 63.0006 48.1808 62.7249 47.1865 62.6265C46.5072 62.5674 45.8181 62.6856 45.1585 62.8431C44.0461 63.1089 42.9534 63.4633 42.0379 64.1819C41.8508 64.3296 41.6539 64.3394 41.4472 64.2311C41.2208 64.1031 41.1912 63.9161 41.3488 63.7094C41.6244 63.3451 42.0182 63.1384 42.4021 62.9317C43.485 62.341 44.6466 61.9374 45.8772 61.77C46.2217 61.7306 46.586 61.77 47.029 61.77Z" fill="#ACA49D"/>
<path d="M50.8688 66.1703C50.8688 66.4263 50.7408 66.5936 50.4652 66.633C49.9631 66.7118 49.461 66.7905 48.959 66.8496C46.8621 67.0662 44.9621 67.7553 43.4264 69.2615C43.328 69.3599 43.2197 69.4485 43.0917 69.5174C42.9145 69.6159 42.757 69.6159 42.6192 69.4584C42.4715 69.291 42.442 69.104 42.5995 68.9366C42.9243 68.592 43.2492 68.2376 43.6233 67.9423C44.9917 66.8594 46.5569 66.2491 48.2797 65.9833C48.9491 65.875 49.6382 65.8553 50.3076 65.6978C50.6128 65.6387 50.8688 65.8848 50.8688 66.1703Z" fill="#ACA49D"/>
<path d="M51.8729 69.6749C51.8434 69.8718 51.676 70.0194 51.489 70.1179C50.9278 70.4132 50.3963 70.7676 49.8548 71.0925C49.1165 71.5453 48.4274 72.0474 47.817 72.6577C47.3051 73.1696 46.872 73.7406 46.5668 74.41C46.5077 74.538 46.4388 74.6561 46.3797 74.7841C46.2813 75.0007 46.1139 75.0696 45.9072 74.981C45.7202 74.8924 45.5922 74.7349 45.6513 74.5085C45.7497 74.1147 45.9269 73.7505 46.1435 73.4059C46.9606 72.0474 48.1222 71.0432 49.4709 70.236C49.8745 69.9899 50.2781 69.7438 50.6817 69.4878C50.8786 69.3697 51.0755 69.2417 51.3019 69.1925C51.6071 69.1334 51.8926 69.3599 51.8729 69.6749Z" fill="#ACA49D"/>
<path d="M57.1204 75.3553C57.1401 75.5128 57.0711 75.6605 57.0022 75.7983C56.6872 76.448 56.3131 77.0485 55.8701 77.6293C55.3681 78.2889 54.8758 78.9485 54.3639 79.5884C53.8914 80.179 53.3598 80.7106 52.7396 81.1536C52.6412 81.2225 52.5329 81.2915 52.4246 81.3308C52.208 81.4096 52.0505 81.3013 51.9324 81.1339C51.8142 80.9666 51.8241 80.8189 51.9619 80.6614C52.1883 80.3858 52.5033 80.2086 52.7593 79.9723C53.3598 79.4407 53.8028 78.791 54.3147 78.1806C54.7872 77.6195 55.2106 77.019 55.6634 76.4382C55.9095 76.1133 56.1064 75.7687 56.3033 75.4143C56.3623 75.3061 56.4214 75.1978 56.4903 75.0993C56.6085 74.9418 56.766 74.8729 56.953 74.9517C57.1204 75.0206 57.1302 75.1879 57.1204 75.3553Z" fill="#ACA49D"/>
<path d="M50.1997 78.0921C49.9043 78.0822 49.7567 77.8164 49.8354 77.5014C50.0028 76.8123 50.3473 76.2216 50.8199 75.7196C51.5188 74.9714 52.2276 74.2429 53.0841 73.6522C53.468 73.3864 53.596 73.3864 53.8519 73.6621C54.0193 73.8393 54.0193 74.0066 53.8421 74.1641C53.468 74.489 53.0939 74.804 52.7297 75.1289C52.1193 75.6605 51.5188 76.2019 51.0364 76.8714C50.8592 77.1175 50.7608 77.4029 50.6525 77.6786C50.5738 77.8853 50.4458 78.0822 50.1997 78.0921Z" fill="#ACA49D"/>
</svg>
