<svg width="26" height="20" viewBox="0 0 26 20" fill="none" xmlns="http://www.w3.org/2000/svg">
<path d="M24.667 0.0834961C24.8404 0.0869921 25.0048 0.118684 25.1691 0.196801C25.3385 0.277821 25.4876 0.399894 25.6003 0.550163C25.6743 0.660288 25.657 0.627241 25.6003 0.550163C25.7514 0.751649 25.8337 0.998365 25.8337 1.25016C25.8332 1.18802 25.8307 1.16105 25.8337 1.25016V18.7502C25.8337 19.3945 25.3113 19.9168 24.667 19.9168H1.33366C0.689327 19.9168 0.166992 19.3945 0.166992 18.7502V1.25016C0.166992 1.0413 0.223653 0.833905 0.330237 0.654777C0.547434 0.288805 0.92364 0.0917625 1.33366 0.0834961H24.667ZM23.5003 3.5835L13.7003 10.9335C13.327 11.2135 12.8277 11.2415 12.4291 11.0175L12.3003 10.9335L2.50033 3.5835V17.5835H23.5003V3.5835ZM4.83366 2.41683L13.0003 8.54183L21.167 2.41683H4.83366Z" fill="#A6ABB3"/>
</svg>
