<svg width="26" height="26" viewBox="0 0 26 26" fill="none" xmlns="http://www.w3.org/2000/svg">
<path fill-rule="evenodd" clip-rule="evenodd" d="M3.08366 2.49984C2.76149 2.49984 2.50033 2.761 2.50033 3.08317V22.9165C2.50033 23.2387 2.76149 23.4998 3.08366 23.4998H22.917C23.2392 23.4998 23.5003 23.2387 23.5003 22.9165V3.08317C23.5003 2.761 23.2392 2.49984 22.917 2.49984H3.08366ZM0.166992 3.08317C0.166992 1.47234 1.47283 0.166504 3.08366 0.166504H22.917C24.5278 0.166504 25.8337 1.47234 25.8337 3.08317V22.9165C25.8337 24.5273 24.5278 25.8332 22.917 25.8332H3.08366C1.47283 25.8332 0.166992 24.5273 0.166992 22.9165V3.08317ZM4.83366 5.99984C4.83366 5.3555 5.35599 4.83317 6.00033 4.83317H10.667C11.3113 4.83317 11.8337 5.3555 11.8337 5.99984V10.6665C11.8337 11.3108 11.3113 11.8332 10.667 11.8332H6.00033C5.35599 11.8332 4.83366 11.3108 4.83366 10.6665V5.99984ZM7.16699 7.1665V9.49984H9.50033V7.1665H7.16699ZM14.167 5.99984C14.167 5.3555 14.6893 4.83317 15.3337 4.83317H20.0003C20.6447 4.83317 21.167 5.3555 21.167 5.99984C21.167 6.64417 20.6447 7.1665 20.0003 7.1665H15.3337C14.6893 7.1665 14.167 6.64417 14.167 5.99984ZM14.167 10.6665C14.167 10.0222 14.6893 9.49984 15.3337 9.49984H20.0003C20.6447 9.49984 21.167 10.0222 21.167 10.6665C21.167 11.3108 20.6447 11.8332 20.0003 11.8332H15.3337C14.6893 11.8332 14.167 11.3108 14.167 10.6665ZM4.83366 15.3332C4.83366 14.6888 5.35599 14.1665 6.00033 14.1665H10.667C11.3113 14.1665 11.8337 14.6888 11.8337 15.3332V19.9998C11.8337 20.6442 11.3113 21.1665 10.667 21.1665H6.00033C5.35599 21.1665 4.83366 20.6442 4.83366 19.9998V15.3332ZM7.16699 16.4998V18.8332H9.50033V16.4998H7.16699ZM14.167 15.3332C14.167 14.6888 14.6893 14.1665 15.3337 14.1665H20.0003C20.6447 14.1665 21.167 14.6888 21.167 15.3332C21.167 15.9775 20.6447 16.4998 20.0003 16.4998H15.3337C14.6893 16.4998 14.167 15.9775 14.167 15.3332ZM14.167 19.9998C14.167 19.3555 14.6893 18.8332 15.3337 18.8332H20.0003C20.6447 18.8332 21.167 19.3555 21.167 19.9998C21.167 20.6442 20.6447 21.1665 20.0003 21.1665H15.3337C14.6893 21.1665 14.167 20.6442 14.167 19.9998Z" fill="#6FCF97"/>
</svg>
