<svg width="160" height="34" viewBox="0 0 160 34" fill="none" xmlns="http://www.w3.org/2000/svg">
<path d="M155.4 9.99976L151.8 18.7998C151.8 18.8998 151.7 18.9998 151.7 19.1998L151.6 19.3998L151.5 19.1998C151.5 19.0998 151.4 18.9998 151.4 18.7998L147.8 9.99976H143L149.3 25.1998L146.7 30.9998H151.5L160 9.99976H155.4ZM120.3 10.8998C119.4 10.2998 118.4 9.89976 117.2 9.79976C115.1 9.59976 113.1 10.2998 111.8 11.7998V9.99976H107.5V25.1998H111.8V17.1998C111.8 15.3998 112.2 14.9998 112.4 14.4998C112.9 13.5998 113.9 13.1998 115 13.2998C116.1 13.2998 117.3 13.7998 117.8 14.5998C118.2 15.1998 118.2 15.8998 118.2 16.3998V25.0998H122.5V15.9998C122.4 13.5998 121.7 11.9998 120.3 10.8998ZM99.4 10.0998C97.3 9.39976 95 9.49976 92.9 10.4998C91.4 11.0998 90.3 12.1998 89.4 13.5998C88.6 14.7998 88.3 16.1998 88.3 17.7998C88.3 19.3998 88.7 20.6998 89.4 21.9998C90.2 23.1998 91.2 24.0998 92.4 24.7998C93.7 25.3998 95.2 25.7998 96.5 25.7998C97.3 25.7998 98 25.6998 98.8 25.5998C99.4 25.4998 100.1 25.1998 100.7 24.8998C102 24.1998 103 23.2998 103.7 22.1998C104.5 20.9998 104.8 19.5998 104.8 17.9998C104.7 14.1998 102.7 11.3998 99.4 10.0998ZM100.5 17.6998C100.5 18.9998 100 20.0998 99.1 20.8998C98.5 21.4998 97.6 21.7998 96.3 21.7998C95.2 21.7998 94.3 21.3998 93.5 20.8998C92.6 20.1998 92.2 19.0998 92.1 17.6998C92.1 16.1998 92.6 14.8998 93.7 13.9998C94.2999 13.4998 95.1 13.2998 96.1 13.2998C97.1 13.2998 97.9 13.4998 98.5 13.9998C100 14.8998 100.7 16.2998 100.5 17.6998ZM83.4 10.8998C82.6 10.2998 81.5 9.89976 80.3 9.79976H79.5C77.7 9.79976 76.4 10.4998 75.1 11.9998L74.8 12.1998H74.3C73.9 11.6998 73.5 11.1998 73 10.9998C72.2 10.2998 71.2 9.89976 70 9.79976C68 9.59976 66.4 10.1998 65 11.5998V9.99976H60.7V25.1998H65V17.0998C65 15.3998 65.3 14.9998 65.5 14.4998C66 13.5998 67 13.1998 68 13.1998C69 13.1998 70 13.6998 70.5 14.4998C70.9 15.0998 70.9 15.7998 70.9 16.5998V24.9998H75.3V16.9998C75.3 15.4998 75.6 14.8998 75.8 14.3998C76.3 13.4998 77.3 13.1998 78.3 13.1998C79.3 13.1998 80.2 13.7998 80.7 14.4998C81 14.9998 81.1 15.5998 81.1 16.0998V25.0998H85.4V15.9998C85.4 15.0998 85.3 14.3998 85.1 13.6998C84.9 12.4998 84.3 11.4998 83.4 10.8998ZM138.6 20.5998C138 21.1998 136.5 22.2998 134.5 22.3998C132.9 22.3998 131.5 21.9998 130.6 21.0998C130.2 20.5998 129.8 20.0998 129.7 19.4998H141.6V19.3998C141.7 18.7998 141.7 18.1998 141.7 17.6998C141.7 17.1998 141.6 16.4998 141.3 15.4998C140.8 13.7998 139.8 12.3998 138.4 11.2998C136.9 10.1998 135.4 9.79976 135 9.79976C131.9 9.29976 128.4 10.6998 126.6 13.4998C125.3 15.4998 125.3 17.3998 125.5 17.9998C125.5 18.6998 125.6 21.0998 127.5 22.9998C129.6 25.2998 132.8 25.3998 133.8 25.5998C138.1 25.6998 140.9 23.1998 141.6 22.4998L138.6 20.5998ZM131.2 14.1998C131.8 13.6998 132.6 13.4998 133.6 13.4998C134.6 13.4998 135.4 13.6998 136 14.1998C136.6 14.6998 137.1 15.2998 137.4 16.1998H129.8C130.1 15.2998 130.6 14.6998 131.2 14.1998Z" fill="black"/>
<path d="M31.3 0.100098C21.7 0.100098 14 7.7001 14 17.0001C14 26.3001 21.8 33.9001 31.3 33.9001C40.8 33.9001 48.6 26.3001 48.6 17.0001C48.7 7.7001 40.8 0.100098 31.3 0.100098ZM31.3 23.2001C27.8 23.2001 24.8 20.4001 24.8 17.0001C24.8 13.6001 27.7 10.8001 31.3 10.8001C34.9 10.8001 37.8 13.6001 37.8 17.0001C37.7 20.4001 34.9 23.2001 31.3 23.2001ZM14 5.1001V29.7001H7.9L0 5.1001H14Z" fill="#8B3FFD"/>
</svg>
