<svg width="160" height="34" viewBox="0 0 160 34" fill="none" xmlns="http://www.w3.org/2000/svg">
<path d="M155.4 10L151.8 18.8C151.8 18.9 151.7 19 151.7 19.2L151.6 19.4L151.5 19.2C151.5 19.1 151.4 19 151.4 18.8L147.8 10H143L149.3 25.2L146.7 31H151.5L160 10H155.4ZM120.3 10.9C119.4 10.3 118.4 9.90001 117.2 9.80001C115.1 9.60001 113.1 10.3 111.8 11.8V10H107.5V25.2H111.8V17.2C111.8 15.4 112.2 15 112.4 14.5C112.9 13.6 113.9 13.2 115 13.3C116.1 13.3 117.3 13.8 117.8 14.6C118.2 15.2 118.2 15.9 118.2 16.4V25.1H122.5V16C122.4 13.6 121.7 12 120.3 10.9ZM99.4002 10.1C97.3002 9.40001 95.0002 9.50001 92.9002 10.5C91.4002 11.1 90.3002 12.2 89.4002 13.6C88.6002 14.8 88.3002 16.2 88.3002 17.8C88.3002 19.4 88.7002 20.7 89.4002 22C90.2002 23.2 91.2002 24.1 92.4002 24.8C93.7002 25.4 95.2002 25.8 96.5002 25.8C97.3002 25.8 98.0002 25.7 98.8002 25.6C99.4002 25.5 100.1 25.2 100.7 24.9C102 24.2 103 23.3 103.7 22.2C104.5 21 104.8 19.6 104.8 18C104.7 14.2 102.7 11.4 99.4002 10.1ZM100.5 17.7C100.5 19 100 20.1 99.1002 20.9C98.5002 21.5 97.6002 21.8 96.3002 21.8C95.2002 21.8 94.3002 21.4 93.5002 20.9C92.6002 20.2 92.2002 19.1 92.1002 17.7C92.1002 16.2 92.6002 14.9 93.7002 14C94.3002 13.5 95.1002 13.3 96.1002 13.3C97.1002 13.3 97.9002 13.5 98.5002 14C100 14.9 100.7 16.3 100.5 17.7ZM83.4002 10.9C82.6002 10.3 81.5002 9.90001 80.3002 9.80001H79.5002C77.7002 9.80001 76.4002 10.5 75.1002 12L74.8002 12.2H74.3002C73.9002 11.7 73.5002 11.2 73.0002 11C72.2002 10.3 71.2002 9.90001 70.0002 9.80001C68.0002 9.60001 66.4002 10.2 65.0002 11.6V10H60.7002V25.2H65.0002V17.1C65.0002 15.4 65.3002 15 65.5002 14.5C66.0002 13.6 67.0002 13.2 68.0002 13.2C69.0002 13.2 70.0002 13.7 70.5002 14.5C70.9002 15.1 70.9002 15.8 70.9002 16.6V25H75.3002V17C75.3002 15.5 75.6002 14.9 75.8002 14.4C76.3002 13.5 77.3002 13.2 78.3002 13.2C79.3002 13.2 80.2002 13.8 80.7002 14.5C81.0002 15 81.1002 15.6 81.1002 16.1V25.1H85.4002V16C85.4002 15.1 85.3002 14.4 85.1002 13.7C84.9002 12.5 84.3002 11.5 83.4002 10.9ZM138.6 20.6C138 21.2 136.5 22.3 134.5 22.4C132.9 22.4 131.5 22 130.6 21.1C130.2 20.6 129.8 20.1 129.7 19.5H141.6V19.4C141.7 18.8 141.7 18.2 141.7 17.7C141.7 17.2 141.6 16.5 141.3 15.5C140.8 13.8 139.8 12.4 138.4 11.3C136.9 10.2 135.4 9.80001 135 9.80001C131.9 9.30001 128.4 10.7 126.6 13.5C125.3 15.5 125.3 17.4 125.5 18C125.5 18.7 125.6 21.1 127.5 23C129.6 25.3 132.8 25.4 133.8 25.6C138.1 25.7 140.9 23.2 141.6 22.5L138.6 20.6ZM131.2 14.2C131.8 13.7 132.6 13.5 133.6 13.5C134.6 13.5 135.4 13.7 136 14.2C136.6 14.7 137.1 15.3 137.4 16.2H129.8C130.1 15.3 130.6 14.7 131.2 14.2Z" fill="white"/>
<path d="M31.3 0.0999756C21.7 0.0999756 14 7.69998 14 17C14 26.3 21.8 33.9 31.3 33.9C40.8 33.9 48.6 26.3 48.6 17C48.7 7.69998 40.8 0.0999756 31.3 0.0999756ZM31.3 23.2C27.8 23.2 24.8 20.4 24.8 17C24.8 13.6 27.7 10.8 31.3 10.8C34.9 10.8 37.8 13.6 37.8 17C37.7 20.4 34.9 23.2 31.3 23.2ZM14 5.09998V29.7H7.9L0 5.09998H14Z" fill="#8B3FFD"/>
</svg>
