<svg width="180" height="28" viewBox="0 0 180 28" fill="none" xmlns="http://www.w3.org/2000/svg">
<path d="M80.5 8.50002L84.3 5.70003H71.7V22.3H84.3V19.5H75.3V15.3H82.9V12.5H75.3V8.50002H80.5ZM64.8 8.50002L68.6 5.70003H54.2V22.3H61.7C65.9 22.3 68.3 20.4 68.3 17.1C68.3 13.9 66.1 12.2 62.1 12.2H57.7V8.50002H64.8ZM61.6 14.9C63.9 14.9 64.9 15.7 64.9 17.2C64.9 18.7 63.8 19.5 61.6 19.5H57.8V14.9H61.6ZM94.4 5.70003H87.6V22.3H91.2V17.6H94.5C98.9 17.6 101.6 15.3 101.6 11.6C101.6 7.90003 98.8 5.70003 94.4 5.70003ZM94.4 14.8H91.2V8.40002H94.4C96.7 8.40002 98 9.50003 98 11.6C97.9 13.7 96.7 14.8 94.4 14.8ZM48.1 18.7C47.1 19.2 46.1 19.5 45 19.5C41.8 19.5 39.4 17.2 39.4 14C39.4 10.8 41.7 8.50002 45 8.50002C46.2 8.50002 47.3 8.90002 48.3 9.50002L50.9 7.60003L50.7 7.40002C49.2 6.10002 47.2 5.40002 44.9 5.40002C42.4 5.40002 40.2 6.20002 38.5 7.80002C36.9 9.40002 35.9 11.6 36 13.9C36 16.2 36.9 18.4 38.5 20.1C40.2 21.7 42.5 22.6 44.8 22.5C47.4 22.5 49.6 21.6 51.2 20L48.9 18.3L48.1 18.7ZM156 12.5H148.3V5.70003H144.7V22.3H148.3V15.5H156V22.3H159.6V5.70003H156V12.5ZM131.7 5.70003L124.5 22.3H128.1L129.5 19H137.1L138.5 22.3H142.3L135.3 5.70003H131.7ZM130.7 16.2L133.5 9.50002L136.1 16.2H130.7ZM172.6 13.7L179.1 5.70003H175L169.6 12.8H167.6V5.70003H164V22.3H167.6V15.6H169.9L175.4 22.3H180L172.6 13.7ZM117 12.2H112.6V8.50002H122V5.70003H109V22.3H116.5C120.7 22.3 123.1 20.4 123.1 17.1C123.2 13.9 121 12.2 117 12.2ZM116.4 19.6H112.6V15H116.4C118.7 15 119.7 15.8 119.7 17.3C119.8 18.8 118.6 19.6 116.4 19.6Z" fill="white"/>
<path d="M24.4813 5.38129C25.1305 6.23192 25.6801 7.15605 26.1189 8.13514L13.67 17.4354L8.46729 14.1301V10.1538L13.67 13.459L24.4813 5.38129Z" fill="white"/>
<path d="M3.15729 13.8494C3.15729 13.671 3.16159 13.4938 3.17017 13.3175L0.0171718 13.1609C0.00644001 13.3893 3.81025e-06 13.6199 3.81025e-06 13.8527C-0.0013377 15.671 0.351574 17.4717 1.0385 19.1514C1.72543 20.8312 2.73284 22.357 4.00296 23.6413L6.23946 21.3758C5.26177 20.3889 4.48617 19.2159 3.95722 17.9243C3.42828 16.6327 3.15643 15.2478 3.15729 13.8494Z" fill="white"/>
<path d="M13.6669 3.19926C13.8429 3.19926 14.0178 3.20579 14.1917 3.21449L14.3494 0.0179719C14.1234 0.00709566 13.8958 0.00165822 13.6669 0.00165822C11.8719 -0.00056026 10.0942 0.356585 8.43573 1.05259C6.7773 1.74859 5.27087 2.76974 4.00293 4.0574L6.23943 6.324C7.21322 5.33283 8.37073 4.5465 9.64541 4.01025C10.9201 3.474 12.2867 3.19838 13.6669 3.19926Z" fill="white"/>
<path d="M13.667 24.5008C13.491 24.5008 13.316 24.5008 13.1412 24.4867L12.9834 27.6821C13.2102 27.6937 13.4381 27.6995 13.667 27.6995C15.4613 27.7014 17.2382 27.344 18.8957 26.6478C20.5532 25.9516 22.0587 24.9303 23.3257 23.6427L21.0934 21.3772C20.1195 22.3678 18.9621 23.1537 17.6877 23.6898C16.4132 24.2258 15.0468 24.5015 13.667 24.5008Z" fill="white"/>
<path d="M19.5909 5.05746L22.2481 3.07255C19.8194 1.07944 16.7877 -0.00553265 13.6626 2.12167e-05V3.19871C15.7788 3.19605 17.8459 3.84418 19.5909 5.05746Z" fill="white"/>
<path d="M27.3327 13.8499C27.3344 13.0178 27.2626 12.1871 27.118 11.368L24.1765 13.565C24.1765 13.6596 24.1765 13.7542 24.1765 13.8499C24.1772 15.3381 23.8694 16.8099 23.273 18.1697C22.6766 19.5296 21.8048 20.7473 20.7144 21.7439L22.8361 24.1204C24.2538 22.8233 25.3867 21.2387 26.1613 19.4695C26.936 17.7001 27.335 15.7856 27.3327 13.8499Z" fill="white"/>
<path d="M13.6672 24.5014C12.1987 24.5019 10.7465 24.1898 9.40445 23.5854C8.06251 22.981 6.86075 22.0976 5.87702 20.9927L3.5332 23.1418C4.81292 24.5788 6.37638 25.7272 8.1222 26.5125C9.86801 27.2977 11.7572 27.7023 13.6672 27.7V24.5014Z" fill="white"/>
<path d="M6.61938 5.95574L4.49877 3.57928C3.08064 4.87614 1.94732 6.4606 1.1723 8.22991C0.397285 9.9992 -0.00211296 11.9138 8.40637e-06 13.8497H3.1573C3.15665 12.3616 3.46451 10.8898 4.0609 9.52996C4.6573 8.17013 5.52895 6.95241 6.61938 5.95574Z" fill="white"/>
</svg>
