<svg width="12" height="12" viewBox="0 0 12 12" fill="none" xmlns="http://www.w3.org/2000/svg">
<path d="M0 5.78619C0 5.98595 0.0790178 6.17753 0.21967 6.31878C0.360322 6.46003 0.551088 6.53938 0.75 6.53938H1.5V11.2468C1.5 11.4466 1.57902 11.6381 1.71967 11.7794C1.86032 11.9206 2.05109 12 2.25 12H5.25V6.53938H6.75V12H9.75C9.94891 12 10.1397 11.9206 10.2803 11.7794C10.421 11.6381 10.5 11.4466 10.5 11.2468V6.53938H11.25C11.4489 6.53938 11.6397 6.46003 11.7803 6.31878C11.921 6.17753 12 5.98595 12 5.78619V4.46811C12 4.26836 11.921 4.07678 11.7803 3.93553C11.6397 3.79428 11.4489 3.71492 11.25 3.71492H10.6744C11.0395 3.27944 11.2275 2.72158 11.2007 2.15292C11.174 1.58425 10.9344 1.04668 10.5301 0.647711C10.1257 0.248739 9.58621 0.0177675 9.01957 0.000983154C8.45292 -0.0158012 7.90085 0.182838 7.47375 0.557181L6 1.92987L4.52625 0.557181C4.09915 0.182838 3.54708 -0.0158012 2.98043 0.000983154C2.41379 0.0177675 1.87433 0.248739 1.46994 0.647711C1.06555 1.04668 0.826031 1.58425 0.799274 2.15292C0.772518 2.72158 0.960497 3.27944 1.32562 3.71492H0.75C0.551088 3.71492 0.360322 3.79428 0.21967 3.93553C0.0790178 4.07678 0 4.26836 0 4.46811V5.78619ZM8.50125 1.68132C8.58913 1.59876 8.69581 1.53908 8.81196 1.50748C8.92811 1.47588 9.05019 1.47333 9.16755 1.50005C9.28491 1.52677 9.39396 1.58195 9.48519 1.66076C9.57641 1.73957 9.64703 1.83962 9.69087 1.95216C9.73471 2.0647 9.75043 2.18632 9.73667 2.30637C9.72291 2.42643 9.68008 2.54127 9.61192 2.64087C9.54377 2.74046 9.45236 2.82178 9.34569 2.87771C9.23902 2.93365 9.12033 2.9625 9 2.96174H7.125L8.50125 1.68132ZM2.70375 1.54574C2.80036 1.50418 2.90427 1.48241 3.00937 1.48172C3.19217 1.48166 3.36776 1.55327 3.49875 1.68132L4.875 2.96174H3C2.83038 2.963 2.66555 2.9053 2.53346 2.79843C2.40137 2.69157 2.31015 2.54211 2.27527 2.3754C2.24039 2.2087 2.264 2.03501 2.3421 1.88379C2.4202 1.73258 2.54797 1.61314 2.70375 1.54574Z" fill="#EA525B"/>
</svg>
