<svg width="15" height="15" viewBox="0 0 15 15" fill="none" xmlns="http://www.w3.org/2000/svg">
<path d="M6.60477 0.798476C6.97272 0.0592957 8.02728 0.0592951 8.39522 0.798475L10.1755 4.37492C10.2724 4.56972 10.4303 4.72757 10.6251 4.82453L14.2015 6.60477C14.9407 6.97272 14.9407 8.02728 14.2015 8.39522L10.6251 10.1755C10.4303 10.2724 10.2724 10.4303 10.1755 10.6251L8.39523 14.2015C8.02728 14.9407 6.97272 14.9407 6.60478 14.2015L4.82453 10.6251C4.72757 10.4303 4.56972 10.2724 4.37492 10.1755L0.798476 8.39523C0.0592957 8.02728 0.0592952 6.97272 0.798475 6.60478L4.37492 4.82453C4.56972 4.72757 4.72757 4.56972 4.82453 4.37492L6.60477 0.798476Z" fill="#FFCC31"/>
</svg>
