<svg width="22" height="22" viewBox="0 0 22 22" fill="none" xmlns="http://www.w3.org/2000/svg">
<path fill-rule="evenodd" clip-rule="evenodd" d="M7.75 6C8.44036 6 9 5.44036 9 4.75C9 4.05964 8.44036 3.5 7.75 3.5C7.05964 3.5 6.5 4.05964 6.5 4.75C6.5 5.44036 7.05964 6 7.75 6ZM7.75 7.5C9.00878 7.5 10.07 6.65425 10.3965 5.5H18.25C18.6642 5.5 19 5.16421 19 4.75C19 4.33579 18.6642 4 18.25 4H10.3965C10.07 2.84575 9.00878 2 7.75 2C6.49122 2 5.42998 2.84575 5.10352 4H3.75C3.33579 4 3 4.33579 3 4.75C3 5.16421 3.33579 5.5 3.75 5.5H5.10352C5.42998 6.65425 6.49122 7.5 7.75 7.5ZM3 11.25C3 10.8358 3.33579 10.5 3.75 10.5H11.1035C11.43 9.34575 12.4912 8.5 13.75 8.5C15.0088 8.5 16.07 9.34575 16.3965 10.5H18.25C18.6642 10.5 19 10.8358 19 11.25C19 11.6642 18.6642 12 18.25 12H16.3965C16.07 13.1543 15.0088 14 13.75 14C12.4912 14 11.43 13.1543 11.1035 12H3.75C3.33579 12 3 11.6642 3 11.25ZM15 11.25C15 11.9404 14.4404 12.5 13.75 12.5C13.0596 12.5 12.5 11.9404 12.5 11.25C12.5 10.5596 13.0596 10 13.75 10C14.4404 10 15 10.5596 15 11.25Z" fill="#212121"/>
<path fill-rule="evenodd" clip-rule="evenodd" d="M7.75 19C8.44036 19 9 18.4404 9 17.75C9 17.0596 8.44036 16.5 7.75 16.5C7.05964 16.5 6.5 17.0596 6.5 17.75C6.5 18.4404 7.05964 19 7.75 19ZM7.75 20.5C9.00878 20.5 10.07 19.6543 10.3965 18.5H18.25C18.6642 18.5 19 18.1642 19 17.75C19 17.3358 18.6642 17 18.25 17H10.3965C10.07 15.8457 9.00878 15 7.75 15C6.49122 15 5.42998 15.8457 5.10352 17H3.75C3.33579 17 3 17.3358 3 17.75C3 18.1642 3.33579 18.5 3.75 18.5H5.10352C5.42998 19.6543 6.49122 20.5 7.75 20.5Z" fill="#212121"/>
</svg>
