<svg width="22" height="23" viewBox="0 0 22 23" fill="none" xmlns="http://www.w3.org/2000/svg">
<path fill-rule="evenodd" clip-rule="evenodd" d="M9.28125 2.56262C9.0914 2.56262 8.9375 2.71653 8.9375 2.90637V4.62512H13.0625V2.90637C13.0625 2.71653 12.9086 2.56262 12.7188 2.56262H9.28125ZM15.125 4.62512V2.90637C15.125 1.57744 14.0477 0.500122 12.7188 0.500122H9.28125C7.95231 0.500122 6.875 1.57744 6.875 2.90637V4.62512H1.375C0.805461 4.62512 0.34375 5.08683 0.34375 5.65637C0.34375 6.22591 0.805461 6.68762 1.375 6.68762H20.625C21.1945 6.68762 21.6562 6.22591 21.6562 5.65637C21.6562 5.08683 21.1945 4.62512 20.625 4.62512H15.125ZM2.86371 9.88726C2.80283 9.27843 3.28094 8.75012 3.89281 8.75012C4.41725 8.75012 4.85868 9.14266 4.91996 9.66351L6.13555 19.996C6.16517 20.2478 6.37858 20.4376 6.63212 20.4376H15.3679C15.6214 20.4376 15.8348 20.2478 15.8645 19.996L17.08 9.66351C17.1413 9.14266 17.5827 8.75012 18.1072 8.75012C18.7191 8.75012 19.1972 9.27843 19.1363 9.88726L18.0101 21.1494C17.9334 21.9162 17.2881 22.5001 16.5175 22.5001H5.48248C4.71185 22.5001 4.06661 21.9162 3.98993 21.1494L2.86371 9.88726ZM8.59375 10.1251C8.02421 10.1251 7.5625 10.5868 7.5625 11.1564V15.9689C7.5625 16.5384 8.02421 17.0001 8.59375 17.0001C9.16329 17.0001 9.625 16.5384 9.625 15.9689V11.1564C9.625 10.5868 9.16329 10.1251 8.59375 10.1251ZM13.4062 10.1251C12.8367 10.1251 12.375 10.5868 12.375 11.1564V15.9689C12.375 16.5384 12.8367 17.0001 13.4062 17.0001C13.9758 17.0001 14.4375 16.5384 14.4375 15.9689V11.1564C14.4375 10.5868 13.9758 10.1251 13.4062 10.1251Z" fill="#B7C1C7"/>
</svg>
