<svg width="29" height="29" viewBox="0 0 29 29" fill="none" xmlns="http://www.w3.org/2000/svg">
<path d="M27.3274 1.67291C28.2793 2.62481 28.2793 4.16815 27.3274 5.12006L17.9474 14.5006L27.3274 23.8813C28.2 24.7539 28.2727 26.1234 27.5456 27.0788L27.3274 27.3284C26.3755 28.2803 24.8322 28.2803 23.8803 27.3284L14.4997 17.9484L5.11908 27.3284C4.16718 28.2803 2.62384 28.2803 1.67194 27.3284C0.720032 26.3765 0.720032 24.8332 1.67194 23.8813L11.052 14.5006L1.67194 5.12006C0.799357 4.24748 0.726642 2.87793 1.45379 1.92252L1.67194 1.67291C2.62384 0.721009 4.16718 0.721009 5.11908 1.67291L14.4997 11.0529L23.8803 1.67291C24.8322 0.721009 26.3755 0.721009 27.3274 1.67291Z" fill="white" fill-opacity="0.35"/>
</svg>
