<svg width="56" height="66" viewBox="0 0 56 66" fill="none" xmlns="http://www.w3.org/2000/svg">
<path fill-rule="evenodd" clip-rule="evenodd" d="M0 27.3997C0 12.2472 12.6622 0 27.9784 0C43.3378 0 56 12.2472 56 27.3997C56 35.0352 53.2231 42.124 48.6525 48.1322C43.6102 54.7598 37.3953 60.5342 30.3999 65.0668C28.7989 66.1143 27.3539 66.1934 25.5968 65.0668C18.5615 60.5342 12.3466 54.7598 7.34753 48.1322C2.77359 42.124 0 35.0352 0 27.3997ZM18.7588 28.2526C18.7588 33.3287 22.9009 37.321 27.9797 37.321C33.0619 37.321 37.2439 33.3287 37.2439 28.2526C37.2439 23.216 33.0619 19.0293 27.9797 19.0293C22.9009 19.0293 18.7588 23.216 18.7588 28.2526Z" fill="#2C3030"/>
</svg>
