<svg width="48" height="48" viewBox="0 0 48 48" fill="none" xmlns="http://www.w3.org/2000/svg">
<path d="M24 0.857422C36.7815 0.857422 47.1429 11.2188 47.1429 24.0003C47.1429 36.7817 36.7815 47.1431 24 47.1431C11.2186 47.1431 0.857178 36.7817 0.857178 24.0003C0.857178 11.2188 11.2186 0.857422 24 0.857422ZM24 4.71456C13.3488 4.71456 4.71432 13.3491 4.71432 24.0003C4.71432 34.6515 13.3488 43.286 24 43.286C34.6512 43.286 43.2857 34.6515 43.2857 24.0003C43.2857 13.3491 34.6512 4.71456 24 4.71456ZM20.0556 14.5911C20.7158 14.5911 21.3645 14.7645 21.9367 15.094L31.731 20.7331C33.5354 21.772 34.1559 24.0769 33.117 25.8812C32.7853 26.4574 32.3072 26.9355 31.731 27.2673L21.9367 32.9065C20.1323 33.9453 17.8274 33.3248 16.7886 31.5204C16.4591 30.9483 16.2857 30.2996 16.2857 29.6394V18.361C16.2857 16.279 17.9736 14.5911 20.0556 14.5911ZM20.1429 18.512V29.4885L29.6751 24.0002L20.1429 18.512Z" fill="#6FCF97"/>
</svg>
