<svg width="20" height="20" viewBox="0 0 20 20" fill="none" xmlns="http://www.w3.org/2000/svg">
<path fill-rule="evenodd" clip-rule="evenodd" d="M10 10C12.7614 10 15 7.76142 15 5C15 2.23858 12.7614 0 10 0C7.23858 0 5 2.23858 5 5C5 7.76142 7.23858 10 10 10ZM10 8C11.6569 8 13 6.65685 13 5C13 3.34315 11.6569 2 10 2C8.34315 2 7 3.34315 7 5C7 6.65685 8.34315 8 10 8Z" fill="white"/>
<path fill-rule="evenodd" clip-rule="evenodd" d="M6 11C2.68629 11 0 13.6863 0 17V18C0 19.1046 0.895432 20 2 20H18C19.1046 20 20 19.1046 20 18V17C20 13.6863 17.3137 11 14 11H13.0462L10 14.4814L6.95377 11H6ZM2 17C2 14.7909 3.79086 13 6 13H6.04623L10 17.5186L13.9538 13H14C16.2091 13 18 14.7909 18 17V18H2V17Z" fill="white"/>
</svg>
