<svg width="24" height="24" viewBox="0 0 24 24" fill="none" xmlns="http://www.w3.org/2000/svg">
<path d="M0.899976 0C0.402933 0 0 0.424151 0 0.947369C0 1.47059 0.402933 1.89474 0.899976 1.89474H3.27372C3.41013 1.89474 3.52937 1.99161 3.56393 2.13052L6.4984 13.9249L4.71201 15.8053C3.38911 17.1979 4.32604 19.5789 6.19689 19.5789H21.5994C22.0965 19.5789 22.4994 19.1548 22.4994 18.6316C22.4994 18.1084 22.0965 17.6842 21.5994 17.6842H6.19689C5.92962 17.6842 5.79578 17.3441 5.98476 17.1451L7.87258 15.1579H20.431C20.9761 15.1579 21.4528 14.7711 21.5915 14.2162L23.9598 4.74252C24.1601 3.94157 23.5862 3.15789 22.7994 3.15789H5.6802L5.30515 1.65047C5.06323 0.678124 4.22858 0 3.27372 0H0.899976Z" fill="white"/>
<path d="M8.39977 22.1053C8.39977 23.1517 7.59391 24 6.59982 24C5.60574 24 4.79987 23.1517 4.79987 22.1053C4.79987 21.0588 5.60574 20.2105 6.59982 20.2105C7.59391 20.2105 8.39977 21.0588 8.39977 22.1053Z" fill="white"/>
<path d="M19.7995 24C20.7936 24 21.5994 23.1517 21.5994 22.1053C21.5994 21.0588 20.7936 20.2105 19.7995 20.2105C18.8054 20.2105 17.9995 21.0588 17.9995 22.1053C17.9995 23.1517 18.8054 24 19.7995 24Z" fill="white"/>
</svg>
