<svg width="18" height="23" viewBox="0 0 18 23" fill="none" xmlns="http://www.w3.org/2000/svg">
<path d="M9 0C14.0981 0 18 3.99439 18 9.27273C18 12.4749 15.705 16.4146 11.1795 21.1991C11.1413 21.2395 11.1019 21.2788 11.0615 21.317C9.85785 22.4555 7.95908 22.4027 6.82053 21.1991C2.29495 16.4146 0 12.4749 0 9.27273C0 3.99439 3.90186 0 9 0ZM9 2C5.01706 2 2 5.08861 2 9.27273C2 11.8274 4.06973 15.3804 8.27351 19.8247C8.65303 20.2259 9.28595 20.2435 9.68718 19.864C9.70064 19.8513 9.71375 19.8382 9.72649 19.8247C13.9303 15.3804 16 11.8274 16 9.27273C16 5.08861 12.9829 2 9 2ZM9 6C7.41687 6 6 7.41687 6 9C6 10.5831 7.41687 12 9 12C10.5831 12 12 10.5831 12 9C12 7.41687 10.5831 6 9 6ZM9 4C11.6877 4 14 6.3123 14 9C14 11.6877 11.6877 14 9 14C6.3123 14 4 11.6877 4 9C4 6.3123 6.3123 4 9 4Z" fill="#D7D9DB"/>
</svg>
