<svg width="216" height="36" viewBox="0 0 216 36" fill="none" xmlns="http://www.w3.org/2000/svg">
<path fill-rule="evenodd" clip-rule="evenodd" d="M36.2418 3.14152V5.78304H51.9298H67.6179V8.9056V12.0282L54.6004 12.1249L41.5815 12.2216L39.9825 13.2208C38.9937 13.8393 38.0063 14.8361 37.3947 15.8353C36.4073 17.447 36.4045 17.4628 36.2965 23.1761L36.1885 28.9018L54.1095 28.8167L72.0304 28.7311L72.1258 26.1722L72.2212 23.6132H56.6832H41.1439V20.494V17.3746L54.1361 17.2745C66.8282 17.1768 67.1592 17.1576 68.4819 16.4428C73.5284 13.7164 74.4345 6.5249 70.2141 2.69212C69.207 1.77722 68.0822 1.10718 67.1564 0.872121C66.1788 0.623481 60.8097 0.5 50.9677 0.5H36.2418V3.14152ZM3.70856 7.3943C2.11241 8.12664 0.761709 9.67364 0.273606 11.3286C0.0533979 12.0797 -0.0453446 14.6763 0.0197359 18.0554L0.126328 23.5591L1.10675 24.9601C1.64675 25.7307 2.67625 26.6715 3.39578 27.0509C4.63708 27.7055 5.19813 27.7405 14.5072 27.7405C25.8051 27.7405 26.0449 27.6877 27.9889 24.791L29.0521 23.2084V17.4541C29.0521 11.2348 28.8193 10.2026 27.0366 8.52298C25.2945 6.88162 24.5091 6.77298 14.4356 6.78082C6.01724 6.7874 4.89095 6.8518 3.70856 7.3943ZM80.7602 9.49766L80.8542 12.2216L92.7019 12.3082L104.55 12.3951V13.3813V14.368H95.12C88.9402 14.368 85.3088 14.4973 84.5809 14.7437C81.6985 15.7184 80.0379 18.0561 80.0379 21.1368C80.0379 24.2174 81.6985 26.5551 84.5809 27.5299C85.3313 27.7842 89.6457 27.9057 97.914 27.9057H110.138L110.041 19.5133L109.943 11.1212L108.962 9.7155C108.424 8.94256 107.334 7.96424 106.541 7.542C105.108 6.77718 105.042 6.77354 92.8829 6.77354H80.6648L80.7602 9.49766ZM119.553 7.54088C117.97 8.3855 116.825 9.852 116.322 11.6874C115.878 13.2978 115.902 21.4703 116.355 23.117C116.829 24.8396 119.024 27.0574 120.729 27.5355C121.535 27.7616 125.382 27.9026 130.778 27.9037L139.521 27.9057V31.7028V35.5H142.463H145.404V21.1368V6.77354H133.199C121.058 6.77354 120.987 6.7776 119.553 7.54088ZM151.621 14.6155C151.628 21.4861 151.702 22.6217 152.224 23.7813C152.983 25.4689 154.838 27.1192 156.481 27.5659C157.296 27.7874 161.961 27.8826 169.313 27.8274L180.865 27.7405L180.952 17.257L181.037 6.77354H178.092H175.147V14.533V22.2924H166.157H157.169V14.533V6.77354H154.392H151.614L151.621 14.6155ZM186.912 9.58012V12.3868H198.678H210.444V13.3638V14.3405L200.557 14.437C189.306 14.5462 188.959 14.6201 187.076 17.3148C186.202 18.5649 186.095 18.9803 186.095 21.1368C186.095 23.2933 186.202 23.7086 187.076 24.9587C187.614 25.7301 188.644 26.6715 189.363 27.0509C190.613 27.7105 191.222 27.7446 203.335 27.8343L216 27.9278L215.993 19.9097C215.985 11.1995 215.812 10.2089 213.996 8.52298C212.177 6.83262 211.665 6.77354 198.852 6.77354H186.912V9.58012ZM23.495 17.3396V22.2924H14.5072H5.51931V17.3396V12.3868H14.5072H23.495V17.3396ZM139.521 17.3449V22.303L130.616 22.2151L121.709 22.1273L121.618 17.257L121.528 12.3868H130.524H139.521V17.3449ZM104.55 21.1368V22.2924H95.0723H85.5936V21.1368V19.9811H95.0723H104.55V21.1368ZM210.444 21.1368V22.2924H200.966H191.488V21.1368V19.9811H200.966H210.444V21.1368Z" fill="white"/>
</svg>
