<svg width="22" height="22" viewBox="0 0 22 22" fill="none" xmlns="http://www.w3.org/2000/svg">
<path d="M21.5722 17.4935L19.1333 15.8674L16.9652 14.4223C16.5467 14.1439 15.9844 14.2352 15.6755 14.6317L14.3339 16.3564C14.0457 16.7306 13.5273 16.8382 13.114 16.6094C12.2037 16.103 11.1272 15.6262 8.75202 13.248C6.37682 10.8697 5.89699 9.79629 5.39061 8.88596C5.16181 8.47269 5.26935 7.95428 5.64361 7.66614L7.36831 6.32454C7.76478 6.01568 7.85609 5.45336 7.5777 5.03489L6.17693 2.93353L4.50645 0.427793C4.22213 0.00128994 3.65297 -0.126755 3.21341 0.136855L1.28688 1.29261C0.766233 1.59936 0.383514 2.0947 0.218 2.67593C-0.308834 4.59674 -0.415052 8.83397 6.37566 15.6247C13.1664 22.4154 17.4032 22.3088 19.324 21.7819C19.9053 21.6165 20.4006 21.2337 20.7074 20.7131L21.8631 18.7866C22.1268 18.347 21.9987 17.7779 21.5722 17.4935Z" fill="white"/>
</svg>
