<svg width="32" height="32" viewBox="0 0 32 32" fill="none" xmlns="http://www.w3.org/2000/svg">
<path d="M15.9998 19.2008C16.8485 19.2008 17.6624 18.8636 18.2625 18.2635C18.8627 17.6634 19.1998 16.8495 19.1998 16.0008C19.1998 15.1521 18.8627 14.3382 18.2625 13.738C17.6624 13.1379 16.8485 12.8008 15.9998 12.8008C15.1511 12.8008 14.3372 13.1379 13.7371 13.738C13.1369 14.3382 12.7998 15.1521 12.7998 16.0008C12.7998 16.8495 13.1369 17.6634 13.7371 18.2635C14.3372 18.8636 15.1511 19.2008 15.9998 19.2008Z" fill="#25C168"/>
<path fill-rule="evenodd" clip-rule="evenodd" d="M0.73291 16.0008C2.77131 9.50958 8.83531 4.80078 16.0001 4.80078C23.1649 4.80078 29.2289 9.50958 31.2673 16.0008C29.2289 22.492 23.1649 27.2008 16.0001 27.2008C8.83531 27.2008 2.77131 22.492 0.73291 16.0008ZM22.4001 16.0008C22.4001 17.6982 21.7258 19.326 20.5256 20.5263C19.3254 21.7265 17.6975 22.4008 16.0001 22.4008C14.3027 22.4008 12.6749 21.7265 11.4746 20.5263C10.2744 19.326 9.60011 17.6982 9.60011 16.0008C9.60011 14.3034 10.2744 12.6755 11.4746 11.4753C12.6749 10.2751 14.3027 9.60078 16.0001 9.60078C17.6975 9.60078 19.3254 10.2751 20.5256 11.4753C21.7258 12.6755 22.4001 14.3034 22.4001 16.0008V16.0008Z" fill="#25C168"/>
</svg>
