<svg width="49" height="36" viewBox="0 0 49 36" fill="none" xmlns="http://www.w3.org/2000/svg">
<path d="M47.2798 11.9062C45.1235 13.5938 42.4048 15.6562 32.8423 22.5938C30.9673 24 27.4985 27.0938 24.2173 27.0938C20.8423 27.0938 17.4673 24 15.4985 22.5938C5.93604 15.6562 3.21729 13.5938 1.06104 11.9062C0.686035 11.625 0.217285 11.9062 0.217285 12.375V31.5C0.217285 34.0312 2.18604 36 4.71729 36H43.7173C46.1548 36 48.2173 34.0312 48.2173 31.5V12.375C48.2173 11.9062 47.6548 11.625 47.2798 11.9062ZM24.2173 24C26.3735 24.0938 29.4673 21.2812 31.061 20.1562C43.5298 11.1562 44.4673 10.3125 47.2798 8.0625C47.8423 7.6875 48.2173 7.03125 48.2173 6.28125V4.5C48.2173 2.0625 46.1548 0 43.7173 0H4.71729C2.18604 0 0.217285 2.0625 0.217285 4.5V6.28125C0.217285 7.03125 0.498535 7.6875 1.06104 8.0625C3.87354 10.3125 4.81104 11.1562 17.2798 20.1562C18.8735 21.2812 21.9673 24.0938 24.2173 24Z" fill="#474A4E"/>
</svg>
