<svg width="49" height="49" viewBox="0 0 49 49" fill="none" xmlns="http://www.w3.org/2000/svg">
<path d="M46.4365 3.34375L36.6865 1.09375C35.6553 0.8125 34.5303 1.375 34.0615 2.40625L29.5615 12.9062C29.1865 13.8438 29.4678 14.875 30.2178 15.5312L35.9365 20.2188C32.5615 27.3438 26.6553 33.3438 19.3428 36.8125L14.6553 31.0938C13.999 30.3438 12.9678 30.0625 12.0303 30.4375L1.53027 34.9375C0.499023 35.4062 0.0302734 36.5312 0.217773 37.5625L2.46777 47.3125C2.74902 48.3438 3.59277 49 4.71777 49C28.7178 49 48.2178 29.5938 48.2178 5.5C48.2178 4.46875 47.4678 3.625 46.4365 3.34375Z" fill="#474A4E"/>
</svg>
