<svg width="29" height="29" viewBox="0 0 29 29" fill="none" xmlns="http://www.w3.org/2000/svg">
<path d="M24.7504 4.21149C22.1775 1.56284 18.6207 0.125 14.9883 0.125C7.26936 0.125 1.06396 6.40608 1.13963 14.0493C1.13963 16.4709 1.82071 18.8169 2.95585 20.9358L0.988281 28.125L8.32882 26.2331C10.3721 27.3682 12.6423 27.898 14.9126 27.898C22.5558 27.898 28.7613 21.6169 28.7613 13.9736C28.7613 10.2655 27.3234 6.78446 24.7504 4.21149ZM14.9883 25.552C12.945 25.552 10.9018 25.0223 9.16125 23.9628L8.7072 23.7358L4.31801 24.8709L5.45315 20.5574L5.15044 20.1034C1.82071 14.7304 3.4099 7.61689 8.85855 4.28716C14.3072 0.957432 21.345 2.54662 24.6748 7.99527C28.0045 13.4439 26.4153 20.4818 20.9667 23.8115C19.2261 24.9466 17.1072 25.552 14.9883 25.552ZM21.6477 17.152L20.8153 16.7736C20.8153 16.7736 19.6045 16.2439 18.8477 15.8655C18.7721 15.8655 18.6964 15.7899 18.6207 15.7899C18.3937 15.7899 18.2423 15.8655 18.091 15.9412C18.091 15.9412 18.0153 16.0169 16.9558 17.2277C16.8802 17.3791 16.7288 17.4547 16.5775 17.4547H16.5018C16.4261 17.4547 16.2748 17.3791 16.1991 17.3034L15.8207 17.152C14.9883 16.7736 14.2315 16.3196 13.6261 15.7142C13.4748 15.5628 13.2477 15.4115 13.0964 15.2601C12.5667 14.7304 12.0369 14.125 11.6586 13.4439L11.5829 13.2926C11.5072 13.2169 11.5072 13.1412 11.4315 12.9899C11.4315 12.8385 11.4315 12.6872 11.5072 12.6115C11.5072 12.6115 11.8099 12.2331 12.0369 12.0061C12.1883 11.8547 12.264 11.6277 12.4153 11.4764C12.5667 11.2493 12.6423 10.9466 12.5667 10.7196C12.491 10.3412 11.5829 8.29797 11.3558 7.84392C11.2045 7.61689 11.0531 7.54122 10.8261 7.46554H10.5991C10.4477 7.46554 10.2207 7.46554 9.99369 7.46554C9.84234 7.46554 9.69098 7.54122 9.53963 7.54122L9.46396 7.61689C9.31261 7.69257 9.16125 7.84392 9.0099 7.9196C8.85855 8.07095 8.78288 8.2223 8.63153 8.37365C8.1018 9.05473 7.79909 9.88716 7.79909 10.7196C7.79909 11.325 7.95044 11.9304 8.17747 12.4601L8.25315 12.6872C8.93423 14.125 9.84234 15.4115 11.0531 16.5466L11.3558 16.8493C11.5829 17.0764 11.8099 17.2277 11.9613 17.4547C13.5504 18.8169 15.3667 19.8007 17.4099 20.3304C17.6369 20.4061 17.9396 20.4061 18.1667 20.4818C18.3937 20.4818 18.6964 20.4818 18.9234 20.4818C19.3018 20.4818 19.7558 20.3304 20.0586 20.1791C20.2856 20.0277 20.4369 20.0277 20.5883 19.8764L20.7396 19.725C20.891 19.5736 21.0423 19.498 21.1937 19.3466C21.345 19.1953 21.4964 19.0439 21.5721 18.8926C21.7234 18.5899 21.7991 18.2115 21.8748 17.8331C21.8748 17.6818 21.8748 17.4547 21.8748 17.3034C21.8748 17.3034 21.7991 17.2277 21.6477 17.152Z" fill="#3EB350"/>
</svg>
