<svg width="28" height="28" viewBox="0 0 28 28" fill="none" xmlns="http://www.w3.org/2000/svg">
<path fill-rule="evenodd" clip-rule="evenodd" d="M4.8335 9.3335C4.8335 8.78121 5.28121 8.3335 5.8335 8.3335H22.1668C22.7191 8.3335 23.1668 8.78121 23.1668 9.3335V19.7415C23.1668 20.5464 23.1669 21.2108 23.1226 21.752C23.0767 22.3141 22.9781 22.8308 22.7309 23.3161C22.3474 24.0688 21.7354 24.6807 20.9828 25.0642C20.4975 25.3115 19.9808 25.41 19.4187 25.456C18.8775 25.5002 18.2131 25.5002 17.4082 25.5002H10.5922C9.78721 25.5002 9.12286 25.5002 8.58167 25.456C8.01957 25.41 7.50287 25.3115 7.01753 25.0642C6.26489 24.6807 5.65296 24.0688 5.26947 23.3161C5.02218 22.8308 4.92362 22.3141 4.87769 21.752C4.83347 21.2108 4.83348 20.5464 4.8335 19.7415L4.8335 9.3335ZM6.8335 10.3335V19.7002C6.8335 20.5567 6.83427 21.139 6.87105 21.5891C6.90687 22.0275 6.97179 22.2517 7.05148 22.4081C7.24323 22.7845 7.54919 23.0904 7.92552 23.2822C8.08192 23.3619 8.30612 23.4268 8.74453 23.4626C9.19462 23.4994 9.77692 23.5002 10.6335 23.5002H17.3668C18.2234 23.5002 18.8057 23.4994 19.2558 23.4626C19.6942 23.4268 19.9184 23.3619 20.0748 23.2822C20.4511 23.0904 20.7571 22.7845 20.9488 22.4081C21.0285 22.2517 21.0935 22.0275 21.1293 21.5891C21.1661 21.139 21.1668 20.5567 21.1668 19.7002V10.3335H6.8335Z" fill="white"/>
<path fill-rule="evenodd" clip-rule="evenodd" d="M11.4132 2.49972C11.439 2.49982 11.4643 2.49991 11.4889 2.49991H16.5112C16.5357 2.49991 16.561 2.49982 16.5868 2.49972C16.8629 2.49867 17.2098 2.49736 17.5341 2.60922C17.8144 2.70589 18.0696 2.86365 18.2814 3.07108C18.5265 3.31114 18.6805 3.62202 18.803 3.86937C18.8145 3.89256 18.8257 3.9152 18.8367 3.93716L19.1189 4.50158C19.2045 4.67294 19.249 4.76085 19.2849 4.82263C19.2859 4.82448 19.287 4.82626 19.288 4.82795C19.2899 4.82809 19.292 4.82822 19.2941 4.82836C19.3654 4.8328 19.4639 4.83325 19.6555 4.83325L22.9319 4.83325C23.1843 4.83322 23.4301 4.83319 23.6382 4.85019C23.8668 4.86887 24.1366 4.91294 24.408 5.05124C24.7843 5.24298 25.0903 5.54894 25.282 5.92527C25.4203 6.19669 25.4644 6.46643 25.4831 6.69502C25.5001 6.90319 25.5 7.149 25.5 7.4014V7.76509C25.5 8.01749 25.5001 8.26331 25.4831 8.47148C25.4644 8.70007 25.4203 8.96981 25.282 9.24123C25.0903 9.61755 24.7843 9.92351 24.408 10.1153C24.1366 10.2536 23.8668 10.2976 23.6382 10.3163C23.4301 10.3333 23.1843 10.3333 22.9319 10.3333L5.10001 10.3332C5.08937 10.3332 5.07874 10.3333 5.06812 10.3333C4.81574 10.3333 4.56994 10.3333 4.36178 10.3163C4.13318 10.2976 3.86345 10.2536 3.59202 10.1153C3.2157 9.92351 2.90974 9.61755 2.71799 9.24123C2.57969 8.96981 2.53563 8.70007 2.51695 8.47148C2.49994 8.26332 2.49997 8.01753 2.5 7.76515C2.5 7.75452 2.50001 7.74389 2.50001 7.73325V7.43325C2.50001 7.42261 2.5 7.41197 2.5 7.40135C2.49997 7.14897 2.49994 6.90318 2.51695 6.69502C2.53563 6.46643 2.57969 6.19669 2.71799 5.92527C2.90974 5.54894 3.2157 5.24298 3.59202 5.05124C3.86345 4.91294 4.13318 4.86887 4.36178 4.85019C4.56993 4.83319 4.81572 4.83322 5.06811 4.83325C5.07873 4.83325 5.08936 4.83325 5.10001 4.83325H8.34448C8.53607 4.83325 8.63458 4.8328 8.70587 4.82836C8.70802 4.82822 8.71007 4.82809 8.71203 4.82795C8.71303 4.82626 8.71407 4.82449 8.71515 4.82263C8.75101 4.76085 8.79546 4.67293 8.88114 4.50158L9.16335 3.93716C9.17433 3.9152 9.18554 3.89256 9.19702 3.86937C9.31953 3.62202 9.4735 3.31114 9.7186 3.07108C9.93039 2.86365 10.1856 2.70589 10.4659 2.60922C10.7902 2.49736 11.1371 2.49867 11.4132 2.49972ZM11.1213 4.50521C11.1203 4.5069 11.1193 4.50868 11.1182 4.51054C11.0823 4.57231 11.0379 4.66023 10.9522 4.83159L10.67 5.396C10.659 5.41797 10.6478 5.4406 10.6363 5.46379C10.5138 5.71114 10.3598 6.02203 10.1147 6.26208C9.90295 6.46952 9.6477 6.62727 9.36745 6.72394C9.04312 6.83581 8.6962 6.83449 8.42017 6.83344C8.3943 6.83334 8.36904 6.83325 8.34448 6.83325H5.10001C4.80348 6.83325 4.64122 6.83403 4.52464 6.84355C4.52 6.84393 4.5156 6.84431 4.51145 6.8447C4.51107 6.84885 4.51069 6.85324 4.51031 6.85788C4.50078 6.97447 4.50001 7.13672 4.50001 7.43325V7.73325C4.50001 8.02978 4.50078 8.19203 4.51031 8.30861C4.51069 8.31326 4.51107 8.31765 4.51145 8.3218C4.5156 8.32218 4.52 8.32257 4.52464 8.32295C4.64122 8.33247 4.80348 8.33325 5.10001 8.33325H22.9C23.1965 8.33325 23.3588 8.33247 23.4754 8.32295C23.48 8.32257 23.4844 8.32217 23.4886 8.32179C23.4889 8.31764 23.4893 8.31325 23.4897 8.30861C23.4992 8.19203 23.5 8.02978 23.5 7.73325V7.43325C23.5 7.13672 23.4992 6.97447 23.4897 6.85788C23.4893 6.85324 23.4889 6.84884 23.4885 6.8447C23.4844 6.84431 23.48 6.84393 23.4754 6.84355C23.3588 6.83403 23.1965 6.83325 22.9 6.83325H19.6555C19.631 6.83325 19.6057 6.83334 19.5798 6.83344C19.3038 6.83449 18.9569 6.83581 18.6326 6.72394C18.3523 6.62727 18.0971 6.46952 17.8853 6.26208C17.6402 6.02203 17.4862 5.71115 17.3637 5.4638C17.3522 5.4406 17.341 5.41797 17.33 5.396L17.0478 4.83159C16.9621 4.66023 16.9177 4.57231 16.8818 4.51054C16.8807 4.50868 16.8797 4.5069 16.8787 4.50521C16.8767 4.50508 16.8747 4.50494 16.8725 4.50481C16.8012 4.50036 16.7027 4.49991 16.5112 4.49991H11.4889C11.2973 4.49991 11.1988 4.50036 11.1275 4.50481C11.1253 4.50494 11.1233 4.50508 11.1213 4.50521Z" fill="white"/>
</svg>
