<svg width="327" height="407" viewBox="0 0 327 407" fill="none" xmlns="http://www.w3.org/2000/svg">
<path d="M156.966 369.102C156.366 373.302 152.466 376.302 148.166 375.702C143.966 375.102 140.966 371.202 141.566 366.902C142.166 362.602 146.066 359.702 150.366 360.302C154.566 361.002 157.566 364.902 156.966 369.102ZM156.266 369.102C156.766 365.202 154.066 361.602 150.166 361.102C146.266 360.602 142.666 363.302 142.166 367.202C141.666 371.102 144.366 374.702 148.266 375.202C152.166 375.702 155.766 372.902 156.266 369.102Z" fill="white"/>
<path d="M197.966 400.102C197.366 404.302 193.466 407.302 189.166 406.702C184.966 406.102 181.966 402.202 182.566 397.902C183.166 393.602 187.066 390.702 191.366 391.302C195.566 392.002 198.566 395.902 197.966 400.102ZM197.266 400.102C197.766 396.202 195.066 392.602 191.166 392.102C187.266 391.602 183.666 394.302 183.166 398.202C182.666 402.102 185.366 405.702 189.266 406.202C193.166 406.702 196.766 403.902 197.266 400.102Z" fill="white"/>
<path d="M248.966 339.102C248.366 343.302 244.466 346.302 240.166 345.702C235.966 345.102 232.966 341.202 233.566 336.902C234.166 332.602 238.066 329.702 242.366 330.302C246.566 331.002 249.566 334.902 248.966 339.102ZM248.266 339.102C248.766 335.202 246.066 331.602 242.166 331.102C238.266 330.602 234.666 333.302 234.166 337.202C233.666 341.102 236.366 344.702 240.266 345.202C244.166 345.702 247.766 342.902 248.266 339.102Z" fill="white"/>
<path d="M294.966 280.102C294.366 284.302 290.466 287.302 286.166 286.702C281.966 286.102 278.966 282.202 279.566 277.902C280.166 273.602 284.066 270.702 288.366 271.302C292.566 272.002 295.566 275.902 294.966 280.102ZM294.266 280.102C294.766 276.202 292.066 272.602 288.166 272.102C284.266 271.602 280.666 274.302 280.166 278.202C279.666 282.102 282.366 285.702 286.266 286.202C290.166 286.702 293.766 283.902 294.266 280.102Z" fill="white"/>
<path d="M82.8806 290.529C82.9728 294.77 79.6136 298.366 75.2733 298.474C71.0317 298.566 67.4364 295.207 67.3279 290.867C67.2194 286.527 70.5949 283.03 74.9352 282.922C79.1931 282.928 82.7884 286.287 82.8806 290.529ZM82.19 290.643C82.048 286.713 78.7976 283.601 74.8682 283.743C70.9389 283.885 67.8268 287.136 67.9688 291.065C68.1108 294.994 71.3612 298.107 75.2905 297.965C79.2199 297.823 82.3157 294.474 82.19 290.643Z" fill="white"/>
<path d="M150.766 362.903C151.066 362.603 149.466 361.203 147.266 361.903C145.166 362.503 144.466 364.503 144.866 364.603C145.266 364.803 146.266 363.703 147.666 363.403C149.166 362.903 150.466 363.203 150.766 362.903Z" fill="white"/>
<path d="M191.766 393.903C192.066 393.603 190.466 392.203 188.266 392.903C186.166 393.503 185.466 395.503 185.866 395.603C186.266 395.803 187.266 394.703 188.666 394.403C190.166 393.903 191.466 394.203 191.766 393.903Z" fill="white"/>
<path d="M242.766 332.903C243.066 332.603 241.466 331.203 239.266 331.903C237.166 332.503 236.466 334.503 236.866 334.603C237.266 334.803 238.266 333.703 239.666 333.403C241.166 332.903 242.466 333.203 242.766 332.903Z" fill="white"/>
<path d="M288.766 273.903C289.066 273.603 287.466 272.203 285.266 272.903C283.166 273.503 282.466 275.503 282.866 275.603C283.266 275.803 284.266 274.703 285.666 274.403C287.166 273.903 288.466 274.203 288.766 273.903Z" fill="white"/>
<path d="M75.7534 285.422C76.0005 285.077 74.1938 283.956 72.1372 285.005C70.163 285.939 69.7982 288.027 70.2091 288.06C70.6364 288.192 71.4438 286.944 72.7763 286.42C74.1748 285.682 75.5063 285.767 75.7534 285.422Z" fill="white"/>
<path d="M168.066 340.602C167.866 345.402 163.666 349.202 158.866 348.902C154.066 348.702 150.266 344.502 150.566 339.702C150.766 334.902 154.966 331.102 159.766 331.402C164.566 331.702 168.266 335.802 168.066 340.602ZM167.266 340.602C167.466 336.202 164.066 332.402 159.566 332.102C155.066 331.802 151.366 335.302 151.066 339.802C150.866 344.202 154.266 348.002 158.766 348.302C163.266 348.502 167.066 345.002 167.266 340.602Z" fill="white"/>
<path d="M165.266 336.402C165.566 337.302 165.666 338.302 165.666 339.302C165.466 343.702 161.666 347.102 157.366 346.902C157.166 346.902 156.866 346.902 156.666 346.802C157.366 347.102 158.166 347.302 158.966 347.302C162.866 347.502 166.166 344.502 166.366 340.602C166.366 339.002 165.966 337.602 165.266 336.402Z" fill="white"/>
<path d="M160.366 334.203C160.666 333.803 158.666 332.503 156.366 333.403C153.966 334.303 153.466 336.603 153.966 336.703C154.466 336.903 155.466 335.603 156.966 335.003C158.566 334.303 160.166 334.603 160.366 334.203Z" fill="white"/>
<path d="M209.066 371.602C208.866 376.402 204.666 380.202 199.866 379.902C195.066 379.702 191.266 375.502 191.566 370.702C191.766 365.902 195.966 362.102 200.766 362.402C205.566 362.702 209.266 366.802 209.066 371.602ZM208.266 371.602C208.466 367.202 205.066 363.402 200.566 363.102C196.066 362.802 192.366 366.302 192.066 370.802C191.866 375.202 195.266 379.002 199.766 379.302C204.266 379.502 208.066 376.002 208.266 371.602Z" fill="white"/>
<path d="M206.266 367.402C206.566 368.302 206.666 369.302 206.666 370.302C206.466 374.702 202.666 378.102 198.366 377.902C198.166 377.902 197.866 377.902 197.666 377.802C198.366 378.102 199.166 378.302 199.966 378.302C203.866 378.502 207.166 375.502 207.366 371.602C207.366 370.002 206.966 368.602 206.266 367.402Z" fill="white"/>
<path d="M201.366 365.203C201.666 364.803 199.666 363.503 197.366 364.403C194.966 365.303 194.466 367.603 194.966 367.703C195.466 367.903 196.466 366.603 197.966 366.003C199.566 365.303 201.166 365.603 201.366 365.203Z" fill="white"/>
<path d="M260.066 310.602C259.866 315.402 255.666 319.202 250.866 318.902C246.066 318.702 242.266 314.502 242.566 309.702C242.766 304.902 246.966 301.102 251.766 301.402C256.566 301.702 260.266 305.802 260.066 310.602ZM259.266 310.602C259.466 306.202 256.066 302.402 251.566 302.102C247.066 301.802 243.366 305.302 243.066 309.802C242.866 314.202 246.266 318.002 250.766 318.302C255.266 318.502 259.066 315.002 259.266 310.602Z" fill="white"/>
<path d="M257.266 306.402C257.566 307.302 257.666 308.302 257.666 309.302C257.466 313.702 253.666 317.102 249.366 316.902C249.166 316.902 248.866 316.902 248.666 316.802C249.366 317.102 250.166 317.302 250.966 317.302C254.866 317.502 258.166 314.502 258.366 310.602C258.366 309.002 257.966 307.602 257.266 306.402Z" fill="white"/>
<path d="M252.366 304.203C252.666 303.803 250.666 302.503 248.366 303.403C245.966 304.303 245.466 306.603 245.966 306.703C246.466 306.903 247.466 305.603 248.966 305.003C250.566 304.303 252.166 304.603 252.366 304.203Z" fill="white"/>
<path d="M306.066 251.602C305.866 256.402 301.666 260.202 296.866 259.902C292.066 259.702 288.266 255.502 288.566 250.702C288.766 245.902 292.966 242.102 297.766 242.402C302.566 242.702 306.266 246.802 306.066 251.602ZM305.266 251.602C305.466 247.202 302.066 243.402 297.566 243.102C293.066 242.802 289.366 246.302 289.066 250.802C288.866 255.202 292.266 259.002 296.766 259.302C301.266 259.502 305.066 256.002 305.266 251.602Z" fill="white"/>
<path d="M303.266 247.402C303.566 248.302 303.666 249.302 303.666 250.302C303.466 254.702 299.666 258.102 295.366 257.902C295.166 257.902 294.866 257.902 294.666 257.802C295.366 258.102 296.166 258.302 296.966 258.302C300.866 258.502 304.166 255.502 304.366 251.602C304.366 250.002 303.966 248.602 303.266 247.402Z" fill="white"/>
<path d="M298.366 245.203C298.666 244.803 296.666 243.503 294.366 244.403C291.966 245.303 291.466 247.603 291.966 247.703C292.466 247.903 293.466 246.603 294.966 246.003C296.566 245.303 298.166 245.603 298.366 245.203Z" fill="white"/>
<path d="M89.1898 260.601C89.7744 265.37 86.2496 269.803 81.4648 270.289C76.6963 270.874 72.2629 267.349 71.777 262.564C71.1924 257.796 74.7172 253.362 79.502 252.876C84.2867 252.39 88.6052 255.833 89.1898 260.601ZM88.4005 260.732C87.881 256.358 83.9074 253.162 79.4187 253.6C74.9299 254.037 71.8495 258.093 72.2866 262.581C72.806 266.955 76.7796 270.151 81.2684 269.713C85.7409 269.178 88.9199 265.105 88.4005 260.732Z" fill="white"/>
<path d="M85.7429 256.913C86.1855 257.753 86.4471 258.723 86.61 259.71C87.1295 264.083 83.9341 268.057 79.6589 268.56C79.4616 268.593 79.1656 268.642 78.952 268.576C79.6915 268.757 80.5134 268.824 81.3027 268.694C85.1832 268.256 87.9504 264.759 87.5124 260.878C87.2518 259.3 86.6291 257.983 85.7429 256.913Z" fill="white"/>
<path d="M80.5499 255.542C80.7807 255.098 78.5956 254.141 76.473 255.404C74.2517 256.683 74.133 259.034 74.6426 259.051C75.1685 259.167 75.9434 257.721 77.3256 256.885C78.7902 255.933 80.4177 255.969 80.5499 255.542Z" fill="white"/>
<path d="M150.466 309.902C150.466 313.302 147.666 316.102 144.266 316.102C140.866 316.102 138.066 313.302 138.066 309.902C138.066 306.502 140.866 303.702 144.266 303.702C147.666 303.702 150.466 306.502 150.466 309.902ZM149.966 309.902C149.966 306.702 147.366 304.202 144.266 304.202C141.066 304.202 138.566 306.802 138.566 309.902C138.566 313.102 141.166 315.602 144.266 315.602C147.366 315.602 149.966 313.102 149.966 309.902Z" fill="white"/>
<path d="M148.366 307.002C148.566 307.602 148.766 308.302 148.766 309.002C148.766 312.102 146.266 314.602 143.166 314.602C142.966 314.602 142.866 314.602 142.666 314.602C143.166 314.802 143.766 314.902 144.366 314.902C147.166 314.902 149.366 312.702 149.366 309.902C149.266 308.802 148.966 307.802 148.366 307.002Z" fill="white"/>
<path d="M144.866 305.602C145.066 305.302 143.666 304.402 141.966 305.202C140.366 305.902 140.066 307.602 140.366 307.602C140.666 307.702 141.366 306.802 142.466 306.302C143.566 305.802 144.766 305.902 144.866 305.602Z" fill="white"/>
<path d="M191.466 340.902C191.466 344.302 188.666 347.102 185.266 347.102C181.866 347.102 179.066 344.302 179.066 340.902C179.066 337.502 181.866 334.702 185.266 334.702C188.666 334.702 191.466 337.502 191.466 340.902ZM190.966 340.902C190.966 337.702 188.366 335.202 185.266 335.202C182.066 335.202 179.566 337.802 179.566 340.902C179.566 344.102 182.166 346.602 185.266 346.602C188.366 346.602 190.966 344.102 190.966 340.902Z" fill="white"/>
<path d="M189.366 338.002C189.566 338.602 189.766 339.302 189.766 340.002C189.766 343.102 187.266 345.602 184.166 345.602C183.966 345.602 183.866 345.602 183.666 345.602C184.166 345.802 184.766 345.902 185.366 345.902C188.166 345.902 190.366 343.702 190.366 340.902C190.266 339.802 189.966 338.802 189.366 338.002Z" fill="white"/>
<path d="M185.866 336.602C186.066 336.302 184.666 335.402 182.966 336.202C181.366 336.902 181.066 338.602 181.366 338.602C181.666 338.702 182.366 337.802 183.466 337.302C184.566 336.802 185.766 336.902 185.866 336.602Z" fill="white"/>
<path d="M242.466 279.902C242.466 283.302 239.666 286.102 236.266 286.102C232.866 286.102 230.066 283.302 230.066 279.902C230.066 276.502 232.866 273.702 236.266 273.702C239.666 273.702 242.466 276.502 242.466 279.902ZM241.966 279.902C241.966 276.702 239.366 274.202 236.266 274.202C233.066 274.202 230.566 276.802 230.566 279.902C230.566 283.102 233.166 285.602 236.266 285.602C239.366 285.602 241.966 283.102 241.966 279.902Z" fill="white"/>
<path d="M240.366 277.002C240.566 277.602 240.766 278.302 240.766 279.002C240.766 282.102 238.266 284.602 235.166 284.602C234.966 284.602 234.866 284.602 234.666 284.602C235.166 284.802 235.766 284.902 236.366 284.902C239.166 284.902 241.366 282.702 241.366 279.902C241.266 278.802 240.966 277.802 240.366 277.002Z" fill="white"/>
<path d="M236.866 275.602C237.066 275.302 235.666 274.402 233.966 275.202C232.366 275.902 232.066 277.602 232.366 277.602C232.666 277.702 233.366 276.802 234.466 276.302C235.566 275.802 236.766 275.902 236.866 275.602Z" fill="white"/>
<path d="M288.466 220.902C288.466 224.302 285.666 227.102 282.266 227.102C278.866 227.102 276.066 224.302 276.066 220.902C276.066 217.502 278.866 214.702 282.266 214.702C285.666 214.702 288.466 217.502 288.466 220.902ZM287.966 220.902C287.966 217.702 285.366 215.202 282.266 215.202C279.066 215.202 276.566 217.802 276.566 220.902C276.566 224.102 279.166 226.602 282.266 226.602C285.366 226.602 287.966 224.102 287.966 220.902Z" fill="white"/>
<path d="M286.366 218.002C286.566 218.602 286.766 219.302 286.766 220.002C286.766 223.102 284.266 225.602 281.166 225.602C280.966 225.602 280.866 225.602 280.666 225.602C281.166 225.802 281.766 225.902 282.366 225.902C285.166 225.902 287.366 223.702 287.366 220.902C287.266 219.802 286.966 218.802 286.366 218.002Z" fill="white"/>
<path d="M282.866 216.602C283.066 216.302 281.666 215.402 279.966 216.202C278.366 216.902 278.066 218.602 278.366 218.602C278.666 218.702 279.366 217.802 280.466 217.302C281.566 216.802 282.766 216.902 282.866 216.602Z" fill="white"/>
<path d="M66.8235 233.178C67.3773 236.533 65.0709 239.752 61.7163 240.305C58.3617 240.859 55.143 238.553 54.5891 235.198C54.0352 231.844 56.3417 228.625 59.6963 228.071C63.0509 227.517 66.2696 229.824 66.8235 233.178ZM66.3301 233.26C65.8089 230.102 62.8363 228.059 59.7777 228.564C56.6205 229.086 54.5774 232.058 55.0824 235.117C55.6037 238.274 58.5762 240.317 61.6348 239.812C64.6934 239.307 66.8514 236.417 66.3301 233.26Z" fill="white"/>
<path d="M64.2791 230.659C64.5742 231.219 64.8856 231.877 64.9996 232.567C65.5046 235.626 63.4453 238.5 60.3867 239.005C60.1893 239.038 60.0907 239.054 59.8933 239.086C60.4192 239.202 61.0275 239.203 61.6195 239.105C64.3821 238.649 66.1943 236.12 65.7382 233.358C65.4603 232.289 65.0014 231.351 64.2791 230.659Z" fill="white"/>
<path d="M60.5977 229.848C60.7462 229.52 59.2183 228.86 57.6713 229.926C56.2067 230.877 56.1877 232.604 56.4837 232.555C56.7959 232.605 57.34 231.603 58.3438 230.93C59.3477 230.258 60.5479 230.161 60.5977 229.848Z" fill="white"/>
<path d="M130.266 277.803C129.966 281.803 126.366 284.803 122.466 284.403C118.466 284.103 115.466 280.503 115.866 276.603C116.166 272.603 119.766 269.603 123.666 270.003C127.666 270.303 130.666 273.803 130.266 277.803ZM129.666 277.803C129.966 274.103 127.266 270.903 123.566 270.603C119.866 270.303 116.666 273.003 116.366 276.703C116.066 280.403 118.766 283.603 122.466 283.903C126.166 284.103 129.366 281.403 129.666 277.803Z" fill="white"/>
<path d="M128.066 274.202C128.266 275.002 128.366 275.802 128.266 276.602C127.966 280.202 124.766 282.902 121.166 282.602C120.966 282.602 120.766 282.602 120.566 282.502C121.166 282.802 121.766 282.902 122.466 283.002C125.666 283.302 128.466 280.902 128.766 277.702C128.966 276.402 128.666 275.202 128.066 274.202Z" fill="white"/>
<path d="M124.166 272.202C124.366 271.902 122.866 270.702 120.866 271.402C118.866 272.102 118.366 274.002 118.766 274.102C119.166 274.302 119.966 273.202 121.366 272.802C122.666 272.402 124.066 272.602 124.166 272.202Z" fill="white"/>
<path d="M171.266 308.803C170.966 312.803 167.366 315.803 163.466 315.403C159.466 315.103 156.466 311.503 156.866 307.603C157.166 303.603 160.766 300.603 164.666 301.003C168.666 301.303 171.666 304.803 171.266 308.803ZM170.666 308.803C170.966 305.103 168.266 301.903 164.566 301.603C160.866 301.303 157.666 304.003 157.366 307.703C157.066 311.403 159.766 314.603 163.466 314.903C167.166 315.103 170.366 312.403 170.666 308.803Z" fill="white"/>
<path d="M169.066 305.202C169.266 306.002 169.366 306.802 169.266 307.602C168.966 311.202 165.766 313.902 162.166 313.602C161.966 313.602 161.766 313.602 161.566 313.502C162.166 313.802 162.766 313.902 163.466 314.002C166.666 314.302 169.466 311.902 169.766 308.702C169.966 307.402 169.666 306.202 169.066 305.202Z" fill="white"/>
<path d="M165.166 303.202C165.366 302.902 163.866 301.702 161.866 302.402C159.866 303.102 159.366 305.002 159.766 305.102C160.166 305.302 160.966 304.202 162.366 303.802C163.666 303.402 165.066 303.602 165.166 303.202Z" fill="white"/>
<path d="M222.266 247.803C221.966 251.803 218.366 254.803 214.466 254.403C210.466 254.103 207.466 250.503 207.866 246.603C208.166 242.603 211.766 239.603 215.666 240.003C219.666 240.303 222.666 243.803 222.266 247.803ZM221.666 247.803C221.966 244.103 219.266 240.903 215.566 240.603C211.866 240.303 208.666 243.003 208.366 246.703C208.066 250.403 210.766 253.603 214.466 253.903C218.166 254.103 221.366 251.403 221.666 247.803Z" fill="white"/>
<path d="M220.066 244.202C220.266 245.002 220.366 245.802 220.266 246.602C219.966 250.202 216.766 252.902 213.166 252.602C212.966 252.602 212.766 252.602 212.566 252.502C213.166 252.802 213.766 252.902 214.466 253.002C217.666 253.302 220.466 250.902 220.766 247.702C220.966 246.402 220.666 245.202 220.066 244.202Z" fill="white"/>
<path d="M216.166 242.202C216.366 241.902 214.866 240.702 212.866 241.402C210.866 242.102 210.366 244.002 210.766 244.102C211.166 244.302 211.966 243.202 213.366 242.802C214.666 242.402 216.066 242.602 216.166 242.202Z" fill="white"/>
<path d="M268.266 188.803C267.966 192.803 264.366 195.803 260.466 195.403C256.466 195.103 253.466 191.503 253.866 187.603C254.166 183.603 257.766 180.603 261.666 181.003C265.666 181.303 268.666 184.803 268.266 188.803ZM267.666 188.803C267.966 185.103 265.266 181.903 261.566 181.603C257.866 181.303 254.666 184.003 254.366 187.703C254.066 191.403 256.766 194.603 260.466 194.903C264.166 195.103 267.366 192.403 267.666 188.803Z" fill="white"/>
<path d="M266.066 185.202C266.266 186.002 266.366 186.802 266.266 187.602C265.966 191.202 262.766 193.902 259.166 193.602C258.966 193.602 258.766 193.602 258.566 193.502C259.166 193.802 259.766 193.902 260.466 194.002C263.666 194.302 266.466 191.902 266.766 188.702C266.966 187.402 266.666 186.202 266.066 185.202Z" fill="white"/>
<path d="M262.166 183.202C262.366 182.902 260.866 181.702 258.866 182.402C256.866 183.102 256.366 185.002 256.766 185.102C257.166 185.302 257.966 184.202 259.366 183.802C260.666 183.402 262.066 183.602 262.166 183.202Z" fill="white"/>
<path d="M41.664 204.797C42.0196 208.793 38.9564 212.339 35.0433 212.58C31.0479 212.936 27.5015 209.872 27.2608 205.959C26.9052 201.964 29.9684 198.417 33.8815 198.177C37.8769 197.821 41.407 200.786 41.664 204.797ZM41.072 204.895C40.7652 201.196 37.58 198.478 33.8806 198.785C30.1811 199.092 27.4637 202.277 27.7705 205.977C28.0772 209.676 31.2624 212.393 34.9619 212.087C38.645 211.681 41.3624 208.496 41.072 204.895Z" fill="white"/>
<path d="M38.9071 201.604C39.2348 202.361 39.4638 203.134 39.4954 203.94C39.7859 207.541 37.0685 210.726 33.4677 211.016C33.2704 211.049 33.073 211.081 32.8594 211.015C33.5003 211.214 34.1086 211.214 34.8155 211.199C38.0216 210.974 40.3932 208.15 40.168 204.944C40.1535 203.628 39.662 202.493 38.9071 201.604Z" fill="white"/>
<path d="M34.7333 200.266C34.8818 199.937 33.2063 198.998 31.3471 200.014C29.4878 201.031 29.304 202.987 29.715 203.02C30.1422 203.152 30.7523 201.937 32.0685 201.314C33.2859 200.708 34.6998 200.677 34.7333 200.266Z" fill="white"/>
<path d="M151.266 231.903C151.266 237.003 147.066 241.103 141.966 241.103C136.866 241.103 132.766 236.903 132.766 231.803C132.766 226.703 136.966 222.603 142.066 222.603C147.166 222.703 151.266 226.803 151.266 231.903ZM150.466 231.903C150.466 227.203 146.766 223.403 142.066 223.403C137.366 223.403 133.566 227.103 133.566 231.803C133.566 236.503 137.266 240.303 141.966 240.303C146.666 240.303 150.466 236.603 150.466 231.903Z" fill="white"/>
<path d="M148.066 227.603C148.466 228.503 148.566 229.503 148.566 230.603C148.566 235.203 144.766 238.903 140.166 238.903C139.866 238.903 139.666 238.903 139.466 238.903C140.266 239.203 141.066 239.303 141.966 239.303C146.066 239.303 149.366 236.003 149.466 231.903C149.466 230.303 148.966 228.803 148.066 227.603Z" fill="white"/>
<path d="M142.966 225.502C143.266 225.002 141.166 223.802 138.766 224.802C136.366 225.902 135.866 228.302 136.366 228.402C136.866 228.602 137.866 227.202 139.466 226.502C141.066 225.802 142.766 226.002 142.966 225.502Z" fill="white"/>
<path d="M192.266 262.903C192.266 268.003 188.066 272.103 182.966 272.103C177.866 272.103 173.766 267.903 173.766 262.803C173.766 257.703 177.966 253.603 183.066 253.603C188.166 253.703 192.266 257.803 192.266 262.903ZM191.466 262.903C191.466 258.203 187.766 254.403 183.066 254.403C178.366 254.403 174.566 258.103 174.566 262.803C174.566 267.503 178.266 271.303 182.966 271.303C187.666 271.303 191.466 267.603 191.466 262.903Z" fill="white"/>
<path d="M189.066 258.603C189.466 259.503 189.566 260.503 189.566 261.603C189.566 266.203 185.766 269.903 181.166 269.903C180.866 269.903 180.666 269.903 180.466 269.903C181.266 270.203 182.066 270.303 182.966 270.303C187.066 270.303 190.366 267.003 190.466 262.903C190.466 261.303 189.966 259.803 189.066 258.603Z" fill="white"/>
<path d="M183.966 256.502C184.266 256.002 182.166 254.802 179.766 255.802C177.366 256.902 176.866 259.302 177.366 259.402C177.866 259.602 178.866 258.202 180.466 257.502C182.066 256.802 183.766 257.002 183.966 256.502Z" fill="white"/>
<path d="M243.266 201.903C243.266 207.003 239.066 211.103 233.966 211.103C228.866 211.103 224.766 206.903 224.766 201.803C224.766 196.703 228.966 192.603 234.066 192.603C239.166 192.703 243.266 196.803 243.266 201.903ZM242.466 201.903C242.466 197.203 238.766 193.403 234.066 193.403C229.366 193.403 225.566 197.103 225.566 201.803C225.566 206.503 229.266 210.303 233.966 210.303C238.666 210.303 242.466 206.603 242.466 201.903Z" fill="white"/>
<path d="M240.066 197.603C240.466 198.503 240.566 199.503 240.566 200.603C240.566 205.203 236.766 208.903 232.166 208.903C231.866 208.903 231.666 208.903 231.466 208.903C232.266 209.203 233.066 209.303 233.966 209.303C238.066 209.303 241.366 206.003 241.466 201.903C241.466 200.303 240.966 198.803 240.066 197.603Z" fill="white"/>
<path d="M234.966 195.502C235.266 195.002 233.166 193.802 230.766 194.802C228.366 195.902 227.866 198.302 228.366 198.402C228.866 198.602 229.866 197.202 231.466 196.502C233.066 195.802 234.766 196.002 234.966 195.502Z" fill="white"/>
<path d="M289.266 142.903C289.266 148.003 285.066 152.103 279.966 152.103C274.866 152.103 270.766 147.903 270.766 142.803C270.766 137.703 274.966 133.603 280.066 133.603C285.166 133.703 289.266 137.803 289.266 142.903ZM288.466 142.903C288.466 138.203 284.766 134.403 280.066 134.403C275.366 134.403 271.566 138.103 271.566 142.803C271.566 147.503 275.266 151.303 279.966 151.303C284.666 151.303 288.466 147.603 288.466 142.903Z" fill="white"/>
<path d="M286.066 138.603C286.466 139.503 286.566 140.503 286.566 141.603C286.566 146.203 282.766 149.903 278.166 149.903C277.866 149.903 277.666 149.903 277.466 149.903C278.266 150.203 279.066 150.303 279.966 150.303C284.066 150.303 287.366 147.003 287.466 142.903C287.466 141.303 286.966 139.803 286.066 138.603Z" fill="white"/>
<path d="M280.966 136.502C281.266 136.002 279.166 134.802 276.766 135.802C274.366 136.902 273.866 139.302 274.366 139.402C274.866 139.602 275.866 138.202 277.466 137.502C279.066 136.802 280.766 137.002 280.966 136.502Z" fill="white"/>
<path d="M54.9066 156.09C55.7374 161.122 52.2614 165.851 47.2295 166.682C42.1976 167.513 37.4682 164.037 36.6374 159.005C35.8066 153.973 39.2826 149.244 44.3144 148.413C49.3626 147.681 54.0757 151.058 54.9066 156.09ZM54.1172 156.22C53.3516 151.583 49.082 148.436 44.4448 149.202C39.8075 149.968 36.6611 154.237 37.4267 158.875C38.1923 163.512 42.462 166.658 47.0992 165.893C51.7364 165.127 54.8829 160.857 54.1172 156.22Z" fill="white"/>
<path d="M51.0486 152.369C51.5899 153.191 51.8514 154.162 52.0306 155.247C52.78 159.786 49.6335 164.055 45.0949 164.805C44.7989 164.853 44.6016 164.886 44.4043 164.919C45.2425 165.084 46.0481 165.053 46.9361 164.906C50.9813 164.238 53.6996 160.445 53.1304 156.383C52.8697 154.804 52.1321 153.406 51.0486 152.369Z" fill="white"/>
<path d="M45.6748 151.127C45.8894 150.585 43.6219 149.743 41.4169 151.121C39.2281 152.597 39.1258 155.046 39.6354 155.064C40.1613 155.179 40.9199 153.635 42.3845 152.684C43.8491 151.733 45.5589 151.653 45.6748 151.127Z" fill="white"/>
<path d="M146.366 205.302C146.166 208.502 143.366 211.002 140.166 210.802C136.966 210.602 134.466 207.802 134.666 204.602C134.866 201.402 137.666 198.902 140.866 199.102C144.066 199.302 146.566 202.102 146.366 205.302ZM145.866 205.302C146.066 202.302 143.866 199.802 140.866 199.602C137.866 199.402 135.366 201.602 135.166 204.602C134.966 207.602 137.166 210.102 140.166 210.302C143.066 210.502 145.666 208.202 145.866 205.302Z" fill="white"/>
<path d="M144.566 202.502C144.766 203.102 144.866 203.702 144.766 204.402C144.566 207.302 142.066 209.502 139.166 209.302C138.966 209.302 138.866 209.302 138.666 209.202C139.166 209.402 139.666 209.502 140.166 209.602C142.766 209.802 144.966 207.802 145.166 205.202C145.266 204.202 144.966 203.302 144.566 202.502Z" fill="white"/>
<path d="M141.366 200.902C141.566 200.602 140.266 199.702 138.666 200.302C137.066 200.902 136.666 202.402 137.066 202.502C137.366 202.602 138.066 201.802 139.066 201.402C140.166 201.002 141.166 201.202 141.366 200.902Z" fill="white"/>
<path d="M187.366 236.302C187.166 239.502 184.366 242.002 181.166 241.802C177.966 241.602 175.466 238.802 175.666 235.602C175.866 232.402 178.666 229.902 181.866 230.102C185.066 230.302 187.566 233.102 187.366 236.302ZM186.866 236.302C187.066 233.302 184.866 230.802 181.866 230.602C178.866 230.402 176.366 232.602 176.166 235.602C175.966 238.602 178.166 241.102 181.166 241.302C184.066 241.502 186.666 239.202 186.866 236.302Z" fill="white"/>
<path d="M185.566 233.502C185.766 234.102 185.866 234.702 185.766 235.402C185.566 238.302 183.066 240.502 180.166 240.302C179.966 240.302 179.866 240.302 179.666 240.202C180.166 240.402 180.666 240.502 181.166 240.602C183.766 240.802 185.966 238.802 186.166 236.202C186.266 235.202 185.966 234.302 185.566 233.502Z" fill="white"/>
<path d="M182.366 231.902C182.566 231.602 181.266 230.702 179.666 231.302C178.066 231.902 177.666 233.402 178.066 233.502C178.366 233.602 179.066 232.802 180.066 232.402C181.166 232.002 182.166 232.202 182.366 231.902Z" fill="white"/>
<path d="M238.366 175.302C238.166 178.502 235.366 181.002 232.166 180.802C228.966 180.602 226.466 177.802 226.666 174.602C226.866 171.402 229.666 168.902 232.866 169.102C236.066 169.302 238.566 172.102 238.366 175.302ZM237.866 175.302C238.066 172.302 235.866 169.802 232.866 169.602C229.866 169.402 227.366 171.602 227.166 174.602C226.966 177.602 229.166 180.102 232.166 180.302C235.066 180.502 237.666 178.202 237.866 175.302Z" fill="white"/>
<path d="M236.566 172.502C236.766 173.102 236.866 173.702 236.766 174.402C236.566 177.302 234.066 179.502 231.166 179.302C230.966 179.302 230.866 179.302 230.666 179.202C231.166 179.402 231.666 179.502 232.166 179.602C234.766 179.802 236.966 177.802 237.166 175.202C237.266 174.202 236.966 173.302 236.566 172.502Z" fill="white"/>
<path d="M233.366 170.902C233.566 170.602 232.266 169.702 230.666 170.302C229.066 170.902 228.666 172.402 229.066 172.502C229.366 172.602 230.066 171.802 231.066 171.402C232.166 171.002 233.166 171.202 233.366 170.902Z" fill="white"/>
<path d="M284.366 116.302C284.166 119.502 281.366 122.002 278.166 121.802C274.966 121.602 272.466 118.802 272.666 115.602C272.866 112.402 275.666 109.902 278.866 110.102C282.066 110.302 284.566 113.102 284.366 116.302ZM283.866 116.302C284.066 113.302 281.866 110.802 278.866 110.602C275.866 110.402 273.366 112.602 273.166 115.602C272.966 118.602 275.166 121.102 278.166 121.302C281.066 121.502 283.666 119.202 283.866 116.302Z" fill="white"/>
<path d="M282.566 113.502C282.766 114.102 282.866 114.702 282.766 115.402C282.566 118.302 280.066 120.502 277.166 120.302C276.966 120.302 276.866 120.302 276.666 120.202C277.166 120.402 277.666 120.502 278.166 120.602C280.766 120.802 282.966 118.802 283.166 116.202C283.266 115.202 282.966 114.302 282.566 113.502Z" fill="white"/>
<path d="M279.366 111.902C279.566 111.602 278.266 110.702 276.666 111.302C275.066 111.902 274.666 113.402 275.066 113.502C275.366 113.602 276.066 112.802 277.066 112.402C278.166 112.002 279.166 112.202 279.366 111.902Z" fill="white"/>
<path d="M45.7385 130.643C46.0624 133.833 43.7071 136.756 40.5173 137.08C37.3274 137.404 34.4047 135.048 34.0807 131.859C33.7568 128.669 36.1121 125.746 39.3019 125.422C42.4918 125.098 45.4145 127.453 45.7385 130.643ZM45.2452 130.725C44.9538 127.732 42.3759 125.624 39.3834 125.915C36.3909 126.207 34.2827 128.785 34.5741 131.777C34.8654 134.77 37.4433 136.878 40.4358 136.587C43.3297 136.311 45.5203 133.619 45.2452 130.725Z" fill="white"/>
<path d="M43.5067 128.174C43.8018 128.733 43.9982 129.309 44.0136 130.016C44.2887 132.91 42.1805 135.487 39.2866 135.762C39.0893 135.795 38.9906 135.811 38.777 135.745C39.3029 135.861 39.8125 135.878 40.3221 135.896C42.92 135.669 44.7648 133.338 44.5386 130.74C44.4743 129.737 44.0317 128.898 43.5067 128.174Z" fill="white"/>
<path d="M40.0883 127.117C40.2367 126.788 38.8075 126.112 37.3266 126.965C35.8457 127.817 35.6954 129.363 36.1064 129.396C36.4186 129.446 36.979 128.542 37.9005 127.985C38.9206 127.411 39.9398 127.446 40.0883 127.117Z" fill="white"/>
<path d="M127.066 172.802C126.466 176.402 123.066 179.002 119.466 178.402C115.866 177.802 113.266 174.402 113.866 170.802C114.466 167.202 117.866 164.602 121.466 165.202C125.066 165.802 127.566 169.202 127.066 172.802ZM126.466 172.802C126.966 169.502 124.666 166.302 121.366 165.802C118.066 165.302 114.866 167.602 114.366 170.902C113.866 174.202 116.166 177.402 119.466 177.902C122.766 178.402 125.966 176.102 126.466 172.802Z" fill="white"/>
<path d="M125.266 169.402C125.466 170.102 125.466 170.802 125.366 171.602C124.866 174.902 121.766 177.202 118.466 176.702C118.266 176.702 118.066 176.602 117.966 176.602C118.466 176.902 119.066 177.102 119.666 177.202C122.566 177.702 125.366 175.602 125.766 172.702C125.966 171.502 125.766 170.402 125.266 169.402Z" fill="white"/>
<path d="M121.766 167.402C121.966 167.102 120.666 166.003 118.766 166.503C116.866 167.003 116.366 168.702 116.666 168.802C116.966 169.002 117.866 168.102 119.066 167.802C120.366 167.402 121.566 167.702 121.766 167.402Z" fill="white"/>
<path d="M168.066 203.802C167.466 207.402 164.066 210.002 160.466 209.402C156.866 208.802 154.266 205.402 154.866 201.802C155.466 198.202 158.866 195.602 162.466 196.202C166.066 196.802 168.566 200.202 168.066 203.802ZM167.466 203.802C167.966 200.502 165.666 197.302 162.366 196.802C159.066 196.302 155.866 198.602 155.366 201.902C154.866 205.202 157.166 208.402 160.466 208.902C163.766 209.402 166.966 207.102 167.466 203.802Z" fill="white"/>
<path d="M166.266 200.402C166.466 201.102 166.466 201.802 166.366 202.602C165.866 205.902 162.766 208.202 159.466 207.702C159.266 207.702 159.066 207.602 158.966 207.602C159.466 207.902 160.066 208.102 160.666 208.202C163.566 208.702 166.366 206.602 166.766 203.702C166.966 202.502 166.766 201.402 166.266 200.402Z" fill="white"/>
<path d="M162.766 198.402C162.966 198.102 161.666 197.003 159.766 197.503C157.866 198.003 157.366 199.702 157.666 199.802C157.966 200.002 158.866 199.102 160.066 198.802C161.366 198.402 162.566 198.702 162.766 198.402Z" fill="white"/>
<path d="M219.066 142.802C218.466 146.402 215.066 149.002 211.466 148.402C207.866 147.802 205.266 144.402 205.866 140.802C206.466 137.202 209.866 134.602 213.466 135.202C217.066 135.802 219.566 139.202 219.066 142.802ZM218.466 142.802C218.966 139.502 216.666 136.302 213.366 135.802C210.066 135.302 206.866 137.602 206.366 140.902C205.866 144.202 208.166 147.402 211.466 147.902C214.766 148.402 217.966 146.102 218.466 142.802Z" fill="white"/>
<path d="M217.266 139.402C217.466 140.102 217.466 140.802 217.366 141.602C216.866 144.902 213.766 147.202 210.466 146.702C210.266 146.702 210.066 146.602 209.966 146.602C210.466 146.902 211.066 147.102 211.666 147.202C214.566 147.702 217.366 145.602 217.766 142.702C217.966 141.502 217.766 140.402 217.266 139.402Z" fill="white"/>
<path d="M213.766 137.402C213.966 137.102 212.666 136.003 210.766 136.503C208.866 137.003 208.366 138.702 208.666 138.802C208.966 139.002 209.866 138.102 211.066 137.802C212.366 137.402 213.566 137.702 213.766 137.402Z" fill="white"/>
<path d="M265.066 83.8025C264.466 87.4025 261.066 90.0025 257.466 89.4025C253.866 88.8025 251.266 85.4025 251.866 81.8025C252.466 78.2025 255.866 75.6025 259.466 76.2025C263.066 76.8025 265.566 80.2025 265.066 83.8025ZM264.466 83.8025C264.966 80.5025 262.666 77.3025 259.366 76.8025C256.066 76.3025 252.866 78.6025 252.366 81.9025C251.866 85.2025 254.166 88.4025 257.466 88.9025C260.766 89.4025 263.966 87.1025 264.466 83.8025Z" fill="white"/>
<path d="M263.266 80.4023C263.466 81.1023 263.466 81.8023 263.366 82.6023C262.866 85.9023 259.766 88.2023 256.466 87.7023C256.266 87.7023 256.066 87.6023 255.966 87.6023C256.466 87.9023 257.066 88.1023 257.666 88.2023C260.566 88.7023 263.366 86.6023 263.766 83.7023C263.966 82.5023 263.766 81.4023 263.266 80.4023Z" fill="white"/>
<path d="M259.766 78.4025C259.966 78.1025 258.666 77.0025 256.766 77.5025C254.866 78.0025 254.366 79.7025 254.666 79.8025C254.966 80.0025 255.866 79.1025 257.066 78.8025C258.366 78.4025 259.566 78.7025 259.766 78.4025Z" fill="white"/>
<path d="M21.4019 101.721C21.3964 105.371 18.4654 108.49 14.8157 108.484C11.1661 108.479 8.04693 105.548 8.05246 101.898C8.05799 98.2484 10.989 95.1292 14.6387 95.1348C18.2883 95.1403 21.3088 98.0876 21.4019 101.721ZM20.81 101.819C20.7657 98.4814 17.9751 95.6988 14.6378 95.743C11.3004 95.7873 8.51781 98.5779 8.56207 101.915C8.60633 105.253 11.3969 108.035 14.7343 107.991C18.0716 107.947 20.8542 105.156 20.81 101.819Z" fill="white"/>
<path d="M19.0721 98.6594C19.3835 99.3175 19.4975 100.008 19.5292 100.814C19.5734 104.151 16.8895 106.925 13.5521 106.97C13.3548 107.002 13.1412 106.936 13.0425 106.952C13.5847 107.167 14.2093 107.267 14.8176 107.268C17.7603 107.288 20.1808 104.76 20.103 101.834C20.1049 100.617 19.7283 99.5646 19.0721 98.6594Z" fill="white"/>
<path d="M15.2933 97.2567C15.4417 96.9281 13.9799 96.0546 12.1867 96.8574C10.3936 97.6603 10.1772 99.419 10.4895 99.4688C10.818 99.6173 11.5594 98.5827 12.6945 98.0912C13.912 97.4848 15.1448 97.5853 15.2933 97.2567Z" fill="white"/>
<path d="M135.666 134.503C135.266 138.903 131.366 142.303 126.966 141.903C122.566 141.603 119.166 137.703 119.566 133.203C119.966 128.803 123.866 125.403 128.266 125.803C132.666 126.203 136.066 130.103 135.666 134.503ZM134.966 134.503C135.266 130.403 132.266 126.803 128.166 126.503C124.066 126.203 120.466 129.203 120.166 133.303C119.866 137.403 122.866 141.003 126.966 141.303C131.066 141.603 134.666 138.503 134.966 134.503Z" fill="white"/>
<path d="M133.266 130.502C133.466 131.302 133.666 132.202 133.566 133.102C133.266 137.102 129.766 140.102 125.666 139.802C125.466 139.802 125.266 139.802 125.066 139.702C125.766 140.002 126.466 140.202 127.166 140.202C130.766 140.502 133.866 137.802 134.166 134.202C134.266 133.002 133.866 131.702 133.266 130.502Z" fill="white"/>
<path d="M128.866 128.402C129.166 128.002 127.366 126.802 125.166 127.502C122.966 128.302 122.466 130.402 122.866 130.502C123.266 130.702 124.266 129.502 125.666 129.102C127.166 128.502 128.666 128.702 128.866 128.402Z" fill="white"/>
<path d="M176.666 165.503C176.266 169.903 172.366 173.303 167.966 172.903C163.566 172.603 160.166 168.703 160.566 164.203C160.966 159.803 164.866 156.403 169.266 156.803C173.666 157.203 177.066 161.103 176.666 165.503ZM175.966 165.503C176.266 161.403 173.266 157.803 169.166 157.503C165.066 157.203 161.466 160.203 161.166 164.303C160.866 168.403 163.866 172.003 167.966 172.303C172.066 172.603 175.666 169.503 175.966 165.503Z" fill="white"/>
<path d="M174.266 161.502C174.466 162.302 174.666 163.202 174.566 164.102C174.266 168.102 170.766 171.102 166.666 170.802C166.466 170.802 166.266 170.802 166.066 170.702C166.766 171.002 167.466 171.202 168.166 171.202C171.766 171.502 174.866 168.802 175.166 165.202C175.266 164.002 174.866 162.702 174.266 161.502Z" fill="white"/>
<path d="M169.866 159.402C170.166 159.002 168.366 157.802 166.166 158.502C163.966 159.302 163.466 161.402 163.866 161.502C164.266 161.702 165.266 160.502 166.666 160.102C168.166 159.502 169.666 159.702 169.866 159.402Z" fill="white"/>
<path d="M227.666 104.503C227.266 108.903 223.366 112.303 218.966 111.903C214.566 111.603 211.166 107.703 211.566 103.203C211.966 98.8025 215.866 95.4025 220.266 95.8025C224.666 96.2025 228.066 100.103 227.666 104.503ZM226.966 104.503C227.266 100.403 224.266 96.8025 220.166 96.5025C216.066 96.2025 212.466 99.2025 212.166 103.303C211.866 107.403 214.866 111.003 218.966 111.303C223.066 111.603 226.666 108.503 226.966 104.503Z" fill="white"/>
<path d="M225.266 100.502C225.466 101.302 225.666 102.202 225.566 103.102C225.266 107.102 221.766 110.102 217.666 109.802C217.466 109.802 217.266 109.802 217.066 109.702C217.766 110.002 218.466 110.202 219.166 110.202C222.766 110.502 225.866 107.802 226.166 104.202C226.266 103.002 225.866 101.702 225.266 100.502Z" fill="white"/>
<path d="M220.866 98.402C221.166 98.002 219.366 96.802 217.166 97.502C214.966 98.302 214.466 100.402 214.866 100.502C215.266 100.702 216.266 99.502 217.666 99.102C219.166 98.502 220.666 98.702 220.866 98.402Z" fill="white"/>
<path d="M273.666 45.5025C273.266 49.9025 269.366 53.3025 264.966 52.9025C260.566 52.6025 257.166 48.7025 257.566 44.2025C257.966 39.8025 261.866 36.4025 266.266 36.8025C270.666 37.2025 274.066 41.1025 273.666 45.5025ZM272.966 45.5025C273.266 41.4025 270.266 37.8025 266.166 37.5025C262.066 37.2025 258.466 40.2025 258.166 44.3025C257.866 48.4025 260.866 52.0025 264.966 52.3025C269.066 52.6025 272.666 49.5025 272.966 45.5025Z" fill="white"/>
<path d="M271.266 41.502C271.466 42.302 271.666 43.202 271.566 44.102C271.266 48.102 267.766 51.1019 263.666 50.8019C263.466 50.8019 263.266 50.802 263.066 50.702C263.766 51.002 264.466 51.202 265.166 51.202C268.766 51.502 271.866 48.8019 272.166 45.202C272.266 44.002 271.866 42.702 271.266 41.502Z" fill="white"/>
<path d="M266.866 39.402C267.166 39.002 265.366 37.802 263.166 38.502C260.966 39.302 260.466 41.402 260.866 41.502C261.266 41.702 262.266 40.502 263.666 40.102C265.166 39.502 266.666 39.702 266.866 39.402Z" fill="white"/>
<path d="M23.6481 62.5323C23.9702 66.9387 20.6761 70.9286 16.2698 71.2507C11.8797 71.6715 7.88976 68.3775 7.55135 63.8724C7.22923 59.466 10.5233 55.4761 14.9297 55.154C19.336 54.8319 23.3259 58.1259 23.6481 62.5323ZM22.9574 62.6464C22.5855 58.5523 19.0391 55.4891 14.945 55.861C10.8509 56.2329 7.78772 59.7793 8.15963 63.8734C8.53154 67.9675 12.0779 71.0307 16.172 70.6587C20.2661 70.2868 23.313 66.6418 22.9574 62.6464Z" fill="white"/>
<path d="M20.6286 58.9767C20.9562 59.7334 21.3001 60.5888 21.3481 61.4931C21.7037 65.4885 18.7392 69.0186 14.6451 69.3905C14.4477 69.4231 14.2504 69.4557 14.0368 69.3896C14.7763 69.5716 15.4995 69.6549 16.1902 69.5408C19.791 69.2504 22.4097 66.0814 22.1193 62.4807C22.0224 61.2804 21.416 60.0629 20.6286 58.9767Z" fill="white"/>
<path d="M15.9452 57.6216C16.176 57.1781 14.2046 56.2874 12.148 57.3364C10.1077 58.4841 9.95646 60.6375 10.3674 60.671C10.7946 60.8032 11.5858 59.4563 12.9019 58.8336C14.2842 57.9972 15.7967 57.9502 15.9452 57.6216Z" fill="white"/>
<path d="M130.666 94.702C130.666 97.802 128.066 100.402 124.966 100.402C121.866 100.402 119.266 97.802 119.266 94.702C119.266 91.602 121.866 89.002 124.966 89.002C128.166 89.002 130.666 91.502 130.666 94.702ZM130.166 94.602C130.166 91.702 127.866 89.402 124.966 89.402C122.066 89.402 119.766 91.702 119.766 94.602C119.766 97.502 122.066 99.802 124.966 99.802C127.866 99.802 130.166 97.502 130.166 94.602Z" fill="white"/>
<path d="M128.666 92.002C128.866 92.602 128.966 93.202 128.966 93.802C128.966 96.602 126.666 98.902 123.766 98.902C123.566 98.902 123.466 98.902 123.266 98.902C123.766 99.102 124.266 99.202 124.766 99.202C127.266 99.202 129.366 97.202 129.366 94.602C129.566 93.702 129.266 92.802 128.666 92.002Z" fill="white"/>
<path d="M125.566 90.7018C125.766 90.4018 124.466 89.6018 122.966 90.3018C121.466 91.0018 121.166 92.5018 121.566 92.5018C121.866 92.6018 122.466 91.7018 123.466 91.3018C124.366 90.9018 125.466 91.0018 125.566 90.7018Z" fill="white"/>
<path d="M171.666 125.702C171.666 128.802 169.066 131.402 165.966 131.402C162.866 131.402 160.266 128.802 160.266 125.702C160.266 122.602 162.866 120.002 165.966 120.002C169.166 120.002 171.666 122.502 171.666 125.702ZM171.166 125.602C171.166 122.702 168.866 120.402 165.966 120.402C163.066 120.402 160.766 122.702 160.766 125.602C160.766 128.502 163.066 130.802 165.966 130.802C168.866 130.802 171.166 128.502 171.166 125.602Z" fill="white"/>
<path d="M169.666 123.002C169.866 123.602 169.966 124.202 169.966 124.802C169.966 127.602 167.666 129.902 164.766 129.902C164.566 129.902 164.466 129.902 164.266 129.902C164.766 130.102 165.266 130.202 165.766 130.202C168.266 130.202 170.366 128.202 170.366 125.602C170.566 124.702 170.266 123.802 169.666 123.002Z" fill="white"/>
<path d="M166.566 121.702C166.766 121.402 165.466 120.602 163.966 121.302C162.466 122.002 162.166 123.502 162.566 123.502C162.866 123.602 163.466 122.702 164.466 122.302C165.366 121.902 166.466 122.002 166.566 121.702Z" fill="white"/>
<path d="M222.666 64.702C222.666 67.802 220.066 70.402 216.966 70.402C213.866 70.402 211.266 67.802 211.266 64.702C211.266 61.602 213.866 59.002 216.966 59.002C220.166 59.002 222.666 61.502 222.666 64.702ZM222.166 64.602C222.166 61.702 219.866 59.402 216.966 59.402C214.066 59.402 211.766 61.702 211.766 64.602C211.766 67.502 214.066 69.802 216.966 69.802C219.866 69.802 222.166 67.502 222.166 64.602Z" fill="white"/>
<path d="M220.666 62.002C220.866 62.602 220.966 63.202 220.966 63.802C220.966 66.602 218.666 68.902 215.766 68.902C215.566 68.902 215.466 68.902 215.266 68.902C215.766 69.102 216.266 69.202 216.766 69.202C219.266 69.202 221.366 67.202 221.366 64.602C221.566 63.702 221.266 62.802 220.666 62.002Z" fill="white"/>
<path d="M217.566 60.7018C217.766 60.4018 216.466 59.6018 214.966 60.3018C213.466 61.0018 213.166 62.5018 213.566 62.5018C213.866 62.6018 214.466 61.7018 215.466 61.3018C216.366 60.9018 217.466 61.0018 217.566 60.7018Z" fill="white"/>
<path d="M268.666 5.70195C268.666 8.80195 266.066 11.402 262.966 11.402C259.866 11.402 257.266 8.80195 257.266 5.70195C257.266 2.60195 259.866 0.00195312 262.966 0.00195312C266.166 0.00195312 268.666 2.50195 268.666 5.70195ZM268.166 5.60196C268.166 2.70196 265.866 0.401955 262.966 0.401955C260.066 0.401955 257.766 2.70196 257.766 5.60196C257.766 8.50196 260.066 10.802 262.966 10.802C265.866 10.802 268.166 8.50196 268.166 5.60196Z" fill="white"/>
<path d="M12.2314 24.0783C12.7364 27.1369 10.5947 30.1257 7.53613 30.6307C4.47754 31.1357 1.48872 28.994 0.983725 25.9354C0.478724 22.8768 2.62044 19.888 5.67903 19.383C8.83629 18.8617 11.7102 20.921 12.2314 24.0783ZM11.7218 24.0611C11.2494 21.1998 8.60546 19.3052 5.7442 19.7776C2.88293 20.2501 0.988336 22.894 1.46076 25.7553C1.93317 28.6165 4.57713 30.5111 7.43839 30.0387C10.2997 29.5663 12.1943 26.9223 11.7218 24.0611Z" fill="white"/>
<path d="M9.8181 21.7404C10.1132 22.2998 10.3096 22.8755 10.4073 23.4675C10.8634 26.2301 8.96885 28.8741 6.10759 29.3465C5.91026 29.3791 5.8116 29.3954 5.61427 29.4279C6.14017 29.5438 6.64978 29.561 7.1431 29.4796C9.60971 29.0723 11.3558 26.7569 10.9323 24.1917C10.983 23.2711 10.5404 22.432 9.8181 21.7404Z" fill="white"/>
<path d="M6.54788 20.9621C6.69634 20.6335 5.28338 20.056 3.91745 20.991C2.55152 21.926 2.49988 23.4548 2.89454 23.3897C3.20682 23.4395 3.65219 22.4537 4.57367 21.8962C5.39649 21.3549 6.49809 21.2744 6.54788 20.9621Z" fill="white"/>
<path d="M117.466 65.7018C116.966 69.1018 113.766 71.4018 110.366 70.9018C106.966 70.3018 104.566 67.1018 105.066 63.7018C105.566 60.3018 108.766 58.0018 112.166 58.5018C115.566 59.0018 117.966 62.2018 117.466 65.7018ZM116.966 65.6018C117.466 62.5018 115.266 59.5018 112.166 59.1018C109.066 58.6018 106.066 60.8018 105.666 63.9018C105.166 67.0018 107.366 70.0018 110.466 70.4018C113.566 70.8018 116.466 68.7018 116.966 65.6018Z" fill="white"/>
<path d="M115.766 62.502C115.866 63.202 115.966 63.902 115.866 64.602C115.366 67.702 112.466 69.802 109.466 69.302C109.266 69.302 109.166 69.202 108.966 69.202C109.466 69.502 109.966 69.702 110.566 69.702C113.266 70.102 115.866 68.202 116.266 65.502C116.466 64.402 116.266 63.402 115.766 62.502Z" fill="white"/>
<path d="M112.566 60.5019C112.766 60.2019 111.566 59.2019 109.766 59.6019C108.066 60.1019 107.466 61.7019 107.866 61.8019C108.166 62.0019 108.966 61.1019 110.166 60.8019C111.266 60.5019 112.366 60.8019 112.566 60.5019Z" fill="white"/>
<path d="M158.466 96.7018C157.966 100.102 154.766 102.402 151.366 101.902C147.966 101.302 145.566 98.1018 146.066 94.7018C146.566 91.3018 149.766 89.0018 153.166 89.5018C156.566 90.0018 158.966 93.2018 158.466 96.7018ZM157.966 96.6018C158.466 93.5018 156.266 90.5018 153.166 90.1018C150.066 89.6018 147.066 91.8018 146.666 94.9018C146.166 98.0018 148.366 101.002 151.466 101.402C154.566 101.802 157.466 99.7018 157.966 96.6018Z" fill="white"/>
<path d="M156.766 93.502C156.866 94.202 156.966 94.902 156.866 95.602C156.366 98.702 153.466 100.802 150.466 100.302C150.266 100.302 150.166 100.202 149.966 100.202C150.466 100.502 150.966 100.702 151.566 100.702C154.266 101.102 156.866 99.202 157.266 96.502C157.466 95.402 157.266 94.402 156.766 93.502Z" fill="white"/>
<path d="M153.566 91.5019C153.766 91.2019 152.566 90.2019 150.766 90.6019C149.066 91.1019 148.466 92.7019 148.866 92.8019C149.166 93.0019 149.966 92.1019 151.166 91.8019C152.266 91.5019 153.366 91.8019 153.566 91.5019Z" fill="white"/>
<path d="M209.466 35.7018C208.966 39.1018 205.766 41.4018 202.366 40.9018C198.966 40.3018 196.566 37.1018 197.066 33.7018C197.566 30.3018 200.766 28.0018 204.166 28.5018C207.566 29.0018 209.966 32.2018 209.466 35.7018ZM208.966 35.6018C209.466 32.5018 207.266 29.5018 204.166 29.1018C201.066 28.6018 198.066 30.8018 197.666 33.9018C197.166 37.0018 199.366 40.0018 202.466 40.4018C205.566 40.8018 208.466 38.7018 208.966 35.6018Z" fill="white"/>
<path d="M207.766 32.502C207.866 33.202 207.966 33.902 207.866 34.602C207.366 37.702 204.466 39.802 201.466 39.302C201.266 39.302 201.166 39.202 200.966 39.202C201.466 39.502 201.966 39.702 202.566 39.702C205.266 40.102 207.866 38.202 208.266 35.502C208.466 34.402 208.266 33.402 207.766 32.502Z" fill="white"/>
<path d="M204.566 30.5019C204.766 30.2019 203.566 29.2019 201.766 29.6019C200.066 30.1019 199.466 31.7019 199.866 31.8019C200.166 32.0019 200.966 31.1019 202.166 30.8019C203.266 30.5019 204.366 30.8019 204.566 30.5019Z" fill="white"/>
<path d="M188.766 342.603C188.666 346.703 185.166 350.003 181.066 349.903C176.966 349.803 173.666 346.303 173.766 342.203C173.866 338.103 177.366 334.803 181.466 334.903C185.666 335.003 188.866 338.503 188.766 342.603ZM188.166 342.603C188.266 338.803 185.266 335.603 181.466 335.503C177.666 335.403 174.466 338.403 174.366 342.203C174.266 346.003 177.266 349.203 181.066 349.303C184.966 349.403 188.066 346.403 188.166 342.603Z" fill="white"/>
<path d="M186.266 339.103C186.566 339.903 186.666 340.703 186.666 341.503C186.566 345.303 183.466 348.203 179.666 348.103C179.466 348.103 179.266 348.103 179.066 348.103C179.666 348.303 180.366 348.503 181.066 348.503C184.366 348.603 187.166 345.903 187.266 342.603C187.366 341.303 186.966 340.103 186.266 339.103Z" fill="white"/>
<path d="M182.166 337.303C182.366 336.903 180.666 335.903 178.766 336.703C176.766 337.503 176.366 339.503 176.766 339.603C177.166 339.703 177.966 338.603 179.366 338.103C180.566 337.503 181.966 337.603 182.166 337.303Z" fill="white"/>
<path d="M229.766 373.603C229.666 377.703 226.166 381.003 222.066 380.903C217.966 380.803 214.666 377.303 214.766 373.203C214.866 369.103 218.366 365.803 222.466 365.903C226.666 366.003 229.866 369.503 229.766 373.603ZM229.166 373.603C229.266 369.803 226.266 366.603 222.466 366.503C218.666 366.403 215.466 369.403 215.366 373.203C215.266 377.003 218.266 380.203 222.066 380.303C225.966 380.403 229.066 377.403 229.166 373.603Z" fill="white"/>
<path d="M227.266 370.103C227.566 370.903 227.666 371.703 227.666 372.503C227.566 376.303 224.466 379.203 220.666 379.103C220.466 379.103 220.266 379.103 220.066 379.103C220.666 379.303 221.366 379.503 222.066 379.503C225.366 379.603 228.166 376.903 228.266 373.603C228.366 372.303 227.966 371.103 227.266 370.103Z" fill="white"/>
<path d="M223.166 368.303C223.366 367.903 221.666 366.903 219.766 367.703C217.766 368.503 217.366 370.503 217.766 370.603C218.166 370.703 218.966 369.603 220.366 369.103C221.566 368.503 222.966 368.603 223.166 368.303Z" fill="white"/>
<path d="M280.766 312.603C280.666 316.703 277.166 320.003 273.066 319.903C268.966 319.803 265.666 316.303 265.766 312.203C265.866 308.103 269.366 304.803 273.466 304.903C277.666 305.003 280.866 308.503 280.766 312.603ZM280.166 312.603C280.266 308.803 277.266 305.603 273.466 305.503C269.666 305.403 266.466 308.403 266.366 312.203C266.266 316.003 269.266 319.203 273.066 319.303C276.966 319.403 280.066 316.403 280.166 312.603Z" fill="white"/>
<path d="M278.266 309.103C278.566 309.903 278.666 310.703 278.666 311.503C278.566 315.303 275.466 318.203 271.666 318.103C271.466 318.103 271.266 318.103 271.066 318.103C271.666 318.303 272.366 318.503 273.066 318.503C276.366 318.603 279.166 315.903 279.266 312.603C279.366 311.303 278.966 310.103 278.266 309.103Z" fill="white"/>
<path d="M274.166 307.303C274.366 306.903 272.666 305.903 270.766 306.703C268.766 307.503 268.366 309.503 268.766 309.603C269.166 309.703 269.966 308.603 271.366 308.103C272.566 307.503 273.966 307.603 274.166 307.303Z" fill="white"/>
<path d="M326.766 253.603C326.666 257.703 323.166 261.003 319.066 260.903C314.966 260.803 311.666 257.303 311.766 253.203C311.866 249.103 315.366 245.803 319.466 245.903C323.666 246.003 326.866 249.503 326.766 253.603ZM326.166 253.603C326.266 249.803 323.266 246.603 319.466 246.503C315.666 246.403 312.466 249.403 312.366 253.203C312.266 257.003 315.266 260.203 319.066 260.303C322.966 260.403 326.066 257.403 326.166 253.603Z" fill="white"/>
<path d="M324.266 250.103C324.566 250.903 324.666 251.703 324.666 252.503C324.566 256.303 321.466 259.203 317.666 259.103C317.466 259.103 317.266 259.103 317.066 259.103C317.666 259.303 318.366 259.503 319.066 259.503C322.366 259.603 325.166 256.903 325.266 253.603C325.366 252.303 324.966 251.103 324.266 250.103Z" fill="white"/>
<path d="M320.166 248.303C320.366 247.903 318.666 246.903 316.766 247.703C314.766 248.503 314.366 250.503 314.766 250.603C315.166 250.703 315.966 249.603 317.366 249.103C318.566 248.503 319.966 248.603 320.166 248.303Z" fill="white"/>
<path d="M109.939 259.202C110.508 263.264 107.592 267.09 103.531 267.659C99.4694 268.228 95.6433 265.313 95.0741 261.251C94.5048 257.19 97.4205 253.364 101.482 252.794C105.642 252.209 109.37 255.141 109.939 259.202ZM109.347 259.3C108.827 255.534 105.345 252.866 101.58 253.386C97.8142 253.907 95.1457 257.388 95.6661 261.153C96.1864 264.919 99.6676 267.588 103.433 267.067C107.297 266.53 109.867 263.066 109.347 259.3Z" fill="white"/>
<path d="M106.902 256.156C107.328 256.897 107.557 257.67 107.688 258.459C108.208 262.225 105.622 265.591 101.856 266.111C101.659 266.144 101.462 266.176 101.264 266.209C101.889 266.308 102.612 266.392 103.303 266.278C106.575 265.839 108.898 262.719 108.459 259.447C108.346 258.148 107.756 257.029 106.902 256.156Z" fill="white"/>
<path d="M102.563 255.049C102.696 254.621 100.855 253.912 99.1111 255.011C97.2681 256.126 97.1993 258.164 97.6102 258.198C98.0212 258.231 98.6313 257.016 99.9312 256.294C101.017 255.507 102.415 255.377 102.563 255.049Z" fill="white"/>
<path d="M158.566 317.202C158.466 321.502 154.766 324.902 150.466 324.802C146.166 324.702 142.766 321.002 142.866 316.702C142.966 312.402 146.666 309.002 150.966 309.102C155.366 309.302 158.766 312.902 158.566 317.202ZM157.966 317.202C158.066 313.202 154.966 309.902 150.966 309.802C146.966 309.702 143.666 312.802 143.566 316.802C143.466 320.802 146.566 324.102 150.566 324.202C154.466 324.302 157.866 321.202 157.966 317.202Z" fill="white"/>
<path d="M156.066 313.502C156.366 314.302 156.466 315.202 156.466 316.102C156.366 320.002 153.066 323.102 149.166 323.002C148.966 323.002 148.766 323.002 148.566 322.902C149.266 323.202 149.966 323.302 150.666 323.302C154.166 323.402 157.066 320.702 157.166 317.202C157.166 315.802 156.766 314.602 156.066 313.502Z" fill="white"/>
<path d="M151.666 311.602C151.866 311.202 150.166 310.102 148.066 310.902C145.966 311.802 145.566 313.802 145.966 313.902C146.366 314.102 147.266 312.902 148.666 312.402C150.066 311.802 151.466 312.002 151.666 311.602Z" fill="white"/>
<path d="M199.566 348.202C199.466 352.502 195.766 355.902 191.466 355.802C187.166 355.702 183.766 352.002 183.866 347.702C183.966 343.402 187.666 340.002 191.966 340.102C196.366 340.302 199.766 343.902 199.566 348.202ZM198.966 348.202C199.066 344.202 195.966 340.902 191.966 340.802C187.966 340.702 184.666 343.802 184.566 347.802C184.466 351.802 187.566 355.102 191.566 355.202C195.466 355.302 198.866 352.202 198.966 348.202Z" fill="white"/>
<path d="M197.066 344.502C197.366 345.302 197.466 346.202 197.466 347.102C197.366 351.002 194.066 354.102 190.166 354.002C189.966 354.002 189.766 354.002 189.566 353.902C190.266 354.202 190.966 354.302 191.666 354.302C195.166 354.402 198.066 351.702 198.166 348.202C198.166 346.802 197.766 345.602 197.066 344.502Z" fill="white"/>
<path d="M192.666 342.602C192.866 342.202 191.166 341.102 189.066 341.902C186.966 342.802 186.566 344.802 186.966 344.902C187.366 345.102 188.266 343.902 189.666 343.402C191.066 342.802 192.466 343.002 192.666 342.602Z" fill="white"/>
<path d="M250.566 287.202C250.466 291.502 246.766 294.902 242.466 294.802C238.166 294.702 234.766 291.002 234.866 286.702C234.966 282.402 238.666 279.002 242.966 279.102C247.366 279.302 250.766 282.902 250.566 287.202ZM249.966 287.202C250.066 283.202 246.966 279.902 242.966 279.802C238.966 279.702 235.666 282.802 235.566 286.802C235.466 290.802 238.566 294.102 242.566 294.202C246.466 294.302 249.866 291.202 249.966 287.202Z" fill="white"/>
<path d="M248.066 283.502C248.366 284.302 248.466 285.202 248.466 286.102C248.366 290.002 245.066 293.102 241.166 293.002C240.966 293.002 240.766 293.002 240.566 292.902C241.266 293.202 241.966 293.302 242.666 293.302C246.166 293.402 249.066 290.702 249.166 287.202C249.166 285.802 248.766 284.602 248.066 283.502Z" fill="white"/>
<path d="M243.666 281.602C243.866 281.202 242.166 280.102 240.066 280.902C237.966 281.802 237.566 283.802 237.966 283.902C238.366 284.102 239.266 282.902 240.666 282.402C242.066 281.802 243.466 282.002 243.666 281.602Z" fill="white"/>
<path d="M296.566 228.202C296.466 232.502 292.766 235.902 288.466 235.802C284.166 235.702 280.766 232.002 280.866 227.702C280.966 223.402 284.666 220.002 288.966 220.102C293.366 220.302 296.766 223.902 296.566 228.202ZM295.966 228.202C296.066 224.202 292.966 220.902 288.966 220.802C284.966 220.702 281.666 223.802 281.566 227.802C281.466 231.802 284.566 235.102 288.566 235.202C292.466 235.302 295.866 232.202 295.966 228.202Z" fill="white"/>
<path d="M294.066 224.502C294.366 225.302 294.466 226.202 294.466 227.102C294.366 231.002 291.066 234.102 287.166 234.002C286.966 234.002 286.766 234.002 286.566 233.902C287.266 234.202 287.966 234.302 288.666 234.302C292.166 234.402 295.066 231.702 295.166 228.202C295.166 226.802 294.766 225.602 294.066 224.502Z" fill="white"/>
<path d="M289.666 222.602C289.866 222.202 288.166 221.102 286.066 221.902C283.966 222.802 283.566 224.802 283.966 224.902C284.366 225.102 285.266 223.902 286.666 223.402C288.066 222.802 289.466 223.002 289.666 222.602Z" fill="white"/>
<path d="M76.0047 239.061C76.6065 243.32 73.5098 247.277 69.2509 247.879C64.9921 248.481 61.0347 245.384 60.4329 241.125C59.8311 236.866 62.9278 232.909 67.1867 232.307C71.5605 231.788 75.5015 234.786 76.0047 239.061ZM75.4127 239.159C74.8597 235.196 71.2636 232.445 67.3007 232.998C63.3378 233.551 60.5869 237.147 61.1399 241.11C61.6928 245.073 65.289 247.824 69.2518 247.271C73.116 246.734 75.9656 243.122 75.4127 239.159Z" fill="white"/>
<path d="M72.9355 235.817C73.3618 236.558 73.6071 237.429 73.7537 238.317C74.2903 242.182 71.5394 245.778 67.6752 246.314C67.4779 246.347 67.2806 246.38 67.0669 246.314C67.8065 246.495 68.5134 246.48 69.204 246.366C72.6736 245.895 75.095 242.758 74.6235 239.289C74.3954 237.907 73.8053 236.789 72.9355 235.817Z" fill="white"/>
<path d="M68.2844 234.66C68.4166 234.233 66.5601 233.424 64.6185 234.556C62.6931 235.786 62.6243 237.824 63.0352 237.858C63.4625 237.99 64.155 236.659 65.4548 235.938C66.7384 235.118 68.1523 235.087 68.2844 234.66Z" fill="white"/>
<path d="M166.866 287.902C166.666 291.102 163.866 293.502 160.666 293.202C157.466 293.002 155.066 290.202 155.366 287.002C155.566 283.802 158.366 281.402 161.566 281.702C164.666 282.002 167.066 284.802 166.866 287.902ZM166.366 287.902C166.566 285.002 164.366 282.402 161.466 282.202C158.566 282.002 155.966 284.202 155.766 287.102C155.566 290.002 157.766 292.602 160.666 292.802C163.666 293.002 166.166 290.802 166.366 287.902Z" fill="white"/>
<path d="M165.066 285.102C165.266 285.702 165.366 286.302 165.266 287.002C165.066 289.902 162.566 292.002 159.666 291.802C159.466 291.802 159.366 291.802 159.166 291.702C159.666 291.902 160.166 292.002 160.666 292.102C163.266 292.302 165.466 290.402 165.666 287.802C165.866 286.902 165.566 285.902 165.066 285.102Z" fill="white"/>
<path d="M161.966 283.603C162.166 283.303 160.866 282.403 159.366 283.003C157.766 283.603 157.366 285.103 157.766 285.103C158.066 285.203 158.766 284.403 159.766 284.103C160.766 283.603 161.866 283.803 161.966 283.603Z" fill="white"/>
<path d="M207.866 318.902C207.666 322.102 204.866 324.502 201.666 324.202C198.466 324.002 196.066 321.202 196.366 318.002C196.566 314.802 199.366 312.402 202.566 312.702C205.666 313.002 208.066 315.802 207.866 318.902ZM207.366 318.902C207.566 316.002 205.366 313.402 202.466 313.202C199.566 313.002 196.966 315.202 196.766 318.102C196.566 321.002 198.766 323.602 201.666 323.802C204.666 324.002 207.166 321.802 207.366 318.902Z" fill="white"/>
<path d="M206.066 316.102C206.266 316.702 206.366 317.302 206.266 318.002C206.066 320.902 203.566 323.002 200.666 322.802C200.466 322.802 200.366 322.802 200.166 322.702C200.666 322.902 201.166 323.002 201.666 323.102C204.266 323.302 206.466 321.402 206.666 318.802C206.866 317.902 206.566 316.902 206.066 316.102Z" fill="white"/>
<path d="M202.966 314.603C203.166 314.303 201.866 313.403 200.366 314.003C198.766 314.603 198.366 316.103 198.766 316.103C199.066 316.203 199.766 315.403 200.766 315.103C201.766 314.603 202.866 314.803 202.966 314.603Z" fill="white"/>
<path d="M258.866 257.902C258.666 261.102 255.866 263.502 252.666 263.202C249.466 263.002 247.066 260.202 247.366 257.002C247.566 253.802 250.366 251.402 253.566 251.702C256.666 252.002 259.066 254.802 258.866 257.902ZM258.366 257.902C258.566 255.002 256.366 252.402 253.466 252.202C250.566 252.002 247.966 254.202 247.766 257.102C247.566 260.002 249.766 262.602 252.666 262.802C255.666 263.002 258.166 260.802 258.366 257.902Z" fill="white"/>
<path d="M257.066 255.102C257.266 255.702 257.366 256.302 257.266 257.002C257.066 259.902 254.566 262.002 251.666 261.802C251.466 261.802 251.366 261.802 251.166 261.702C251.666 261.902 252.166 262.002 252.666 262.102C255.266 262.302 257.466 260.402 257.666 257.802C257.866 256.902 257.566 255.902 257.066 255.102Z" fill="white"/>
<path d="M253.966 253.603C254.166 253.303 252.866 252.403 251.366 253.003C249.766 253.603 249.366 255.103 249.766 255.103C250.066 255.203 250.766 254.403 251.766 254.103C252.766 253.603 253.866 253.803 253.966 253.603Z" fill="white"/>
<path d="M304.866 198.902C304.666 202.102 301.866 204.502 298.666 204.202C295.466 204.002 293.066 201.202 293.366 198.002C293.566 194.802 296.366 192.402 299.566 192.702C302.666 193.002 305.066 195.802 304.866 198.902ZM304.366 198.902C304.566 196.002 302.366 193.402 299.466 193.202C296.566 193.002 293.966 195.202 293.766 198.102C293.566 201.002 295.766 203.602 298.666 203.802C301.666 204.002 304.166 201.802 304.366 198.902Z" fill="white"/>
<path d="M303.066 196.102C303.266 196.702 303.366 197.302 303.266 198.002C303.066 200.902 300.566 203.002 297.666 202.802C297.466 202.802 297.366 202.802 297.166 202.702C297.666 202.902 298.166 203.002 298.666 203.102C301.266 203.302 303.466 201.402 303.666 198.802C303.866 197.902 303.566 196.902 303.066 196.102Z" fill="white"/>
<path d="M299.966 194.603C300.166 194.303 298.866 193.403 297.366 194.003C295.766 194.603 295.366 196.103 295.766 196.103C296.066 196.203 296.766 195.403 297.766 195.103C298.766 194.603 299.866 194.803 299.966 194.603Z" fill="white"/>
<path d="M79.4207 208.801C79.7446 211.991 77.373 214.815 74.1669 215.04C70.977 215.364 68.153 212.992 67.9277 209.786C67.6037 206.596 69.9753 203.772 73.1815 203.547C76.2889 203.338 79.113 205.71 79.4207 208.801ZM78.9273 208.882C78.6523 205.988 76.0581 203.782 73.1643 204.057C70.2704 204.332 68.0635 206.926 68.3386 209.82C68.6137 212.714 71.2079 214.92 74.1017 214.645C77.0942 214.354 79.2024 211.776 78.9273 208.882Z" fill="white"/>
<path d="M77.1884 206.332C77.4834 206.891 77.6799 207.467 77.6952 208.174C77.9703 211.068 75.8458 213.547 72.952 213.822C72.7546 213.855 72.656 213.871 72.4424 213.805C72.9683 213.921 73.4779 213.938 73.9875 213.955C76.5853 213.729 78.4464 211.496 78.2202 208.898C78.2709 207.977 77.812 207.04 77.1884 206.332Z" fill="white"/>
<path d="M73.8856 205.357C74.0341 205.028 72.6048 204.352 71.2226 205.188C69.7417 206.041 69.5914 207.586 69.9861 207.521C70.2984 207.571 70.8587 206.667 71.7965 206.209C72.7016 205.552 73.8195 205.57 73.8856 205.357Z" fill="white"/>
<path d="M177.666 259.702C177.266 262.802 174.466 264.902 171.366 264.502C168.266 264.102 166.166 261.302 166.566 258.202C166.966 255.102 169.766 253.002 172.866 253.402C175.966 253.802 178.166 256.602 177.666 259.702ZM177.266 259.602C177.666 256.802 175.666 254.202 172.866 253.802C170.066 253.402 167.466 255.402 167.066 258.202C166.666 261.002 168.666 263.602 171.466 264.002C174.266 264.402 176.866 262.402 177.266 259.602Z" fill="white"/>
<path d="M176.166 256.902C176.266 257.502 176.366 258.102 176.266 258.702C175.866 261.502 173.366 263.402 170.566 263.102C170.366 263.102 170.266 263.102 170.166 263.002C170.566 263.202 171.066 263.402 171.666 263.502C174.166 263.802 176.466 262.102 176.766 259.602C176.766 258.602 176.566 257.702 176.166 256.902Z" fill="white"/>
<path d="M173.166 255.203C173.366 254.903 172.166 254.003 170.666 254.503C169.166 255.003 168.666 256.403 168.966 256.503C169.266 256.603 169.966 255.903 170.966 255.603C172.066 255.203 173.066 255.403 173.166 255.203Z" fill="white"/>
<path d="M218.666 290.702C218.266 293.802 215.466 295.902 212.366 295.502C209.266 295.102 207.166 292.302 207.566 289.202C207.966 286.102 210.766 284.002 213.866 284.402C216.966 284.802 219.166 287.602 218.666 290.702ZM218.266 290.602C218.666 287.802 216.666 285.202 213.866 284.802C211.066 284.402 208.466 286.402 208.066 289.202C207.666 292.002 209.666 294.602 212.466 295.002C215.266 295.402 217.866 293.402 218.266 290.602Z" fill="white"/>
<path d="M217.166 287.902C217.266 288.502 217.366 289.102 217.266 289.702C216.866 292.502 214.366 294.402 211.566 294.102C211.366 294.102 211.266 294.102 211.166 294.002C211.566 294.202 212.066 294.402 212.666 294.502C215.166 294.802 217.466 293.102 217.766 290.602C217.766 289.602 217.566 288.702 217.166 287.902Z" fill="white"/>
<path d="M214.166 286.203C214.366 285.903 213.166 285.003 211.666 285.503C210.166 286.003 209.666 287.403 209.966 287.503C210.266 287.603 210.966 286.903 211.966 286.603C213.066 286.203 214.066 286.403 214.166 286.203Z" fill="white"/>
<path d="M269.666 229.702C269.266 232.802 266.466 234.902 263.366 234.502C260.266 234.102 258.166 231.302 258.566 228.202C258.966 225.102 261.766 223.002 264.866 223.402C267.966 223.802 270.166 226.602 269.666 229.702ZM269.266 229.602C269.666 226.802 267.666 224.202 264.866 223.802C262.066 223.402 259.466 225.402 259.066 228.202C258.666 231.002 260.666 233.602 263.466 234.002C266.266 234.402 268.866 232.402 269.266 229.602Z" fill="white"/>
<path d="M268.166 226.902C268.266 227.502 268.366 228.102 268.266 228.702C267.866 231.502 265.366 233.402 262.566 233.102C262.366 233.102 262.266 233.102 262.166 233.002C262.566 233.202 263.066 233.402 263.666 233.502C266.166 233.802 268.466 232.102 268.766 229.602C268.766 228.602 268.566 227.702 268.166 226.902Z" fill="white"/>
<path d="M265.166 225.203C265.366 224.903 264.166 224.003 262.666 224.503C261.166 225.003 260.666 226.403 260.966 226.503C261.266 226.603 261.966 225.903 262.966 225.603C264.066 225.203 265.066 225.403 265.166 225.203Z" fill="white"/>
<path d="M315.666 170.702C315.266 173.802 312.466 175.902 309.366 175.502C306.266 175.102 304.166 172.302 304.566 169.202C304.966 166.102 307.766 164.002 310.866 164.402C313.966 164.802 316.166 167.602 315.666 170.702ZM315.266 170.602C315.666 167.802 313.666 165.202 310.866 164.802C308.066 164.402 305.466 166.402 305.066 169.202C304.666 172.002 306.666 174.602 309.466 175.002C312.266 175.402 314.866 173.402 315.266 170.602Z" fill="white"/>
<path d="M314.166 167.902C314.266 168.502 314.366 169.102 314.266 169.702C313.866 172.502 311.366 174.402 308.566 174.102C308.366 174.102 308.266 174.102 308.166 174.002C308.566 174.202 309.066 174.402 309.666 174.502C312.166 174.802 314.466 173.102 314.766 170.602C314.766 169.602 314.566 168.702 314.166 167.902Z" fill="white"/>
<path d="M311.166 166.203C311.366 165.903 310.166 165.003 308.666 165.503C307.166 166.003 306.666 167.403 306.966 167.503C307.266 167.603 307.966 166.903 308.966 166.603C310.066 166.203 311.066 166.403 311.166 166.203Z" fill="white"/>
<path d="M85.4824 179.217C85.5927 182.341 83.1722 184.869 80.0484 184.98C76.9247 185.09 74.3966 182.669 74.2863 179.546C74.1759 176.422 76.5964 173.894 79.7202 173.783C82.8439 173.673 85.4707 176.077 85.4824 179.217ZM85.0714 179.184C85.0099 176.356 82.6131 174.117 79.7853 174.178C76.9576 174.24 74.7181 176.636 74.7796 179.464C74.8411 182.292 77.2379 184.531 80.0657 184.47C82.8934 184.408 85.1329 182.012 85.0714 179.184Z" fill="white"/>
<path d="M83.5463 176.699C83.7427 177.275 83.9391 177.851 83.9382 178.459C83.9997 181.287 81.8426 183.569 79.0311 183.729C78.8338 183.761 78.7351 183.778 78.6202 183.695C79.0474 183.827 79.5733 183.943 80.1816 183.944C82.6971 183.833 84.6894 181.781 84.5781 179.266C84.4152 178.279 84.0713 177.423 83.5463 176.699Z" fill="white"/>
<path d="M80.3094 175.51C80.4578 175.182 79.1273 174.489 77.7288 175.227C76.3302 175.965 76.065 177.427 76.3773 177.477C76.6896 177.527 77.2662 176.722 78.2039 176.263C79.2241 175.69 80.2433 175.724 80.3094 175.51Z" fill="white"/>
<path d="M152.766 234.703C152.366 238.703 148.766 241.603 144.766 241.203C140.766 240.803 137.866 237.203 138.266 233.203C138.666 229.203 142.266 226.303 146.266 226.703C150.166 227.103 153.166 230.703 152.766 234.703ZM152.166 234.703C152.566 231.003 149.866 227.803 146.166 227.403C142.466 227.003 139.266 229.703 138.866 233.403C138.466 237.103 141.166 240.303 144.866 240.703C148.466 241.003 151.766 238.303 152.166 234.703Z" fill="white"/>
<path d="M150.566 231.103C150.766 231.903 150.866 232.703 150.766 233.503C150.366 237.103 147.166 239.803 143.566 239.403C143.366 239.403 143.166 239.303 142.966 239.303C143.566 239.603 144.166 239.803 144.866 239.803C148.066 240.103 150.966 237.803 151.266 234.603C151.466 233.303 151.166 232.103 150.566 231.103Z" fill="white"/>
<path d="M146.666 229.003C146.966 228.703 145.366 227.503 143.366 228.203C141.366 228.903 140.866 230.703 141.266 230.803C141.666 231.003 142.566 230.003 143.866 229.603C145.166 229.103 146.466 229.403 146.666 229.003Z" fill="white"/>
<path d="M193.766 265.703C193.366 269.703 189.766 272.603 185.766 272.203C181.766 271.803 178.866 268.203 179.266 264.203C179.666 260.203 183.266 257.303 187.266 257.703C191.166 258.103 194.166 261.703 193.766 265.703ZM193.166 265.703C193.566 262.003 190.866 258.803 187.166 258.403C183.466 258.003 180.266 260.703 179.866 264.403C179.466 268.103 182.166 271.303 185.866 271.703C189.466 272.003 192.766 269.303 193.166 265.703Z" fill="white"/>
<path d="M191.566 262.103C191.766 262.903 191.866 263.703 191.766 264.503C191.366 268.103 188.166 270.803 184.566 270.403C184.366 270.403 184.166 270.303 183.966 270.303C184.566 270.603 185.166 270.803 185.866 270.803C189.066 271.103 191.966 268.803 192.266 265.603C192.466 264.303 192.166 263.103 191.566 262.103Z" fill="white"/>
<path d="M187.666 260.003C187.966 259.703 186.366 258.503 184.366 259.203C182.366 259.903 181.866 261.703 182.266 261.803C182.666 262.003 183.566 261.003 184.866 260.603C186.166 260.103 187.466 260.403 187.666 260.003Z" fill="white"/>
<path d="M244.766 204.703C244.366 208.703 240.766 211.603 236.766 211.203C232.766 210.803 229.866 207.203 230.266 203.203C230.666 199.203 234.266 196.303 238.266 196.703C242.166 197.103 245.166 200.703 244.766 204.703ZM244.166 204.703C244.566 201.003 241.866 197.803 238.166 197.403C234.466 197.003 231.266 199.703 230.866 203.403C230.466 207.103 233.166 210.303 236.866 210.703C240.466 211.003 243.766 208.303 244.166 204.703Z" fill="white"/>
<path d="M242.566 201.103C242.766 201.903 242.866 202.703 242.766 203.503C242.366 207.103 239.166 209.803 235.566 209.403C235.366 209.403 235.166 209.303 234.966 209.303C235.566 209.603 236.166 209.803 236.866 209.803C240.066 210.103 242.966 207.803 243.266 204.603C243.466 203.303 243.166 202.103 242.566 201.103Z" fill="white"/>
<path d="M238.666 199.003C238.966 198.703 237.366 197.503 235.366 198.203C233.366 198.903 232.866 200.703 233.266 200.803C233.666 201.003 234.566 200.003 235.866 199.603C237.166 199.103 238.466 199.403 238.666 199.003Z" fill="white"/>
<path d="M290.766 145.703C290.366 149.703 286.766 152.603 282.766 152.203C278.766 151.803 275.866 148.203 276.266 144.203C276.666 140.203 280.266 137.303 284.266 137.703C288.166 138.103 291.166 141.703 290.766 145.703ZM290.166 145.703C290.566 142.003 287.866 138.803 284.166 138.403C280.466 138.003 277.266 140.703 276.866 144.403C276.466 148.103 279.166 151.303 282.866 151.703C286.466 152.003 289.766 149.303 290.166 145.703Z" fill="white"/>
<path d="M288.566 142.103C288.766 142.903 288.866 143.703 288.766 144.503C288.366 148.103 285.166 150.803 281.566 150.403C281.366 150.403 281.166 150.303 280.966 150.303C281.566 150.603 282.166 150.803 282.866 150.803C286.066 151.103 288.966 148.803 289.266 145.603C289.466 144.303 289.166 143.103 288.566 142.103Z" fill="white"/>
<path d="M284.666 140.003C284.966 139.703 283.366 138.503 281.366 139.203C279.366 139.903 278.866 141.703 279.266 141.803C279.666 142.003 280.566 141.003 281.866 140.603C283.166 140.103 284.466 140.403 284.666 140.003Z" fill="white"/>
<path d="M56.8428 158.608C57.0998 162.62 54.0203 166.068 50.0086 166.325C45.9968 166.582 42.5491 163.502 42.2922 159.49C42.0352 155.479 45.1147 152.031 49.1264 151.774C53.0395 151.533 56.5859 154.597 56.8428 158.608ZM56.2508 158.706C56.0428 154.99 52.8575 152.273 49.1418 152.481C45.4261 152.689 42.7087 155.874 42.9167 159.59C43.1248 163.306 46.31 166.023 50.0258 165.815C53.6266 165.525 56.4426 162.323 56.2508 158.706Z" fill="white"/>
<path d="M54.0859 155.414C54.4135 156.171 54.6425 156.944 54.6742 157.75C54.866 161.367 52.1486 164.552 48.5315 164.744C48.3342 164.776 48.1205 164.71 47.9232 164.743C48.5641 164.941 49.1886 165.041 49.8793 164.927C53.0854 164.701 55.572 161.96 55.3467 158.753C55.3322 157.438 54.8408 156.303 54.0859 155.414Z" fill="white"/>
<path d="M49.8954 153.978C50.1425 153.633 48.3684 152.71 46.5092 153.726C44.6499 154.743 44.4498 156.6 44.8608 156.634C45.288 156.766 46.0131 155.632 47.2306 155.026C48.4317 154.321 49.7633 154.405 49.8954 153.978Z" fill="white"/>
<path d="M163.466 212.302C163.066 215.402 160.266 217.602 157.066 217.302C153.966 216.902 151.766 214.102 152.066 210.902C152.466 207.802 155.266 205.602 158.466 205.902C161.666 206.402 163.866 209.202 163.466 212.302ZM162.966 212.302C163.366 209.402 161.266 206.802 158.466 206.502C155.666 206.202 152.966 208.202 152.666 211.002C152.266 213.902 154.366 216.502 157.166 216.802C160.066 217.202 162.666 215.102 162.966 212.302Z" fill="white"/>
<path d="M161.866 209.502C161.966 210.102 162.066 210.702 161.966 211.402C161.666 214.202 159.066 216.202 156.166 215.902C155.966 215.902 155.866 215.902 155.666 215.802C156.166 216.002 156.566 216.202 157.166 216.202C159.666 216.502 161.966 214.702 162.266 212.202C162.466 211.202 162.266 210.302 161.866 209.502Z" fill="white"/>
<path d="M158.866 207.802C159.066 207.502 157.866 206.602 156.266 207.102C154.666 207.602 154.266 209.002 154.566 209.102C154.866 209.202 155.566 208.502 156.566 208.202C157.666 207.802 158.666 208.102 158.866 207.802Z" fill="white"/>
<path d="M204.466 243.302C204.066 246.402 201.266 248.602 198.066 248.302C194.966 247.902 192.766 245.102 193.066 241.902C193.466 238.802 196.266 236.602 199.466 236.902C202.666 237.402 204.866 240.202 204.466 243.302ZM203.966 243.302C204.366 240.402 202.266 237.802 199.466 237.502C196.666 237.202 193.966 239.202 193.666 242.002C193.266 244.902 195.366 247.502 198.166 247.802C201.066 248.202 203.666 246.102 203.966 243.302Z" fill="white"/>
<path d="M202.866 240.502C202.966 241.102 203.066 241.702 202.966 242.402C202.666 245.202 200.066 247.202 197.166 246.902C196.966 246.902 196.866 246.902 196.666 246.802C197.166 247.002 197.566 247.202 198.166 247.202C200.666 247.502 202.966 245.702 203.266 243.202C203.466 242.202 203.266 241.302 202.866 240.502Z" fill="white"/>
<path d="M199.866 238.802C200.066 238.502 198.866 237.602 197.266 238.102C195.666 238.602 195.266 240.002 195.566 240.102C195.866 240.202 196.566 239.502 197.566 239.202C198.666 238.802 199.666 239.102 199.866 238.802Z" fill="white"/>
<path d="M255.466 182.302C255.066 185.402 252.266 187.602 249.066 187.302C245.966 186.902 243.766 184.102 244.066 180.902C244.466 177.802 247.266 175.602 250.466 175.902C253.666 176.402 255.866 179.202 255.466 182.302ZM254.966 182.302C255.366 179.402 253.266 176.802 250.466 176.502C247.666 176.202 244.966 178.202 244.666 181.002C244.266 183.902 246.366 186.502 249.166 186.802C252.066 187.202 254.666 185.102 254.966 182.302Z" fill="white"/>
<path d="M253.866 179.502C253.966 180.102 254.066 180.702 253.966 181.402C253.666 184.202 251.066 186.202 248.166 185.902C247.966 185.902 247.866 185.902 247.666 185.802C248.166 186.002 248.566 186.202 249.166 186.202C251.666 186.502 253.966 184.702 254.266 182.202C254.466 181.202 254.266 180.302 253.866 179.502Z" fill="white"/>
<path d="M250.866 177.802C251.066 177.502 249.866 176.602 248.266 177.102C246.666 177.602 246.266 179.002 246.566 179.102C246.866 179.202 247.566 178.502 248.566 178.202C249.666 177.802 250.666 178.102 250.866 177.802Z" fill="white"/>
<path d="M301.466 123.302C301.066 126.402 298.266 128.602 295.066 128.302C291.966 127.902 289.766 125.102 290.066 121.902C290.466 118.802 293.266 116.602 296.466 116.902C299.666 117.402 301.866 120.202 301.466 123.302ZM300.966 123.302C301.366 120.402 299.266 117.802 296.466 117.502C293.666 117.202 290.966 119.202 290.666 122.002C290.266 124.902 292.366 127.502 295.166 127.802C298.066 128.202 300.666 126.102 300.966 123.302Z" fill="white"/>
<path d="M299.866 120.502C299.966 121.102 300.066 121.702 299.966 122.402C299.666 125.202 297.066 127.202 294.166 126.902C293.966 126.902 293.866 126.902 293.666 126.802C294.166 127.002 294.566 127.202 295.166 127.202C297.666 127.502 299.966 125.702 300.266 123.202C300.466 122.202 300.266 121.302 299.866 120.502Z" fill="white"/>
<path d="M296.866 118.802C297.066 118.502 295.866 117.602 294.266 118.102C292.666 118.602 292.266 120.002 292.566 120.102C292.866 120.202 293.566 119.502 294.566 119.202C295.666 118.802 296.666 119.102 296.866 118.802Z" fill="white"/>
<path d="M63.7505 134.764C63.8608 137.888 61.4566 140.515 58.2505 140.74C55.1267 140.85 52.5 138.446 52.2747 135.24C52.1643 132.116 54.5685 129.489 57.7747 129.264C61.0134 129.236 63.6401 131.64 63.7505 134.764ZM63.2571 134.846C63.1794 131.919 60.6839 129.696 57.8724 129.856C55.0609 130.016 52.7228 132.429 52.8829 135.241C52.9607 138.167 55.4562 140.39 58.2677 140.23C61.1941 140.153 63.4173 137.657 63.2571 134.846Z" fill="white"/>
<path d="M61.7158 132.262C61.9122 132.838 62.1086 133.414 62.124 134.121C62.2841 136.932 60.0447 139.329 57.1345 139.506C56.9372 139.538 56.8385 139.554 56.6249 139.488C57.1508 139.604 57.5781 139.736 58.17 139.639C60.6855 139.527 62.6616 137.377 62.5503 134.861C62.5847 133.842 62.2408 132.987 61.7158 132.262Z" fill="white"/>
<path d="M58.4788 131.074C58.6273 130.745 57.2967 130.053 55.7995 130.807C54.3024 131.561 54.1358 133.007 54.4481 133.057C54.7603 133.107 55.337 132.302 56.2747 131.843C57.2949 131.269 58.3304 131.402 58.4788 131.074Z" fill="white"/>
<path d="M143.566 173.302C143.266 176.702 140.266 179.202 136.866 179.002C133.466 178.702 130.966 175.702 131.166 172.302C131.466 168.902 134.466 166.402 137.866 166.602C141.266 166.902 143.866 169.902 143.566 173.302ZM143.066 173.302C143.366 170.202 140.966 167.402 137.866 167.202C134.766 166.902 131.966 169.302 131.766 172.402C131.466 175.502 133.866 178.302 136.966 178.502C140.066 178.702 142.766 176.402 143.066 173.302Z" fill="white"/>
<path d="M141.666 170.302C141.866 170.902 141.966 171.602 141.866 172.302C141.566 175.402 138.866 177.702 135.866 177.402C135.666 177.402 135.566 177.402 135.366 177.302C135.866 177.502 136.366 177.702 136.966 177.702C139.666 177.902 142.166 175.902 142.366 173.102C142.466 172.202 142.166 171.202 141.666 170.302Z" fill="white"/>
<path d="M138.366 168.602C138.566 168.302 137.266 167.302 135.566 167.902C133.866 168.502 133.466 170.102 133.766 170.202C134.066 170.302 134.866 169.502 135.966 169.102C137.066 168.702 138.166 168.902 138.366 168.602Z" fill="white"/>
<path d="M184.566 204.302C184.266 207.702 181.266 210.202 177.866 210.002C174.466 209.702 171.966 206.702 172.166 203.302C172.466 199.902 175.466 197.402 178.866 197.602C182.266 197.902 184.866 200.902 184.566 204.302ZM184.066 204.302C184.366 201.202 181.966 198.402 178.866 198.202C175.766 197.902 172.966 200.302 172.766 203.402C172.466 206.502 174.866 209.302 177.966 209.502C181.066 209.702 183.766 207.402 184.066 204.302Z" fill="white"/>
<path d="M182.666 201.302C182.866 201.902 182.966 202.602 182.866 203.302C182.566 206.402 179.866 208.702 176.866 208.402C176.666 208.402 176.566 208.402 176.366 208.302C176.866 208.502 177.366 208.702 177.966 208.702C180.666 208.902 183.166 206.902 183.366 204.102C183.466 203.202 183.166 202.202 182.666 201.302Z" fill="white"/>
<path d="M179.366 199.602C179.566 199.302 178.266 198.302 176.566 198.902C174.866 199.502 174.466 201.102 174.766 201.202C175.066 201.302 175.866 200.502 176.966 200.102C178.066 199.702 179.166 199.902 179.366 199.602Z" fill="white"/>
<path d="M235.566 143.302C235.266 146.702 232.266 149.202 228.866 149.002C225.466 148.702 222.966 145.702 223.166 142.302C223.466 138.902 226.466 136.402 229.866 136.602C233.266 136.902 235.866 139.902 235.566 143.302ZM235.066 143.302C235.366 140.202 232.966 137.402 229.866 137.202C226.766 136.902 223.966 139.302 223.766 142.402C223.466 145.502 225.866 148.302 228.966 148.502C232.066 148.702 234.766 146.402 235.066 143.302Z" fill="white"/>
<path d="M233.666 140.302C233.866 140.902 233.966 141.602 233.866 142.302C233.566 145.402 230.866 147.702 227.866 147.402C227.666 147.402 227.566 147.402 227.366 147.302C227.866 147.502 228.366 147.702 228.966 147.702C231.666 147.902 234.166 145.902 234.366 143.102C234.466 142.202 234.166 141.202 233.666 140.302Z" fill="white"/>
<path d="M230.366 138.602C230.566 138.302 229.266 137.302 227.566 137.902C225.866 138.502 225.466 140.102 225.766 140.202C226.066 140.302 226.866 139.502 227.966 139.102C229.066 138.702 230.166 138.902 230.366 138.602Z" fill="white"/>
<path d="M281.566 84.302C281.266 87.702 278.266 90.202 274.866 90.002C271.466 89.702 268.966 86.702 269.166 83.302C269.466 79.902 272.466 77.402 275.866 77.602C279.266 77.902 281.866 80.902 281.566 84.302ZM281.066 84.302C281.366 81.202 278.966 78.402 275.866 78.202C272.766 77.902 269.966 80.302 269.766 83.402C269.466 86.502 271.866 89.302 274.966 89.502C278.066 89.702 280.766 87.402 281.066 84.302Z" fill="white"/>
<path d="M279.666 81.3018C279.866 81.9018 279.966 82.6018 279.866 83.3018C279.566 86.4018 276.866 88.7017 273.866 88.4017C273.666 88.4017 273.566 88.4018 273.366 88.3018C273.866 88.5018 274.366 88.7018 274.966 88.7018C277.666 88.9018 280.166 86.9017 280.366 84.1017C280.466 83.2017 280.166 82.2018 279.666 81.3018Z" fill="white"/>
<path d="M276.366 79.6021C276.566 79.3021 275.266 78.3021 273.566 78.9021C271.866 79.5021 271.466 81.1021 271.766 81.2021C272.066 81.3021 272.866 80.5021 273.966 80.1021C275.066 79.7021 276.166 79.9021 276.366 79.6021Z" fill="white"/>
<path d="M37.7635 99.5265C38.0214 102.93 35.4687 105.885 32.0815 106.242C28.6781 106.5 25.7228 103.947 25.3662 100.56C25.1084 97.1564 27.661 94.2011 31.0482 93.8445C34.4516 93.5867 37.5056 96.123 37.7635 99.5265ZM37.2702 99.6079C37.0612 96.5005 34.2371 94.1288 31.1459 94.4365C28.0385 94.6455 25.6668 97.4696 25.9745 100.561C26.1835 103.668 29.0076 106.04 32.0988 105.732C35.1899 105.425 37.4792 102.715 37.2702 99.6079Z" fill="white"/>
<path d="M35.3999 96.8761C35.695 97.4355 35.9077 98.1098 35.9231 98.8168C36.1321 101.924 33.8428 104.633 30.834 104.826C30.6367 104.859 30.538 104.875 30.3244 104.809C30.8503 104.925 31.3762 105.041 31.9682 104.943C34.6647 104.7 36.8055 102.32 36.5467 99.5246C36.4988 98.6203 36.0399 97.6826 35.3999 96.8761Z" fill="white"/>
<path d="M31.8675 95.7362C32.0159 95.4076 30.5704 94.6327 28.9908 95.5016C27.4113 96.3706 27.2773 98.0143 27.5896 98.0641C27.9019 98.1139 28.5608 97.1943 29.581 96.6204C30.6011 96.0466 31.719 96.0647 31.8675 95.7362Z" fill="white"/>
<path d="M163.466 130.803C162.866 135.203 158.866 138.303 154.466 137.803C150.066 137.203 146.966 133.203 147.466 128.803C148.066 124.403 152.066 121.303 156.466 121.803C160.966 122.403 164.066 126.403 163.466 130.803ZM162.866 130.803C163.366 126.803 160.466 123.003 156.466 122.503C152.466 122.003 148.666 124.903 148.166 128.903C147.666 132.903 150.566 136.703 154.566 137.203C158.566 137.703 162.366 134.803 162.866 130.803Z" fill="white"/>
<path d="M161.266 126.803C161.466 127.603 161.566 128.503 161.466 129.503C160.966 133.503 157.266 136.303 153.266 135.803C153.066 135.803 152.866 135.703 152.666 135.703C153.266 136.003 153.966 136.203 154.766 136.303C158.366 136.803 161.566 134.203 162.066 130.703C162.166 129.303 161.866 127.903 161.266 126.803Z" fill="white"/>
<path d="M156.966 124.403C157.266 124.003 155.566 122.703 153.366 123.403C151.166 124.103 150.466 126.103 150.966 126.303C151.366 126.503 152.366 125.403 153.866 125.003C155.366 124.403 156.766 124.803 156.966 124.403Z" fill="white"/>
<path d="M204.466 161.803C203.866 166.203 199.866 169.303 195.466 168.803C191.066 168.203 187.966 164.203 188.466 159.803C189.066 155.403 193.066 152.303 197.466 152.803C201.966 153.403 205.066 157.403 204.466 161.803ZM203.866 161.803C204.366 157.803 201.466 154.003 197.466 153.503C193.466 153.003 189.666 155.903 189.166 159.903C188.666 163.903 191.566 167.703 195.566 168.203C199.566 168.703 203.366 165.803 203.866 161.803Z" fill="white"/>
<path d="M202.266 157.803C202.466 158.603 202.566 159.503 202.466 160.503C201.966 164.503 198.266 167.303 194.266 166.803C194.066 166.803 193.866 166.703 193.666 166.703C194.266 167.003 194.966 167.203 195.766 167.303C199.366 167.803 202.566 165.203 203.066 161.703C203.166 160.303 202.866 158.903 202.266 157.803Z" fill="white"/>
<path d="M197.966 155.403C198.266 155.003 196.566 153.703 194.366 154.403C192.166 155.103 191.466 157.103 191.966 157.303C192.366 157.503 193.366 156.403 194.866 156.003C196.366 155.403 197.766 155.803 197.966 155.403Z" fill="white"/>
<path d="M255.466 100.803C254.866 105.203 250.866 108.303 246.466 107.803C242.066 107.203 238.966 103.203 239.466 98.8029C240.066 94.4029 244.066 91.3029 248.466 91.8029C252.966 92.4029 256.066 96.4029 255.466 100.803ZM254.866 100.803C255.366 96.8029 252.466 93.0029 248.466 92.5029C244.466 92.0029 240.666 94.9029 240.166 98.9029C239.666 102.903 242.566 106.703 246.566 107.203C250.566 107.703 254.366 104.803 254.866 100.803Z" fill="white"/>
<path d="M253.266 96.8027C253.466 97.6027 253.566 98.5027 253.466 99.5027C252.966 103.503 249.266 106.303 245.266 105.803C245.066 105.803 244.866 105.703 244.666 105.703C245.266 106.003 245.966 106.203 246.766 106.303C250.366 106.803 253.566 104.203 254.066 100.703C254.166 99.3027 253.866 97.9027 253.266 96.8027Z" fill="white"/>
<path d="M248.966 94.4026C249.266 94.0026 247.566 92.7026 245.366 93.4026C243.166 94.1026 242.466 96.1026 242.966 96.3026C243.366 96.5026 244.366 95.4026 245.866 95.0026C247.366 94.4026 248.766 94.8026 248.966 94.4026Z" fill="white"/>
<path d="M301.466 41.8029C300.866 46.2029 296.866 49.3029 292.466 48.8029C288.066 48.2029 284.966 44.2029 285.466 39.8029C286.066 35.4029 290.066 32.3029 294.466 32.8029C298.966 33.4029 302.066 37.4029 301.466 41.8029ZM300.866 41.8029C301.366 37.8029 298.466 34.0029 294.466 33.5029C290.466 33.0029 286.666 35.9029 286.166 39.9029C285.666 43.9029 288.566 47.7029 292.566 48.2029C296.566 48.7029 300.366 45.8029 300.866 41.8029Z" fill="white"/>
<path d="M299.266 37.8027C299.466 38.6027 299.566 39.5027 299.466 40.5027C298.966 44.5027 295.266 47.3027 291.266 46.8027C291.066 46.8027 290.866 46.7027 290.666 46.7027C291.266 47.0027 291.966 47.2027 292.766 47.3027C296.366 47.8027 299.566 45.2027 300.066 41.7027C300.166 40.3027 299.866 38.9027 299.266 37.8027Z" fill="white"/>
<path d="M294.966 35.4026C295.266 35.0026 293.566 33.7026 291.366 34.4026C289.166 35.1026 288.466 37.1026 288.966 37.3026C289.366 37.5026 290.366 36.4026 291.866 36.0026C293.366 35.4026 294.766 35.8026 294.966 35.4026Z" fill="white"/>
<path d="M50.4743 54.353C50.5991 58.792 47.1575 62.5022 42.7349 62.7256C38.2959 62.8504 34.5857 59.4089 34.3622 54.9862C34.2375 50.5472 37.679 46.837 42.1017 46.6136C46.6393 46.4725 50.3495 49.9141 50.4743 54.353ZM49.8823 54.4508C49.724 50.4227 46.2438 47.1459 42.2157 47.3042C38.1877 47.4625 34.9109 50.9428 35.0692 54.9708C35.2275 58.9988 38.7078 62.2757 42.7358 62.1174C46.7638 61.9591 50.0406 58.4788 49.8823 54.4508Z" fill="white"/>
<path d="M47.6521 50.765C47.9798 51.5218 48.225 52.3935 48.2893 53.3964C48.4476 57.4244 45.2531 60.7898 41.2251 60.9481C41.0278 60.9806 40.8142 60.9146 40.6168 60.9471C41.2577 61.1454 41.9809 61.2287 42.7865 61.197C46.4199 61.1039 49.1536 58.0173 49.0768 54.4826C48.9474 53.085 48.4233 51.7526 47.6521 50.765Z" fill="white"/>
<path d="M43.0184 49.0979C43.2493 48.6544 41.3602 47.6487 39.3036 48.6977C37.247 49.7467 36.8822 51.8341 37.4081 51.9499C37.8353 52.0821 38.6428 50.8339 40.0576 50.1949C41.4398 49.3586 42.8863 49.5251 43.0184 49.0979Z" fill="white"/>
<path d="M166.266 96.1024C166.166 100.002 162.966 103.102 159.166 103.002C155.266 102.902 152.166 99.7024 152.266 95.9024C152.366 92.0024 155.566 88.9024 159.366 89.0024C163.266 89.1024 166.366 92.3024 166.266 96.1024ZM165.766 96.1024C165.866 92.6024 162.966 89.6024 159.466 89.6024C155.966 89.5024 152.966 92.4024 152.966 95.9024C152.866 99.4024 155.766 102.402 159.266 102.402C162.766 102.502 165.666 99.7024 165.766 96.1024Z" fill="white"/>
<path d="M163.966 92.8027C164.266 93.5027 164.366 94.3027 164.366 95.1027C164.266 98.6027 161.466 101.403 157.866 101.403C157.666 101.403 157.466 101.403 157.266 101.403C157.866 101.603 158.466 101.703 159.166 101.803C162.266 101.803 164.866 99.4027 164.866 96.2027C164.966 94.9027 164.566 93.8027 163.966 92.8027Z" fill="white"/>
<path d="M160.066 91.2021C160.266 90.9021 158.666 89.9021 156.866 90.7021C154.966 91.5021 154.666 93.3021 155.066 93.4021C155.466 93.5021 156.166 92.5021 157.466 92.0021C158.566 91.4021 159.866 91.5021 160.066 91.2021Z" fill="white"/>
<path d="M207.266 127.102C207.166 131.002 203.966 134.102 200.166 134.002C196.266 133.902 193.166 130.702 193.266 126.902C193.366 123.002 196.566 119.902 200.366 120.002C204.266 120.102 207.366 123.302 207.266 127.102ZM206.766 127.102C206.866 123.602 203.966 120.602 200.466 120.602C196.966 120.502 193.966 123.402 193.966 126.902C193.866 130.402 196.766 133.402 200.266 133.402C203.766 133.502 206.666 130.702 206.766 127.102Z" fill="white"/>
<path d="M204.966 123.803C205.266 124.503 205.366 125.303 205.366 126.103C205.266 129.603 202.466 132.403 198.866 132.403C198.666 132.403 198.466 132.403 198.266 132.403C198.866 132.603 199.466 132.703 200.166 132.803C203.266 132.803 205.866 130.403 205.866 127.203C205.966 125.903 205.566 124.803 204.966 123.803Z" fill="white"/>
<path d="M201.066 122.202C201.266 121.902 199.666 120.902 197.866 121.702C195.966 122.502 195.666 124.302 196.066 124.402C196.466 124.502 197.166 123.502 198.466 123.002C199.566 122.402 200.866 122.502 201.066 122.202Z" fill="white"/>
<path d="M258.266 66.1024C258.166 70.0024 254.966 73.1024 251.166 73.0024C247.266 72.9024 244.166 69.7024 244.266 65.9024C244.366 62.0024 247.566 58.9024 251.366 59.0024C255.266 59.1024 258.366 62.3024 258.266 66.1024ZM257.766 66.1024C257.866 62.6024 254.966 59.6024 251.466 59.6024C247.966 59.5024 244.966 62.4024 244.966 65.9024C244.866 69.4024 247.766 72.4024 251.266 72.4024C254.766 72.5024 257.666 69.7024 257.766 66.1024Z" fill="white"/>
<path d="M255.966 62.8027C256.266 63.5027 256.366 64.3027 256.366 65.1027C256.266 68.6027 253.466 71.4027 249.866 71.4027C249.666 71.4027 249.466 71.4027 249.266 71.4027C249.866 71.6027 250.466 71.7027 251.166 71.8027C254.266 71.8027 256.866 69.4027 256.866 66.2027C256.966 64.9027 256.566 63.8027 255.966 62.8027Z" fill="white"/>
<path d="M252.066 61.2021C252.266 60.9021 250.666 59.9021 248.866 60.7021C246.966 61.5021 246.666 63.3021 247.066 63.4021C247.466 63.5021 248.166 62.5021 249.466 62.0021C250.566 61.4021 251.866 61.5021 252.066 61.2021Z" fill="white"/>
<path d="M304.266 7.10236C304.166 11.0024 300.966 14.1024 297.166 14.0024C293.266 13.9024 290.166 10.7024 290.266 6.90235C290.366 3.00235 293.566 -0.097647 297.366 0.00235299C301.266 0.102353 304.366 3.30236 304.266 7.10236ZM303.766 7.10236C303.866 3.60236 300.966 0.602355 297.466 0.602355C293.966 0.502355 290.966 3.40235 290.966 6.90235C290.866 10.4024 293.766 13.4024 297.266 13.4024C300.766 13.5024 303.666 10.7024 303.766 7.10236Z" fill="white"/>
<path d="M301.966 3.80273C302.266 4.50273 302.366 5.30274 302.366 6.10274C302.266 9.60274 299.466 12.4027 295.866 12.4027C295.666 12.4027 295.466 12.4027 295.266 12.4027C295.866 12.6027 296.466 12.7027 297.166 12.8027C300.266 12.8027 302.866 10.4027 302.866 7.20274C302.966 5.90274 302.566 4.80273 301.966 3.80273Z" fill="white"/>
<path d="M47.5836 19.66C48.1203 23.5242 45.468 27.1041 41.7025 27.6245C37.8383 28.1611 34.2584 25.5089 33.7381 21.7434C33.2014 17.8792 35.8537 14.2993 39.6192 13.7789C43.4834 13.2423 47.0633 15.8945 47.5836 19.66ZM47.0903 19.7415C46.6188 16.272 43.2688 13.7845 39.8156 14.3546C36.3461 14.8261 33.8586 18.1761 34.4287 21.6293C34.9002 25.0989 38.2502 27.5864 41.7034 27.0162C45.173 26.5447 47.5781 23.3097 47.0903 19.7415Z" fill="white"/>
<path d="M44.7765 16.7787C45.1865 17.4204 45.4155 18.1935 45.5459 18.9828C46.0174 22.4523 43.7109 25.671 40.159 26.2575C39.9616 26.2901 39.7643 26.3227 39.567 26.3552C40.1915 26.4548 40.7998 26.4557 41.5068 26.4404C44.5654 25.9354 46.7397 23.1439 46.2184 19.9866C46.1053 18.6877 45.5314 17.6676 44.7765 16.7787Z" fill="white"/>
<path d="M40.6684 15.836C40.8169 15.5074 39.0754 14.7814 37.4297 15.8639C35.6854 16.9628 35.6827 18.7876 36.0936 18.8211C36.5046 18.8546 37.0323 17.7539 38.2335 17.0488C39.2211 16.2777 40.52 16.1645 40.6684 15.836Z" fill="white"/>
</svg>
